STARTFONT 2.1
FONT -HP-Gothic-Bold-R-Normal--20-145-100-100-C-200-JISX0208.1990-0
SIZE 14 100 100
FONTBOUNDINGBOX 20 20 0 -2

STARTPROPERTIES 23
FONTNAME_REGISTRY ""
FOUNDRY "HP"
FAMILY_NAME "Gothic"
WEIGHT_NAME "Bold"
SLANT "R"
SETWIDTH_NAME "Normal"
ADD_STYLE_NAME ""
PIXEL_SIZE 20
POINT_SIZE 145
RESOLUTION_X 100
RESOLUTION_Y 100
SPACING "C"
AVERAGE_WIDTH 200
CHARSET_REGISTRY "JISX0208.1990"
CHARSET_ENCODING "0"
COPYRIGHT "Copyright (c) 1994 Hewlett-Packard Company. Copyright 1994 by Bridge Inc."
_HP_ASXVERSION "@(#) ASX 3.00 $Revision: 13.9 $ gotB20k"
WEIGHT 10
X_HEIGHT 18
QUAD_WIDTH 20
DEFAULT_CHAR 8751
FONT_DESCENT 2
FONT_ASCENT 18
ENDPROPERTIES

CHARS 6963

STARTCHAR jisx0208_2121
ENCODING 8481
SWIDTH 960 0
DWIDTH 20 0
BBX 20 20 0 -2
BITMAP
000000
000000
000000
000000
000000
000000
000000
000000
000000
000000
000000
000000
000000
000000
000000
000000
000000
000000
000000
000000
ENDCHAR

STARTCHAR jisx0208_2122
ENCODING 8482
SWIDTH 960 0
DWIDTH 20 0
BBX 20 20 0 -2
BITMAP
000000
000000
000000
000000
000000
000000
000000
000000
000000
000000
000000
000000
000000
000000
000000
300000
180000
0C0000
060000
000000
ENDCHAR

STARTCHAR jisx0208_2123
ENCODING 8483
SWIDTH 960 0
DWIDTH 20 0
BBX 20 20 0 -2
BITMAP
000000
000000
000000
000000
000000
000000
000000
000000
000000
000000
000000
000000
000000
000000
1E0000
330000
330000
330000
1E0000
000000
ENDCHAR

STARTCHAR jisx0208_2124
ENCODING 8484
SWIDTH 960 0
DWIDTH 20 0
BBX 20 20 0 -2
BITMAP
000000
000000
000000
000000
000000
000000
000000
000000
000000
000000
000000
000000
000000
000000
000000
380000
380000
180000
300000
000000
ENDCHAR

STARTCHAR jisx0208_2125
ENCODING 8485
SWIDTH 960 0
DWIDTH 20 0
BBX 20 20 0 -2
BITMAP
000000
000000
000000
000000
000000
000000
000000
000000
000000
000000
000000
000000
000000
000000
000000
380000
380000
000000
000000
000000
ENDCHAR

STARTCHAR jisx0208_2126
ENCODING 8486
SWIDTH 960 0
DWIDTH 20 0
BBX 20 20 0 -2
BITMAP
000000
000000
000000
000000
000000
000000
000000
000000
00F000
00F000
00F000
000000
000000
000000
000000
000000
000000
000000
000000
000000
ENDCHAR

STARTCHAR jisx0208_2127
ENCODING 8487
SWIDTH 960 0
DWIDTH 20 0
BBX 20 20 0 -2
BITMAP
000000
000000
000000
000000
000000
007000
007000
000000
000000
000000
000000
000000
000000
007000
007000
000000
000000
000000
000000
000000
ENDCHAR

STARTCHAR jisx0208_2128
ENCODING 8488
SWIDTH 960 0
DWIDTH 20 0
BBX 20 20 0 -2
BITMAP
000000
000000
000000
000000
000000
007000
007000
000000
000000
000000
000000
000000
000000
007000
007000
003000
006000
000000
000000
000000
ENDCHAR

STARTCHAR jisx0208_2129
ENCODING 8489
SWIDTH 960 0
DWIDTH 20 0
BBX 20 20 0 -2
BITMAP
000000
000000
01F800
030C00
060600
060600
060600
000C00
001800
003000
006000
006000
006000
000000
000000
007000
007000
000000
000000
000000
ENDCHAR

STARTCHAR jisx0208_212A
ENCODING 8490
SWIDTH 960 0
DWIDTH 20 0
BBX 20 20 0 -2
BITMAP
000000
000000
006000
006000
006000
006000
006000
006000
006000
006000
006000
006000
000000
000000
000000
007000
007000
000000
000000
000000
ENDCHAR

STARTCHAR jisx0208_212B
ENCODING 8491
SWIDTH 960 0
DWIDTH 20 0
BBX 20 20 0 -2
BITMAP
000000
180000
0C0000
300000
180000
000000
000000
000000
000000
000000
000000
000000
000000
000000
000000
000000
000000
000000
000000
000000
ENDCHAR

STARTCHAR jisx0208_212C
ENCODING 8492
SWIDTH 960 0
DWIDTH 20 0
BBX 20 20 0 -2
BITMAP
000000
000000
380000
6C0000
6C0000
380000
000000
000000
000000
000000
000000
000000
000000
000000
000000
000000
000000
000000
000000
000000
ENDCHAR

STARTCHAR jisx0208_212D
ENCODING 8493
SWIDTH 960 0
DWIDTH 20 0
BBX 20 20 0 -2
BITMAP
000000
003C00
01E000
000000
000000
000000
000000
000000
000000
000000
000000
000000
000000
000000
000000
000000
000000
000000
000000
000000
ENDCHAR

STARTCHAR jisx0208_212E
ENCODING 8494
SWIDTH 960 0
DWIDTH 20 0
BBX 20 20 0 -2
BITMAP
000000
01E000
003C00
000000
000000
000000
000000
000000
000000
000000
000000
000000
000000
000000
000000
000000
000000
000000
000000
000000
ENDCHAR

STARTCHAR jisx0208_212F
ENCODING 8495
SWIDTH 960 0
DWIDTH 20 0
BBX 20 20 0 -2
BITMAP
000000
038E00
038E00
000000
000000
000000
000000
000000
000000
000000
000000
000000
000000
000000
000000
000000
000000
000000
000000
000000
ENDCHAR

STARTCHAR jisx0208_2130
ENCODING 8496
SWIDTH 960 0
DWIDTH 20 0
BBX 20 20 0 -2
BITMAP
000000
007000
01DC00
000000
000000
000000
000000
000000
000000
000000
000000
000000
000000
000000
000000
000000
000000
000000
000000
000000
ENDCHAR

STARTCHAR jisx0208_2131
ENCODING 8497
SWIDTH 960 0
DWIDTH 20 0
BBX 20 20 0 -2
BITMAP
000000
7FFFF0
000000
000000
000000
000000
000000
000000
000000
000000
000000
000000
000000
000000
000000
000000
000000
000000
000000
000000
ENDCHAR

STARTCHAR jisx0208_2132
ENCODING 8498
SWIDTH 960 0
DWIDTH 20 0
BBX 20 20 0 -2
BITMAP
000000
000000
000000
000000
000000
000000
000000
000000
000000
000000
000000
000000
000000
000000
000000
000000
000000
000000
7FFFF0
000000
ENDCHAR

STARTCHAR jisx0208_2133
ENCODING 8499
SWIDTH 960 0
DWIDTH 20 0
BBX 20 20 0 -2
BITMAP
000000
000000
000000
000000
000000
060000
038000
00C000
006000
003000
001800
000C00
000C00
000600
000000
000000
000000
000000
000000
000000
ENDCHAR

STARTCHAR jisx0208_2134
ENCODING 8500
SWIDTH 960 0
DWIDTH 20 0
BBX 20 20 0 -2
BITMAP
000000
000000
000000
000600
001B00
060C00
038000
00C000
006000
003000
001800
000C00
000C00
000600
000000
000000
000000
000000
000000
000000
ENDCHAR

STARTCHAR jisx0208_2135
ENCODING 8501
SWIDTH 960 0
DWIDTH 20 0
BBX 20 20 0 -2
BITMAP
000000
000000
000000
000000
000000
030000
01C000
006000
003000
001800
000C00
000C00
000600
000600
003E00
000000
000000
000000
000000
000000
ENDCHAR

STARTCHAR jisx0208_2136
ENCODING 8502
SWIDTH 960 0
DWIDTH 20 0
BBX 20 20 0 -2
BITMAP
000000
000000
000000
000300
000D80
030600
01C000
006000
003000
001800
000C00
000C00
000600
000600
003E00
000000
000000
000000
000000
000000
ENDCHAR

STARTCHAR jisx0208_2137
ENCODING 8503
SWIDTH 960 0
DWIDTH 20 0
BBX 20 20 0 -2
BITMAP
000000
000000
000000
000000
000000
00CC00
00CC00
00CC00
00CC00
019800
019800
019800
033000
033000
000000
000000
000000
000000
000000
000000
ENDCHAR

STARTCHAR jisx0208_2138
ENCODING 8504
SWIDTH 960 0
DWIDTH 20 0
BBX 20 20 0 -2
BITMAP
000000
007000
007000
00D800
018C00
030600
0E0380
1800C0
700070
000000
0FFF80
006000
006000
006000
006000
006000
006000
3FFFE0
000000
000000
ENDCHAR

STARTCHAR jisx0208_2139
ENCODING 8505
SWIDTH 960 0
DWIDTH 20 0
BBX 20 20 0 -2
BITMAP
000000
000000
018000
018000
018000
03FF80
030180
060300
060300
0C0600
180C00
338C00
00D800
007000
001800
000C00
000600
000000
000000
000000
ENDCHAR

STARTCHAR jisx0208_213A
ENCODING 8506
SWIDTH 960 0
DWIDTH 20 0
BBX 20 20 0 -2
BITMAP
000000
000000
000060
0000C0
000180
000300
000600
07CC00
0C7800
182C00
186700
18C180
318000
330000
360000
2C0000
380000
000000
000000
000000
ENDCHAR

STARTCHAR jisx0208_213B
ENCODING 8507
SWIDTH 960 0
DWIDTH 20 0
BBX 20 20 0 -2
BITMAP
000000
000000
01FC00
070700
0C0180
1800C0
1800C0
300060
300060
300060
300060
300060
300060
1800C0
1800C0
0C0180
070700
01FC00
000000
000000
ENDCHAR

STARTCHAR jisx0208_213C
ENCODING 8508
SWIDTH 960 0
DWIDTH 20 0
BBX 20 20 0 -2
BITMAP
000000
000000
000000
000000
000000
000000
000000
000000
000000
3FFFE0
000000
000000
000000
000000
000000
000000
000000
000000
000000
000000
ENDCHAR

STARTCHAR jisx0208_213D
ENCODING 8509
SWIDTH 960 0
DWIDTH 20 0
BBX 20 20 0 -2
BITMAP
000000
000000
000000
000000
000000
000000
000000
000000
000000
7FFFF0
000000
000000
000000
000000
000000
000000
000000
000000
000000
000000
ENDCHAR

STARTCHAR jisx0208_213E
ENCODING 8510
SWIDTH 960 0
DWIDTH 20 0
BBX 20 20 0 -2
BITMAP
000000
000000
000000
000000
000000
000000
000000
000000
000000
01FC00
000000
000000
000000
000000
000000
000000
000000
000000
000000
000000
ENDCHAR

STARTCHAR jisx0208_213F
ENCODING 8511
SWIDTH 960 0
DWIDTH 20 0
BBX 20 20 0 -2
BITMAP
000000
000030
000060
0000C0
000180
000300
000600
000C00
001800
003000
006000
00C000
018000
030000
060000
0C0000
180000
300000
600000
000000
ENDCHAR

STARTCHAR jisx0208_2140
ENCODING 8512
SWIDTH 960 0
DWIDTH 20 0
BBX 20 20 0 -2
BITMAP
000000
600000
300000
180000
0C0000
060000
030000
018000
00C000
006000
003000
001800
000C00
000600
000300
000180
0000C0
000060
000030
000000
ENDCHAR

STARTCHAR jisx0208_2141
ENCODING 8513
SWIDTH 960 0
DWIDTH 20 0
BBX 20 20 0 -2
BITMAP
000000
000000
000000
000000
000000
000000
000000
000000
0F8000
38E030
6038E0
000F80
000000
000000
000000
000000
000000
000000
000000
000000
ENDCHAR

STARTCHAR jisx0208_2142
ENCODING 8514
SWIDTH 960 0
DWIDTH 20 0
BBX 20 20 0 -2
BITMAP
000000
030600
030600
030600
030600
030600
030600
030600
030600
030600
030600
030600
030600
030600
030600
030600
030600
030600
030600
000000
ENDCHAR

STARTCHAR jisx0208_2143
ENCODING 8515
SWIDTH 960 0
DWIDTH 20 0
BBX 20 20 0 -2
BITMAP
000000
006000
006000
006000
006000
006000
006000
006000
006000
006000
006000
006000
006000
006000
006000
006000
006000
006000
006000
000000
ENDCHAR

STARTCHAR jisx0208_2144
ENCODING 8516
SWIDTH 960 0
DWIDTH 20 0
BBX 20 20 0 -2
BITMAP
000000
000000
000000
000000
000000
000000
000000
000000
000000
1C71C0
1C71C0
000000
000000
000000
000000
000000
000000
000000
000000
000000
ENDCHAR

STARTCHAR jisx0208_2145
ENCODING 8517
SWIDTH 960 0
DWIDTH 20 0
BBX 20 20 0 -2
BITMAP
000000
000000
000000
000000
000000
000000
000000
000000
000000
0E0380
0E0380
000000
000000
000000
000000
000000
000000
000000
000000
000000
ENDCHAR

STARTCHAR jisx0208_2146
ENCODING 8518
SWIDTH 960 0
DWIDTH 20 0
BBX 20 20 0 -2
BITMAP
000000
000060
0000C0
0000E0
0000E0
000000
000000
000000
000000
000000
000000
000000
000000
000000
000000
000000
000000
000000
000000
000000
ENDCHAR

STARTCHAR jisx0208_2147
ENCODING 8519
SWIDTH 960 0
DWIDTH 20 0
BBX 20 20 0 -2
BITMAP
000000
380000
380000
180000
300000
000000
000000
000000
000000
000000
000000
000000
000000
000000
000000
000000
000000
000000
000000
000000
ENDCHAR

STARTCHAR jisx0208_2148
ENCODING 8520
SWIDTH 960 0
DWIDTH 20 0
BBX 20 20 0 -2
BITMAP
000000
000360
0006C0
0006E0
0006E0
000000
000000
000000
000000
000000
000000
000000
000000
000000
000000
000000
000000
000000
000000
000000
ENDCHAR

STARTCHAR jisx0208_2149
ENCODING 8521
SWIDTH 960 0
DWIDTH 20 0
BBX 20 20 0 -2
BITMAP
000000
370000
370000
1B0000
360000
000000
000000
000000
000000
000000
000000
000000
000000
000000
000000
000000
000000
000000
000000
000000
ENDCHAR

STARTCHAR jisx0208_214A
ENCODING 8522
SWIDTH 960 0
DWIDTH 20 0
BBX 20 20 0 -2
BITMAP
000000
000060
0000C0
000180
000300
000300
000600
000600
000600
000600
000600
000600
000600
000600
000300
000300
000180
0000C0
000060
000000
ENDCHAR

STARTCHAR jisx0208_214B
ENCODING 8523
SWIDTH 960 0
DWIDTH 20 0
BBX 20 20 0 -2
BITMAP
000000
300000
180000
0C0000
060000
060000
030000
030000
030000
030000
030000
030000
030000
030000
060000
060000
0C0000
180000
300000
000000
ENDCHAR

STARTCHAR jisx0208_214C
ENCODING 8524
SWIDTH 960 0
DWIDTH 20 0
BBX 20 20 0 -2
BITMAP
000000
0000E0
000380
000600
000600
000600
000600
000600
000600
000600
000600
000600
000600
000600
000600
000600
000600
000380
0000E0
000000
ENDCHAR

STARTCHAR jisx0208_214D
ENCODING 8525
SWIDTH 960 0
DWIDTH 20 0
BBX 20 20 0 -2
BITMAP
000000
380000
0E0000
030000
030000
030000
030000
030000
030000
030000
030000
030000
030000
030000
030000
030000
030000
0E0000
380000
000000
ENDCHAR

STARTCHAR jisx0208_214E
ENCODING 8526
SWIDTH 960 0
DWIDTH 20 0
BBX 20 20 0 -2
BITMAP
000000
0007E0
000600
000600
000600
000600
000600
000600
000600
000600
000600
000600
000600
000600
000600
000600
000600
000600
0007E0
000000
ENDCHAR

STARTCHAR jisx0208_214F
ENCODING 8527
SWIDTH 960 0
DWIDTH 20 0
BBX 20 20 0 -2
BITMAP
000000
3F0000
030000
030000
030000
030000
030000
030000
030000
030000
030000
030000
030000
030000
030000
030000
030000
030000
3F0000
000000
ENDCHAR

STARTCHAR jisx0208_2150
ENCODING 8528
SWIDTH 960 0
DWIDTH 20 0
BBX 20 20 0 -2
BITMAP
000000
0000E0
000180
000180
000180
000180
000180
000180
000180
000700
000700
000180
000180
000180
000180
000180
000180
000180
0000E0
000000
ENDCHAR

STARTCHAR jisx0208_2151
ENCODING 8529
SWIDTH 960 0
DWIDTH 20 0
BBX 20 20 0 -2
BITMAP
000000
380000
0C0000
0C0000
0C0000
0C0000
0C0000
0C0000
0C0000
070000
070000
0C0000
0C0000
0C0000
0C0000
0C0000
0C0000
0C0000
380000
000000
ENDCHAR

STARTCHAR jisx0208_2152
ENCODING 8530
SWIDTH 960 0
DWIDTH 20 0
BBX 20 20 0 -2
BITMAP
000000
000060
000060
0000C0
0000C0
000180
000180
000300
000300
000600
000600
000300
000300
000180
000180
0000C0
0000C0
000060
000060
000000
ENDCHAR

STARTCHAR jisx0208_2153
ENCODING 8531
SWIDTH 960 0
DWIDTH 20 0
BBX 20 20 0 -2
BITMAP
000000
300000
300000
180000
180000
0C0000
0C0000
060000
060000
030000
030000
060000
060000
0C0000
0C0000
180000
180000
300000
300000
000000
ENDCHAR

STARTCHAR jisx0208_2154
ENCODING 8532
SWIDTH 960 0
DWIDTH 20 0
BBX 20 20 0 -2
BITMAP
000000
000360
000360
0006C0
0006C0
000D80
000D80
001B00
001B00
003600
003600
001B00
001B00
000D80
000D80
0006C0
0006C0
000360
000360
000000
ENDCHAR

STARTCHAR jisx0208_2155
ENCODING 8533
SWIDTH 960 0
DWIDTH 20 0
BBX 20 20 0 -2
BITMAP
000000
360000
360000
1B0000
1B0000
0D8000
0D8000
06C000
06C000
036000
036000
06C000
06C000
0D8000
0D8000
1B0000
1B0000
360000
360000
000000
ENDCHAR

STARTCHAR jisx0208_2156
ENCODING 8534
SWIDTH 960 0
DWIDTH 20 0
BBX 20 20 0 -2
BITMAP
000000
000FE0
000C00
000C00
000C00
000C00
000C00
000C00
000C00
000C00
000C00
000C00
000C00
000C00
000C00
000C00
000C00
000C00
000C00
000000
ENDCHAR

STARTCHAR jisx0208_2157
ENCODING 8535
SWIDTH 960 0
DWIDTH 20 0
BBX 20 20 0 -2
BITMAP
000000
018000
018000
018000
018000
018000
018000
018000
018000
018000
018000
018000
018000
018000
018000
018000
018000
018000
3F8000
000000
ENDCHAR

STARTCHAR jisx0208_2158
ENCODING 8536
SWIDTH 960 0
DWIDTH 20 0
BBX 20 20 0 -2
BITMAP
000000
0007E0
000660
0005E0
000580
000580
000580
000580
000580
000580
000580
000580
000580
000580
000580
000580
000580
000580
000780
000000
ENDCHAR

STARTCHAR jisx0208_2159
ENCODING 8537
SWIDTH 960 0
DWIDTH 20 0
BBX 20 20 0 -2
BITMAP
000000
0F0000
0B0000
0B0000
0B0000
0B0000
0B0000
0B0000
0B0000
0B0000
0B0000
0B0000
0B0000
0B0000
0B0000
0B0000
3B0000
330000
3F0000
000000
ENDCHAR

STARTCHAR jisx0208_215A
ENCODING 8538
SWIDTH 960 0
DWIDTH 20 0
BBX 20 20 0 -2
BITMAP
000000
0003E0
0003C0
0003C0
000380
000380
000380
000300
000300
000300
000300
000300
000300
000380
000380
000380
0003C0
0003C0
0003E0
000000
ENDCHAR

STARTCHAR jisx0208_215B
ENCODING 8539
SWIDTH 960 0
DWIDTH 20 0
BBX 20 20 0 -2
BITMAP
000000
3E0000
1E0000
1E0000
0E0000
0E0000
0E0000
060000
060000
060000
060000
060000
060000
0E0000
0E0000
0E0000
1E0000
1E0000
3E0000
000000
ENDCHAR

STARTCHAR jisx0208_215C
ENCODING 8540
SWIDTH 960 0
DWIDTH 20 0
BBX 20 20 0 -2
BITMAP
000000
000000
000000
006000
006000
006000
006000
006000
006000
1FFF80
006000
006000
006000
006000
006000
006000
000000
000000
000000
000000
ENDCHAR

STARTCHAR jisx0208_215D
ENCODING 8541
SWIDTH 960 0
DWIDTH 20 0
BBX 20 20 0 -2
BITMAP
000000
000000
000000
000000
000000
000000
000000
000000
000000
1FFFC0
000000
000000
000000
000000
000000
000000
000000
000000
000000
000000
ENDCHAR

STARTCHAR jisx0208_215E
ENCODING 8542
SWIDTH 960 0
DWIDTH 20 0
BBX 20 20 0 -2
BITMAP
000000
000000
000000
006000
006000
006000
006000
1FFF80
006000
006000
006000
006000
000000
000000
000000
1FFF80
000000
000000
000000
000000
ENDCHAR

STARTCHAR jisx0208_215F
ENCODING 8543
SWIDTH 960 0
DWIDTH 20 0
BBX 20 20 0 -2
BITMAP
000000
000000
000000
000000
0C0300
060600
030C00
019800
00B000
006000
00B000
019800
030C00
060600
0C0300
000000
000000
000000
000000
000000
ENDCHAR

STARTCHAR jisx0208_2160
ENCODING 8544
SWIDTH 960 0
DWIDTH 20 0
BBX 20 20 0 -2
BITMAP
000000
000000
000000
000000
007000
007000
000000
000000
000000
1FFFC0
000000
000000
000000
007000
007000
000000
000000
000000
000000
000000
ENDCHAR

STARTCHAR jisx0208_2161
ENCODING 8545
SWIDTH 960 0
DWIDTH 20 0
BBX 20 20 0 -2
BITMAP
000000
000000
000000
000000
000000
000000
000000
1FFFC0
000000
000000
000000
000000
1FFFC0
000000
000000
000000
000000
000000
000000
000000
ENDCHAR

STARTCHAR jisx0208_2162
ENCODING 8546
SWIDTH 960 0
DWIDTH 20 0
BBX 20 20 0 -2
BITMAP
000000
000000
000000
000C00
000C00
001800
001800
1FFFC0
003000
006000
006000
00C000
1FFFC0
018000
018000
030000
030000
000000
000000
000000
ENDCHAR

STARTCHAR jisx0208_2163
ENCODING 8547
SWIDTH 960 0
DWIDTH 20 0
BBX 20 20 0 -2
BITMAP
000000
000000
000000
0001C0
000700
001C00
007000
01C000
070000
1C0000
070000
01C000
007000
001C00
000700
0001C0
000000
000000
000000
000000
ENDCHAR

STARTCHAR jisx0208_2164
ENCODING 8548
SWIDTH 960 0
DWIDTH 20 0
BBX 20 20 0 -2
BITMAP
000000
000000
000000
1C0000
070000
01C000
007000
001C00
000700
0001C0
000700
001C00
007000
01C000
070000
1C0000
000000
000000
000000
000000
ENDCHAR

STARTCHAR jisx0208_2165
ENCODING 8549
SWIDTH 960 0
DWIDTH 20 0
BBX 20 20 0 -2
BITMAP
000000
000000
000000
0003C0
001E00
00F000
078000
1C0000
078000
00F000
001E00
0003C0
000000
1FFFC0
000000
000000
1FFFC0
000000
000000
000000
ENDCHAR

STARTCHAR jisx0208_2166
ENCODING 8550
SWIDTH 960 0
DWIDTH 20 0
BBX 20 20 0 -2
BITMAP
000000
000000
000000
1E0000
03C000
007800
000F00
0001C0
000F00
007800
03C000
1E0000
000000
1FFFC0
000000
000000
1FFFC0
000000
000000
000000
ENDCHAR

STARTCHAR jisx0208_2167
ENCODING 8551
SWIDTH 960 0
DWIDTH 20 0
BBX 20 20 0 -2
BITMAP
000000
000000
000000
000000
000000
000000
1F07C0
318C60
60D830
607030
607030
60D830
318C60
1F07C0
000000
000000
000000
000000
000000
000000
ENDCHAR

STARTCHAR jisx0208_2168
ENCODING 8552
SWIDTH 960 0
DWIDTH 20 0
BBX 20 20 0 -2
BITMAP
000000
000000
000000
000000
007000
007000
000000
000000
000000
000000
000000
000000
000000
000000
1C01C0
1C01C0
000000
000000
000000
000000
ENDCHAR

STARTCHAR jisx0208_2169
ENCODING 8553
SWIDTH 960 0
DWIDTH 20 0
BBX 20 20 0 -2
BITMAP
000000
000000
003FE0
0000E0
000160
000360
000660
000C60
001860
0FB060
186000
303000
303000
303000
303000
303000
186000
0FC000
000000
000000
ENDCHAR

STARTCHAR jisx0208_216A
ENCODING 8554
SWIDTH 960 0
DWIDTH 20 0
BBX 20 20 0 -2
BITMAP
000000
000000
01F800
030C00
060600
060600
060600
060600
060600
030C00
01F800
006000
006000
0FFF00
006000
006000
006000
006000
000000
000000
ENDCHAR

STARTCHAR jisx0208_216B
ENCODING 8555
SWIDTH 960 0
DWIDTH 20 0
BBX 20 20 0 -2
BITMAP
000000
380000
6C0000
6C0000
380000
000000
000000
000000
000000
000000
000000
000000
000000
000000
000000
000000
000000
000000
000000
000000
ENDCHAR

STARTCHAR jisx0208_216C
ENCODING 8556
SWIDTH 960 0
DWIDTH 20 0
BBX 20 20 0 -2
BITMAP
000000
180000
180000
300000
300000
600000
000000
000000
000000
000000
000000
000000
000000
000000
000000
000000
000000
000000
000000
000000
ENDCHAR

STARTCHAR jisx0208_216D
ENCODING 8557
SWIDTH 960 0
DWIDTH 20 0
BBX 20 20 0 -2
BITMAP
000000
1B0000
1B0000
360000
360000
6C0000
000000
000000
000000
000000
000000
000000
000000
000000
000000
000000
000000
000000
000000
000000
ENDCHAR

STARTCHAR jisx0208_216E
ENCODING 8558
SWIDTH 960 0
DWIDTH 20 0
BBX 20 20 0 -2
BITMAP
000000
380000
6C7E00
6DC380
3B0180
0300C0
060000
060000
060000
060000
060000
060000
0600C0
0300C0
030180
01C380
007E00
000000
000000
000000
ENDCHAR

STARTCHAR jisx0208_216F
ENCODING 8559
SWIDTH 960 0
DWIDTH 20 0
BBX 20 20 0 -2
BITMAP
000000
000000
0C0300
060600
060600
030C00
030C00
019800
019800
00B000
0FFF00
006000
006000
0FFF00
006000
006000
006000
000000
000000
000000
ENDCHAR

STARTCHAR jisx0208_2170
ENCODING 8560
SWIDTH 960 0
DWIDTH 20 0
BBX 20 20 0 -2
BITMAP
000000
006000
03F800
066C00
0C6600
0C6600
0C6000
066000
03E000
007C00
006600
006300
0C6300
0C6300
066300
076600
01FC00
006000
006000
000000
ENDCHAR

STARTCHAR jisx0208_2171
ENCODING 8561
SWIDTH 960 0
DWIDTH 20 0
BBX 20 20 0 -2
BITMAP
000000
000000
000000
000000
000600
000600
00FC00
039E00
031600
063300
063000
066000
066000
06C300
02C600
038E00
01F800
030000
030000
000000
ENDCHAR

STARTCHAR jisx0208_2172
ENCODING 8562
SWIDTH 960 0
DWIDTH 20 0
BBX 20 20 0 -2
BITMAP
000000
000000
003E00
006300
00C180
00C000
00C000
00C000
00C000
0FFF00
006000
006000
006000
0F6000
18E0C0
18B180
0F9F00
000000
000000
000000
ENDCHAR

STARTCHAR jisx0208_2173
ENCODING 8563
SWIDTH 960 0
DWIDTH 20 0
BBX 20 20 0 -2
BITMAP
000000
000000
0F0180
198300
30C600
30C600
30CC00
199800
0F3000
003000
006780
00CCC0
019860
019860
031860
060CC0
0C0780
000000
000000
000000
ENDCHAR

STARTCHAR jisx0208_2174
ENCODING 8564
SWIDTH 960 0
DWIDTH 20 0
BBX 20 20 0 -2
BITMAP
000000
000000
000000
00C600
00C600
00C600
00C600
0FFFC0
018C00
018C00
018C00
018C00
1FFF80
031800
031800
031800
031800
000000
000000
000000
ENDCHAR

STARTCHAR jisx0208_2175
ENCODING 8565
SWIDTH 960 0
DWIDTH 20 0
BBX 20 20 0 -2
BITMAP
000000
000000
01E000
033000
033000
033000
036000
01C000
018000
02C000
066300
0C6300
0C3300
0C1600
0C0C00
061600
03F300
000000
000000
000000
ENDCHAR

STARTCHAR jisx0208_2176
ENCODING 8566
SWIDTH 960 0
DWIDTH 20 0
BBX 20 20 0 -2
BITMAP
000000
000000
000000
000000
006000
006000
066600
0F6F00
035C00
00F000
00F000
035C00
0F6F00
066600
006000
006000
000000
000000
000000
000000
ENDCHAR

STARTCHAR jisx0208_2177
ENCODING 8567
SWIDTH 960 0
DWIDTH 20 0
BBX 20 20 0 -2
BITMAP
000000
000000
01FC00
070700
0C0180
1800C0
18F6C0
318E60
330660
330660
330C60
330CC0
319DC0
18F700
180000
0C0000
070700
01FC00
000000
000000
ENDCHAR

STARTCHAR jisx0208_2178
ENCODING 8568
SWIDTH 960 0
DWIDTH 20 0
BBX 20 20 0 -2
BITMAP
000000
01F800
030C00
030600
030000
018000
00E000
01B800
030C00
030600
030600
018600
00EC00
003800
000C00
000600
030600
018600
00FC00
000000
ENDCHAR

STARTCHAR jisx0208_2179
ENCODING 8569
SWIDTH 960 0
DWIDTH 20 0
BBX 20 20 0 -2
BITMAP
000000
007000
007000
007000
00D800
00D800
00D800
3F8FE0
1800C0
0C0180
060300
030600
030600
060300
067300
05DB00
0B0580
0E0380
000000
000000
ENDCHAR

STARTCHAR jisx0208_217A
ENCODING 8570
SWIDTH 960 0
DWIDTH 20 0
BBX 20 20 0 -2
BITMAP
000000
007000
007000
007000
00F800
00F800
00F800
3FFFE0
1FFFC0
0FFF80
07FF00
03FE00
03FE00
07FF00
07FF00
07DF00
0F0780
0E0380
000000
000000
ENDCHAR

STARTCHAR jisx0208_217B
ENCODING 8571
SWIDTH 960 0
DWIDTH 20 0
BBX 20 20 0 -2
BITMAP
000000
000000
00F800
038E00
060300
0C0180
1800C0
1800C0
300060
300060
300060
300060
1800C0
1800C0
0C0180
060300
038E00
00F800
000000
000000
ENDCHAR

STARTCHAR jisx0208_217C
ENCODING 8572
SWIDTH 960 0
DWIDTH 20 0
BBX 20 20 0 -2
BITMAP
000000
000000
00F800
03FE00
07FF00
0FFF80
1FFFC0
1FFFC0
3FFFE0
3FFFE0
3FFFE0
3FFFE0
1FFFC0
1FFFC0
0FFF80
07FF00
03FE00
00F800
000000
000000
ENDCHAR

STARTCHAR jisx0208_217D
ENCODING 8573
SWIDTH 960 0
DWIDTH 20 0
BBX 20 20 0 -2
BITMAP
000000
000000
00F800
038E00
060300
0C0180
18F8C0
198CC0
330660
330660
330660
330660
198CC0
18F8C0
0C0180
060300
038E00
00F800
000000
000000
ENDCHAR

STARTCHAR jisx0208_217E
ENCODING 8574
SWIDTH 960 0
DWIDTH 20 0
BBX 20 20 0 -2
BITMAP
000000
007000
00D800
018C00
030600
060300
0C0180
1800C0
300060
600030
600030
300060
1800C0
0C0180
060300
030600
018C00
00D800
007000
000000
ENDCHAR

STARTCHAR jisx0208_2221
ENCODING 8737
SWIDTH 960 0
DWIDTH 20 0
BBX 20 20 0 -2
BITMAP
000000
007000
00F800
01FC00
03FE00
07FF00
0FFF80
1FFFC0
3FFFE0
7FFFF0
7FFFF0
3FFFE0
1FFFC0
0FFF80
07FF00
03FE00
01FC00
00F800
007000
000000
ENDCHAR

STARTCHAR jisx0208_2222
ENCODING 8738
SWIDTH 960 0
DWIDTH 20 0
BBX 20 20 0 -2
BITMAP
000000
000000
3FFFE0
300060
300060
300060
300060
300060
300060
300060
300060
300060
300060
300060
300060
300060
300060
3FFFE0
000000
000000
ENDCHAR

STARTCHAR jisx0208_2223
ENCODING 8739
SWIDTH 960 0
DWIDTH 20 0
BBX 20 20 0 -2
BITMAP
000000
000000
3FFFE0
3FFFE0
3FFFE0
3FFFE0
3FFFE0
3FFFE0
3FFFE0
3FFFE0
3FFFE0
3FFFE0
3FFFE0
3FFFE0
3FFFE0
3FFFE0
3FFFE0
3FFFE0
000000
000000
ENDCHAR

STARTCHAR jisx0208_2224
ENCODING 8740
SWIDTH 960 0
DWIDTH 20 0
BBX 20 20 0 -2
BITMAP
000000
000000
007000
007000
00D800
00D800
018C00
030600
030600
060300
060300
0C0180
1800C0
1800C0
300060
300060
7FFFF0
000000
000000
000000
ENDCHAR

STARTCHAR jisx0208_2225
ENCODING 8741
SWIDTH 960 0
DWIDTH 20 0
BBX 20 20 0 -2
BITMAP
000000
000000
007000
007000
00F800
00F800
01FC00
03FE00
03FE00
07FF00
07FF00
0FFF80
1FFFC0
1FFFC0
3FFFE0
3FFFE0
7FFFF0
000000
000000
000000
ENDCHAR

STARTCHAR jisx0208_2226
ENCODING 8742
SWIDTH 960 0
DWIDTH 20 0
BBX 20 20 0 -2
BITMAP
000000
000000
000000
7FFFF0
300060
300060
1800C0
1800C0
0C0180
060300
060300
030600
030600
018C00
00D800
00D800
007000
007000
000000
000000
ENDCHAR

STARTCHAR jisx0208_2227
ENCODING 8743
SWIDTH 960 0
DWIDTH 20 0
BBX 20 20 0 -2
BITMAP
000000
000000
000000
7FFFF0
3FFFE0
3FFFE0
1FFFC0
1FFFC0
0FFF80
07FF00
07FF00
03FE00
03FE00
01FC00
00F800
00F800
007000
007000
000000
000000
ENDCHAR

STARTCHAR jisx0208_2228
ENCODING 8744
SWIDTH 960 0
DWIDTH 20 0
BBX 20 20 0 -2
BITMAP
000000
000000
000000
1870C0
0C7180
060300
030600
018C00
00D800
1C71C0
1C71C0
00D800
018C00
030600
060300
0C7180
1870C0
000000
000000
000000
ENDCHAR

STARTCHAR jisx0208_2229
ENCODING 8745
SWIDTH 960 0
DWIDTH 20 0
BBX 20 20 0 -2
BITMAP
000000
000000
3FFFE0
3FFFE0
000000
000000
3FFFE0
3FFFE0
007000
007000
007000
007000
007000
007000
007000
007000
007000
000000
000000
000000
ENDCHAR

STARTCHAR jisx0208_222A
ENCODING 8746
SWIDTH 960 0
DWIDTH 20 0
BBX 20 20 0 -2
BITMAP
000000
000000
000000
000000
000000
000000
000300
000180
0000E0
7FFFF0
0000E0
000180
000300
000000
000000
000000
000000
000000
000000
000000
ENDCHAR

STARTCHAR jisx0208_222B
ENCODING 8747
SWIDTH 960 0
DWIDTH 20 0
BBX 20 20 0 -2
BITMAP
000000
000000
000000
000000
000000
000000
060000
0C0000
380000
7FFFF0
380000
0C0000
060000
000000
000000
000000
000000
000000
000000
000000
ENDCHAR

STARTCHAR jisx0208_222C
ENCODING 8748
SWIDTH 960 0
DWIDTH 20 0
BBX 20 20 0 -2
BITMAP
000000
006000
00F000
00F000
015800
036C00
006000
006000
006000
006000
006000
006000
006000
006000
006000
006000
006000
006000
006000
000000
ENDCHAR

STARTCHAR jisx0208_222D
ENCODING 8749
SWIDTH 960 0
DWIDTH 20 0
BBX 20 20 0 -2
BITMAP
000000
006000
006000
006000
006000
006000
006000
006000
006000
006000
006000
006000
006000
006000
036C00
015800
00F000
00F000
006000
000000
ENDCHAR

STARTCHAR jisx0208_222E
ENCODING 8750
SWIDTH 960 0
DWIDTH 20 0
BBX 20 20 0 -2
BITMAP
000000
000000
000000
000000
000000
000000
0FFF80
0FFF80
000000
000000
000000
0FFF80
0FFF80
000000
000000
000000
000000
000000
000000
000000
ENDCHAR

STARTCHAR jisx0208_222F
ENCODING 8751
SWIDTH 960 0
DWIDTH 20 0
BBX 20 20 0 -2
BITMAP
000000
000000
300060
000000
000000
000000
000000
000000
000000
000000
000000
000000
000000
000000
000000
000000
000000
300060
000000
000000
ENDCHAR

STARTCHAR jisx0208_223A
ENCODING 8762
SWIDTH 960 0
DWIDTH 20 0
BBX 20 20 0 -2
BITMAP
000000
000000
000000
000000
03FFC0
0E0000
0C0000
180000
180000
1FFFC0
180000
180000
0C0000
0E0000
03FFC0
000000
000000
000000
000000
000000
ENDCHAR

STARTCHAR jisx0208_223B
ENCODING 8763
SWIDTH 960 0
DWIDTH 20 0
BBX 20 20 0 -2
BITMAP
000000
000000
000000
000000
1FFE00
000380
000180
0000C0
0000C0
1FFFC0
0000C0
0000C0
000180
000380
1FFE00
000000
000000
000000
000000
000000
ENDCHAR

STARTCHAR jisx0208_223C
ENCODING 8764
SWIDTH 960 0
DWIDTH 20 0
BBX 20 20 0 -2
BITMAP
000000
000000
000000
03FFC0
0E0000
0C0000
180000
180000
180000
180000
0C0000
0E0000
03FFC0
000000
000000
1FFFC0
000000
000000
000000
000000
ENDCHAR

STARTCHAR jisx0208_223D
ENCODING 8765
SWIDTH 960 0
DWIDTH 20 0
BBX 20 20 0 -2
BITMAP
000000
000000
000000
1FFE00
000380
000180
0000C0
0000C0
0000C0
0000C0
000180
000380
1FFE00
000000
000000
1FFFC0
000000
000000
000000
000000
ENDCHAR

STARTCHAR jisx0208_223E
ENCODING 8766
SWIDTH 960 0
DWIDTH 20 0
BBX 20 20 0 -2
BITMAP
000000
000000
000000
000000
03FFC0
0E0000
0C0000
180000
180000
180000
180000
180000
0C0000
0E0000
03FFC0
000000
000000
000000
000000
000000
ENDCHAR

STARTCHAR jisx0208_223F
ENCODING 8767
SWIDTH 960 0
DWIDTH 20 0
BBX 20 20 0 -2
BITMAP
000000
000000
000000
000000
1FFE00
000380
000180
0000C0
0000C0
0000C0
0000C0
0000C0
000180
000380
1FFE00
000000
000000
000000
000000
000000
ENDCHAR

STARTCHAR jisx0208_2240
ENCODING 8768
SWIDTH 960 0
DWIDTH 20 0
BBX 20 20 0 -2
BITMAP
000000
000000
000000
0C0300
0C0300
0C0300
0C0300
0C0300
0C0300
0C0300
0C0300
0C0300
0C0300
0C0300
060600
070E00
01F800
000000
000000
000000
ENDCHAR

STARTCHAR jisx0208_2241
ENCODING 8769
SWIDTH 960 0
DWIDTH 20 0
BBX 20 20 0 -2
BITMAP
000000
000000
000000
01F800
070E00
060600
0C0300
0C0300
0C0300
0C0300
0C0300
0C0300
0C0300
0C0300
0C0300
0C0300
0C0300
000000
000000
000000
ENDCHAR

STARTCHAR jisx0208_224A
ENCODING 8778
SWIDTH 960 0
DWIDTH 20 0
BBX 20 20 0 -2
BITMAP
000000
000000
000000
007000
007000
00D800
00D800
018C00
018C00
030600
030600
060300
060300
0C0180
0C0180
1800C0
1800C0
000000
000000
000000
ENDCHAR

STARTCHAR jisx0208_224B
ENCODING 8779
SWIDTH 960 0
DWIDTH 20 0
BBX 20 20 0 -2
BITMAP
000000
000000
000000
1800C0
1800C0
0C0180
0C0180
060300
060300
030600
030600
018C00
018C00
00D800
00D800
007000
007000
000000
000000
000000
ENDCHAR

STARTCHAR jisx0208_224C
ENCODING 8780
SWIDTH 960 0
DWIDTH 20 0
BBX 20 20 0 -2
BITMAP
000000
000000
000000
000000
000000
000000
000000
000000
3FFFE0
000060
000060
000060
000060
000000
000000
000000
000000
000000
000000
000000
ENDCHAR

STARTCHAR jisx0208_224D
ENCODING 8781
SWIDTH 960 0
DWIDTH 20 0
BBX 20 20 0 -2
BITMAP
000000
000000
000000
000C00
000600
000300
000180
7FFFC0
000060
000030
000060
7FFFC0
000180
000300
000600
000C00
000000
000000
000000
000000
ENDCHAR

STARTCHAR jisx0208_224E
ENCODING 8782
SWIDTH 960 0
DWIDTH 20 0
BBX 20 20 0 -2
BITMAP
000000
000000
000000
018C00
030600
060300
0C0180
1FFFC0
300060
600030
300060
1FFFC0
0C0180
060300
030600
018C00
000000
000000
000000
000000
ENDCHAR

STARTCHAR jisx0208_224F
ENCODING 8783
SWIDTH 960 0
DWIDTH 20 0
BBX 20 20 0 -2
BITMAP
000000
000000
000000
1800C0
1800C0
0C0180
0FFF80
060300
060300
030600
030600
018C00
018C00
00D800
00D800
007000
007000
000000
000000
000000
ENDCHAR

STARTCHAR jisx0208_2250
ENCODING 8784
SWIDTH 960 0
DWIDTH 20 0
BBX 20 20 0 -2
BITMAP
000000
000000
000000
07FF00
000300
000300
000300
000300
000300
07FF00
000300
000300
000300
000300
000300
07FF00
000000
000000
000000
000000
ENDCHAR

STARTCHAR jisx0208_225C
ENCODING 8796
SWIDTH 960 0
DWIDTH 20 0
BBX 20 20 0 -2
BITMAP
000000
000000
000000
000180
000300
000600
000C00
001800
003000
006000
00C000
018000
030000
060000
0C0000
1FFF80
000000
000000
000000
000000
ENDCHAR

STARTCHAR jisx0208_225D
ENCODING 8797
SWIDTH 960 0
DWIDTH 20 0
BBX 20 20 0 -2
BITMAP
000000
000000
000000
006000
006000
006000
006000
006000
006000
006000
006000
006000
006000
006000
006000
1FFF80
000000
000000
000000
000000
ENDCHAR

STARTCHAR jisx0208_225E
ENCODING 8798
SWIDTH 960 0
DWIDTH 20 0
BBX 20 20 0 -2
BITMAP
000000
01FC00
0F0780
3800E0
600030
000000
000000
000000
000000
000000
000000
000000
000000
000000
000000
000000
000000
000000
000000
000000
ENDCHAR

STARTCHAR jisx0208_225F
ENCODING 8799
SWIDTH 960 0
DWIDTH 20 0
BBX 20 20 0 -2
BITMAP
000000
000000
00F800
018C00
030C00
000600
000600
007600
01CE00
018600
030600
030600
030600
030600
030C00
019C00
00F000
000000
000000
000000
ENDCHAR

STARTCHAR jisx0208_2260
ENCODING 8800
SWIDTH 960 0
DWIDTH 20 0
BBX 20 20 0 -2
BITMAP
000000
000000
000000
3FFFE0
1FFFC0
1C00C0
0E0180
0E0180
070300
070300
038600
01CC00
01CC00
00D800
00D800
007000
007000
000000
000000
000000
ENDCHAR

STARTCHAR jisx0208_2261
ENCODING 8801
SWIDTH 960 0
DWIDTH 20 0
BBX 20 20 0 -2
BITMAP
000000
000000
000000
000000
000000
1FFFC0
000000
000000
000000
1FFFC0
000000
000000
000000
1FFFC0
000000
000000
000000
000000
000000
000000
ENDCHAR

STARTCHAR jisx0208_2262
ENCODING 8802
SWIDTH 960 0
DWIDTH 20 0
BBX 20 20 0 -2
BITMAP
000000
000000
000000
038000
038000
000000
000000
1FFFC0
000000
000000
000000
1FFFC0
000000
000000
000E00
000E00
000000
000000
000000
000000
ENDCHAR

STARTCHAR jisx0208_2263
ENCODING 8803
SWIDTH 960 0
DWIDTH 20 0
BBX 20 20 0 -2
BITMAP
000000
000000
000000
003300
006600
00CC00
019800
033000
066000
0CC000
066000
033000
019800
00CC00
006600
003300
000000
000000
000000
000000
ENDCHAR

STARTCHAR jisx0208_2264
ENCODING 8804
SWIDTH 960 0
DWIDTH 20 0
BBX 20 20 0 -2
BITMAP
000000
000000
000000
066000
033000
019800
00CC00
006600
003300
001980
003300
006600
00CC00
019800
033000
066000
000000
000000
000000
000000
ENDCHAR

STARTCHAR jisx0208_2265
ENCODING 8805
SWIDTH 960 0
DWIDTH 20 0
BBX 20 20 0 -2
BITMAP
000000
001FF0
001800
003000
003000
003000
006000
006000
006000
00C000
00C000
0CC000
1D8000
358000
658000
030000
030000
000000
000000
000000
ENDCHAR

STARTCHAR jisx0208_2266
ENCODING 8806
SWIDTH 960 0
DWIDTH 20 0
BBX 20 20 0 -2
BITMAP
000000
000000
000000
000000
000000
1F07C0
318C60
601830
603030
603030
606030
60C030
318C60
1F07C0
000000
000000
000000
000000
000000
000000
ENDCHAR

STARTCHAR jisx0208_2267
ENCODING 8807
SWIDTH 960 0
DWIDTH 20 0
BBX 20 20 0 -2
BITMAP
000000
000000
000000
000000
000000
1F07C0
318C60
60D800
607000
607000
607000
60D800
318C60
1F07C0
000000
000000
000000
000000
000000
000000
ENDCHAR

STARTCHAR jisx0208_2268
ENCODING 8808
SWIDTH 960 0
DWIDTH 20 0
BBX 20 20 0 -2
BITMAP
000000
000000
000000
000000
1C01C0
1C01C0
000000
000000
000000
000000
000000
000000
000000
000000
007000
007000
000000
000000
000000
000000
ENDCHAR

STARTCHAR jisx0208_2269
ENCODING 8809
SWIDTH 960 0
DWIDTH 20 0
BBX 20 20 0 -2
BITMAP
000000
007800
00CC00
00CC00
00C000
00C000
00C000
006000
006000
006000
006000
006000
006000
003000
003000
003000
033000
033000
01E000
000000
ENDCHAR

STARTCHAR jisx0208_226A
ENCODING 8810
SWIDTH 960 0
DWIDTH 20 0
BBX 20 20 0 -2
BITMAP
000000
03C780
066CC0
066CC0
060C00
060C00
060C00
030600
030600
030600
030600
030600
030600
018300
018300
018300
19B300
19B300
0F1E00
000000
ENDCHAR

STARTCHAR jisx0208_2272
ENCODING 8818
SWIDTH 960 0
DWIDTH 20 0
BBX 20 20 0 -2
BITMAP
000000
007000
00D800
00D800
007000
007000
00D800
00D800
018C00
018C00
030600
030600
060300
07FF00
0C0180
0C0180
1800C0
000000
000000
000000
ENDCHAR

STARTCHAR jisx0208_2273
ENCODING 8819
SWIDTH 960 0
DWIDTH 20 0
BBX 20 20 0 -2
BITMAP
000000
000000
3C3000
663000
666000
66C000
3CC000
018000
018000
030000
060000
060000
0CF3C0
0D9660
199660
319660
30F3C0
000000
000000
000000
ENDCHAR

STARTCHAR jisx0208_2274
ENCODING 8820
SWIDTH 960 0
DWIDTH 20 0
BBX 20 20 0 -2
BITMAP
000000
000000
000C00
030C00
030C00
030F80
03FC00
1F0C00
030C00
030C00
030C00
030F80
03FC00
1F0C00
030C00
030C00
030000
000000
000000
000000
ENDCHAR

STARTCHAR jisx0208_2275
ENCODING 8821
SWIDTH 960 0
DWIDTH 20 0
BBX 20 20 0 -2
BITMAP
000000
000000
018000
018000
018000
018000
018000
018000
017800
01CC00
018600
018600
018600
018C00
019800
017000
01C000
018000
000000
000000
ENDCHAR

STARTCHAR jisx0208_2276
ENCODING 8822
SWIDTH 960 0
DWIDTH 20 0
BBX 20 20 0 -2
BITMAP
000000
000000
006000
007000
005800
006C00
006600
006600
006300
006300
006300
006600
006600
006C00
01E000
03E000
07C000
078000
000000
000000
ENDCHAR

STARTCHAR jisx0208_2277
ENCODING 8823
SWIDTH 960 0
DWIDTH 20 0
BBX 20 20 0 -2
BITMAP
000000
006000
00F000
006000
036C00
07FE00
036C00
006000
00F000
00F000
006000
006000
006000
006000
006000
006000
006000
00F000
00F000
000000
ENDCHAR

STARTCHAR jisx0208_2278
ENCODING 8824
SWIDTH 960 0
DWIDTH 20 0
BBX 20 20 0 -2
BITMAP
000000
006000
00F000
006000
036C00
07FE00
036C00
006000
00F000
006000
006000
00F000
006000
036C00
07FE00
036C00
006000
00F000
006000
000000
ENDCHAR

STARTCHAR jisx0208_2279
ENCODING 8825
SWIDTH 960 0
DWIDTH 20 0
BBX 20 20 0 -2
BITMAP
000000
01FF00
03E600
07E600
07E600
07E600
07E600
07E600
03E600
01E600
006600
006600
006600
006600
006600
006600
006600
006600
006600
000000
ENDCHAR

STARTCHAR jisx0208_227E
ENCODING 8830
SWIDTH 960 0
DWIDTH 20 0
BBX 20 20 0 -2
BITMAP
000000
01FC00
070700
0C0180
1800C0
300060
300060
600030
600030
600030
600030
600030
600030
300060
300060
1800C0
0C0180
070700
01FC00
000000
ENDCHAR

STARTCHAR jisx0208_2330
ENCODING 9008
SWIDTH 960 0
DWIDTH 20 0
BBX 20 20 0 -2
BITMAP
000000
000000
01F800
070E00
060600
0C0300
0C0300
0C0300
0C0300
0C0300
0C0300
0C0300
0C0300
0C0300
060600
070E00
01F800
000000
000000
000000
ENDCHAR

STARTCHAR jisx0208_2331
ENCODING 9009
SWIDTH 960 0
DWIDTH 20 0
BBX 20 20 0 -2
BITMAP
000000
000000
003000
007000
01B000
003000
003000
003000
003000
003000
003000
003000
003000
003000
003000
003000
003000
000000
000000
000000
ENDCHAR

STARTCHAR jisx0208_2332
ENCODING 9010
SWIDTH 960 0
DWIDTH 20 0
BBX 20 20 0 -2
BITMAP
000000
000000
01F800
070E00
060600
0C0300
0C0300
000300
000600
001C00
007000
01C000
030000
060000
0C0000
0C0000
0FFF00
000000
000000
000000
ENDCHAR

STARTCHAR jisx0208_2333
ENCODING 9011
SWIDTH 960 0
DWIDTH 20 0
BBX 20 20 0 -2
BITMAP
000000
000000
01FC00
030600
060300
060300
000300
000600
00FC00
000700
000300
000180
0C0180
0C0180
060300
070700
01FC00
000000
000000
000000
ENDCHAR

STARTCHAR jisx0208_2334
ENCODING 9012
SWIDTH 960 0
DWIDTH 20 0
BBX 20 20 0 -2
BITMAP
000000
000000
001C00
001C00
002C00
006C00
006C00
00CC00
018C00
030C00
030C00
060C00
0C0C00
0FFF80
000C00
000C00
000C00
000000
000000
000000
ENDCHAR

STARTCHAR jisx0208_2335
ENCODING 9013
SWIDTH 960 0
DWIDTH 20 0
BBX 20 20 0 -2
BITMAP
000000
000000
03FF00
030000
030000
030000
060000
06FC00
078700
070300
060180
000180
000180
060180
030300
038700
00FC00
000000
000000
000000
ENDCHAR

STARTCHAR jisx0208_2336
ENCODING 9014
SWIDTH 960 0
DWIDTH 20 0
BBX 20 20 0 -2
BITMAP
000000
000000
01F800
070E00
060600
0C0300
0C0000
0DF800
0B0E00
0E0600
0C0300
0C0300
0C0300
0C0300
060600
070E00
01F800
000000
000000
000000
ENDCHAR

STARTCHAR jisx0208_2337
ENCODING 9015
SWIDTH 960 0
DWIDTH 20 0
BBX 20 20 0 -2
BITMAP
000000
000000
0FFF00
000300
000600
000C00
000C00
001800
003000
003000
006000
006000
006000
00C000
00C000
00C000
00C000
000000
000000
000000
ENDCHAR

STARTCHAR jisx0208_2338
ENCODING 9016
SWIDTH 960 0
DWIDTH 20 0
BBX 20 20 0 -2
BITMAP
000000
000000
01FC00
030600
060300
060300
060300
030600
01FC00
070700
060300
0C0180
0C0180
0C0180
060300
070700
01FC00
000000
000000
000000
ENDCHAR

STARTCHAR jisx0208_2339
ENCODING 9017
SWIDTH 960 0
DWIDTH 20 0
BBX 20 20 0 -2
BITMAP
000000
000000
01F800
070E00
060600
0C0300
0C0300
0C0300
0C0300
060700
070B00
01FB00
000300
0C0300
060600
070E00
01F800
000000
000000
000000
ENDCHAR

STARTCHAR jisx0208_2341
ENCODING 9025
SWIDTH 960 0
DWIDTH 20 0
BBX 20 20 0 -2
BITMAP
000000
000000
006000
006000
00B000
00B000
019800
019800
030C00
030C00
030C00
060600
060600
0FFF00
0C0300
180180
180180
000000
000000
000000
ENDCHAR

STARTCHAR jisx0208_2342
ENCODING 9026
SWIDTH 960 0
DWIDTH 20 0
BBX 20 20 0 -2
BITMAP
000000
000000
07FC00
060600
060300
060300
060300
060600
07FE00
060300
060180
060180
060180
060180
060180
060300
07FE00
000000
000000
000000
ENDCHAR

STARTCHAR jisx0208_2343
ENCODING 9027
SWIDTH 960 0
DWIDTH 20 0
BBX 20 20 0 -2
BITMAP
000000
000000
00FC00
038700
060300
060180
0C0000
0C0000
0C0000
0C0000
0C0000
0C0000
0C0180
060180
060300
038700
00FC00
000000
000000
000000
ENDCHAR

STARTCHAR jisx0208_2344
ENCODING 9028
SWIDTH 960 0
DWIDTH 20 0
BBX 20 20 0 -2
BITMAP
000000
000000
07F800
060E00
060300
060300
060180
060180
060180
060180
060180
060180
060180
060300
060300
060E00
07F800
000000
000000
000000
ENDCHAR

STARTCHAR jisx0208_2345
ENCODING 9029
SWIDTH 960 0
DWIDTH 20 0
BBX 20 20 0 -2
BITMAP
000000
000000
07FF00
060000
060000
060000
060000
060000
07FE00
060000
060000
060000
060000
060000
060000
060000
07FF00
000000
000000
000000
ENDCHAR

STARTCHAR jisx0208_2346
ENCODING 9030
SWIDTH 960 0
DWIDTH 20 0
BBX 20 20 0 -2
BITMAP
000000
000000
07FF00
060000
060000
060000
060000
060000
07FE00
060000
060000
060000
060000
060000
060000
060000
060000
000000
000000
000000
ENDCHAR

STARTCHAR jisx0208_2347
ENCODING 9031
SWIDTH 960 0
DWIDTH 20 0
BBX 20 20 0 -2
BITMAP
000000
000000
00FC00
038700
060300
060180
0C0000
0C0000
0C0000
0C0000
0C1F80
0C0180
0C0180
060180
060380
038D80
00F980
000000
000000
000000
ENDCHAR

STARTCHAR jisx0208_2348
ENCODING 9032
SWIDTH 960 0
DWIDTH 20 0
BBX 20 20 0 -2
BITMAP
000000
000000
0C0300
0C0300
0C0300
0C0300
0C0300
0C0300
0FFF00
0C0300
0C0300
0C0300
0C0300
0C0300
0C0300
0C0300
0C0300
000000
000000
000000
ENDCHAR

STARTCHAR jisx0208_2349
ENCODING 9033
SWIDTH 960 0
DWIDTH 20 0
BBX 20 20 0 -2
BITMAP
000000
000000
01F800
006000
006000
006000
006000
006000
006000
006000
006000
006000
006000
006000
006000
006000
01F800
000000
000000
000000
ENDCHAR

STARTCHAR jisx0208_234A
ENCODING 9034
SWIDTH 960 0
DWIDTH 20 0
BBX 20 20 0 -2
BITMAP
000000
000000
000600
000600
000600
000600
000600
000600
000600
000600
000600
000600
000600
060600
060600
030C00
01F800
000000
000000
000000
ENDCHAR

STARTCHAR jisx0208_234B
ENCODING 9035
SWIDTH 960 0
DWIDTH 20 0
BBX 20 20 0 -2
BITMAP
000000
000000
060600
060C00
061800
063000
066000
06C000
05C000
076000
063000
063000
061800
060C00
060C00
060600
060300
000000
000000
000000
ENDCHAR

STARTCHAR jisx0208_234C
ENCODING 9036
SWIDTH 960 0
DWIDTH 20 0
BBX 20 20 0 -2
BITMAP
000000
000000
060000
060000
060000
060000
060000
060000
060000
060000
060000
060000
060000
060000
060000
060000
07FF00
000000
000000
000000
ENDCHAR

STARTCHAR jisx0208_234D
ENCODING 9037
SWIDTH 960 0
DWIDTH 20 0
BBX 20 20 0 -2
BITMAP
000000
000000
180180
180180
1C0380
1C0380
160580
160580
1B0D80
1B0D80
1B0D80
199980
199980
18B180
18B180
186180
186180
000000
000000
000000
ENDCHAR

STARTCHAR jisx0208_234E
ENCODING 9038
SWIDTH 960 0
DWIDTH 20 0
BBX 20 20 0 -2
BITMAP
000000
000000
0C0300
0E0300
0E0300
0B0300
0D8300
0CC300
0CC300
0C6300
0C3300
0C3300
0C1B00
0C0B00
0C0700
0C0700
0C0300
000000
000000
000000
ENDCHAR

STARTCHAR jisx0208_234F
ENCODING 9039
SWIDTH 960 0
DWIDTH 20 0
BBX 20 20 0 -2
BITMAP
000000
000000
01F800
070E00
0C0300
0C0300
180180
180180
180180
180180
180180
180180
180180
0C0300
0C0300
070E00
01F800
000000
000000
000000
ENDCHAR

STARTCHAR jisx0208_2350
ENCODING 9040
SWIDTH 960 0
DWIDTH 20 0
BBX 20 20 0 -2
BITMAP
000000
000000
07FE00
060300
060180
060180
060180
060180
060180
060300
07FE00
060000
060000
060000
060000
060000
060000
000000
000000
000000
ENDCHAR

STARTCHAR jisx0208_2351
ENCODING 9041
SWIDTH 960 0
DWIDTH 20 0
BBX 20 20 0 -2
BITMAP
000000
000000
01F800
070E00
0C0300
0C0300
180180
180180
180180
180180
180180
180180
181980
0C0B00
0C0700
070F00
01F980
000000
000000
000000
ENDCHAR

STARTCHAR jisx0208_2352
ENCODING 9042
SWIDTH 960 0
DWIDTH 20 0
BBX 20 20 0 -2
BITMAP
000000
000000
0FFC00
0C0600
0C0300
0C0300
0C0300
0C0300
0C0600
0FFC00
0C0C00
0C0600
0C0600
0C0300
0C0300
0C0180
0C0180
000000
000000
000000
ENDCHAR

STARTCHAR jisx0208_2353
ENCODING 9043
SWIDTH 960 0
DWIDTH 20 0
BBX 20 20 0 -2
BITMAP
000000
000000
03FC00
060600
0C0300
0C0300
0C0000
060000
03C000
007C00
000700
000180
0C0180
0C0180
060180
070300
01FE00
000000
000000
000000
ENDCHAR

STARTCHAR jisx0208_2354
ENCODING 9044
SWIDTH 960 0
DWIDTH 20 0
BBX 20 20 0 -2
BITMAP
000000
000000
1FFF80
006000
006000
006000
006000
006000
006000
006000
006000
006000
006000
006000
006000
006000
006000
000000
000000
000000
ENDCHAR

STARTCHAR jisx0208_2355
ENCODING 9045
SWIDTH 960 0
DWIDTH 20 0
BBX 20 20 0 -2
BITMAP
000000
000000
0C0300
0C0300
0C0300
0C0300
0C0300
0C0300
0C0300
0C0300
0C0300
0C0300
0C0300
0C0300
060600
070E00
01F800
000000
000000
000000
ENDCHAR

STARTCHAR jisx0208_2356
ENCODING 9046
SWIDTH 960 0
DWIDTH 20 0
BBX 20 20 0 -2
BITMAP
000000
000000
180180
180180
0C0300
0C0300
060600
060600
030C00
030C00
030C00
019800
019800
00B000
00B000
006000
006000
000000
000000
000000
ENDCHAR

STARTCHAR jisx0208_2357
ENCODING 9047
SWIDTH 960 0
DWIDTH 20 0
BBX 20 20 0 -2
BITMAP
000000
000000
606060
606060
606060
30B0C0
30B0C0
30B0C0
199980
199980
199980
0B0B00
0B0B00
0B0B00
060600
060600
060600
000000
000000
000000
ENDCHAR

STARTCHAR jisx0208_2358
ENCODING 9048
SWIDTH 960 0
DWIDTH 20 0
BBX 20 20 0 -2
BITMAP
000000
000000
0C0300
060600
030C00
030C00
019800
00B000
00B000
006000
00B000
019800
019800
030C00
060600
060600
0C0300
000000
000000
000000
ENDCHAR

STARTCHAR jisx0208_2359
ENCODING 9049
SWIDTH 960 0
DWIDTH 20 0
BBX 20 20 0 -2
BITMAP
000000
000000
0C0300
060600
060600
030C00
030C00
019800
019800
00B000
00B000
006000
006000
006000
006000
006000
006000
000000
000000
000000
ENDCHAR

STARTCHAR jisx0208_235A
ENCODING 9050
SWIDTH 960 0
DWIDTH 20 0
BBX 20 20 0 -2
BITMAP
000000
000000
07FF00
000300
000600
000C00
001800
001800
003000
006000
00C000
018000
018000
030000
060000
0C0000
0FFF00
000000
000000
000000
ENDCHAR

STARTCHAR jisx0208_2361
ENCODING 9057
SWIDTH 960 0
DWIDTH 20 0
BBX 20 20 0 -2
BITMAP
000000
000000
000000
000000
000000
000000
01F800
030C00
060600
000600
00FE00
038600
060600
060600
060600
031E00
01F600
000000
000000
000000
ENDCHAR

STARTCHAR jisx0208_2362
ENCODING 9058
SWIDTH 960 0
DWIDTH 20 0
BBX 20 20 0 -2
BITMAP
000000
000000
030000
030000
030000
030000
037800
03CE00
038600
030300
030300
030300
030300
030300
038600
03CE00
037800
000000
000000
000000
ENDCHAR

STARTCHAR jisx0208_2363
ENCODING 9059
SWIDTH 960 0
DWIDTH 20 0
BBX 20 20 0 -2
BITMAP
000000
000000
000000
000000
000000
000000
00F800
038E00
030600
060300
060000
060000
060000
060300
030600
038E00
00F800
000000
000000
000000
ENDCHAR

STARTCHAR jisx0208_2364
ENCODING 9060
SWIDTH 960 0
DWIDTH 20 0
BBX 20 20 0 -2
BITMAP
000000
000000
000600
000600
000600
000600
00F600
039E00
030E00
060600
060600
060600
060600
060600
030E00
039E00
00F600
000000
000000
000000
ENDCHAR

STARTCHAR jisx0208_2365
ENCODING 9061
SWIDTH 960 0
DWIDTH 20 0
BBX 20 20 0 -2
BITMAP
000000
000000
000000
000000
000000
000000
00F800
038E00
030600
060300
060300
07FF00
060000
060000
030300
038600
00FC00
000000
000000
000000
ENDCHAR

STARTCHAR jisx0208_2366
ENCODING 9062
SWIDTH 960 0
DWIDTH 20 0
BBX 20 20 0 -2
BITMAP
000000
000000
003C00
006000
006000
006000
03FC00
006000
006000
006000
006000
006000
006000
006000
006000
006000
006000
000000
000000
000000
ENDCHAR

STARTCHAR jisx0208_2367
ENCODING 9063
SWIDTH 960 0
DWIDTH 20 0
BBX 20 20 0 -2
BITMAP
000000
000000
000000
000000
000000
000000
01F600
030E00
060600
060600
060600
060600
060600
030E00
01F600
000600
060600
030C00
01F800
000000
ENDCHAR

STARTCHAR jisx0208_2368
ENCODING 9064
SWIDTH 960 0
DWIDTH 20 0
BBX 20 20 0 -2
BITMAP
000000
000000
060000
060000
060000
060000
06F800
058C00
070600
060600
060600
060600
060600
060600
060600
060600
060600
000000
000000
000000
ENDCHAR

STARTCHAR jisx0208_2369
ENCODING 9065
SWIDTH 960 0
DWIDTH 20 0
BBX 20 20 0 -2
BITMAP
000000
000000
006000
006000
000000
000000
006000
006000
006000
006000
006000
006000
006000
006000
006000
006000
006000
000000
000000
000000
ENDCHAR

STARTCHAR jisx0208_236A
ENCODING 9066
SWIDTH 960 0
DWIDTH 20 0
BBX 20 20 0 -2
BITMAP
000000
000000
003000
003000
000000
000000
003000
003000
003000
003000
003000
003000
003000
003000
003000
003000
003000
003000
01E000
000000
ENDCHAR

STARTCHAR jisx0208_236B
ENCODING 9067
SWIDTH 960 0
DWIDTH 20 0
BBX 20 20 0 -2
BITMAP
000000
000000
030000
030000
030000
030000
030600
030C00
031800
033000
037000
02D800
039800
030C00
030600
030600
030300
000000
000000
000000
ENDCHAR

STARTCHAR jisx0208_236C
ENCODING 9068
SWIDTH 960 0
DWIDTH 20 0
BBX 20 20 0 -2
BITMAP
000000
000000
006000
006000
006000
006000
006000
006000
006000
006000
006000
006000
006000
006000
006000
006000
007800
000000
000000
000000
ENDCHAR

STARTCHAR jisx0208_236D
ENCODING 9069
SWIDTH 960 0
DWIDTH 20 0
BBX 20 20 0 -2
BITMAP
000000
000000
000000
000000
000000
000000
17DF00
1C7180
186180
186180
186180
186180
186180
186180
186180
186180
186180
000000
000000
000000
ENDCHAR

STARTCHAR jisx0208_236E
ENCODING 9070
SWIDTH 960 0
DWIDTH 20 0
BBX 20 20 0 -2
BITMAP
000000
000000
000000
000000
000000
000000
06F800
058C00
070600
060600
060600
060600
060600
060600
060600
060600
060600
000000
000000
000000
ENDCHAR

STARTCHAR jisx0208_236F
ENCODING 9071
SWIDTH 960 0
DWIDTH 20 0
BBX 20 20 0 -2
BITMAP
000000
000000
000000
000000
000000
000000
00F800
038E00
030600
060300
060300
060300
060300
060300
030600
038E00
00F800
000000
000000
000000
ENDCHAR

STARTCHAR jisx0208_2370
ENCODING 9072
SWIDTH 960 0
DWIDTH 20 0
BBX 20 20 0 -2
BITMAP
000000
000000
000000
000000
000000
000000
02FC00
038600
030300
030300
030300
030300
030300
030300
038600
02FC00
030000
030000
030000
000000
ENDCHAR

STARTCHAR jisx0208_2371
ENCODING 9073
SWIDTH 960 0
DWIDTH 20 0
BBX 20 20 0 -2
BITMAP
000000
000000
000000
000000
000000
000000
01F600
030E00
060600
060600
060600
060600
060600
060600
030E00
01F600
000600
000600
000600
000000
ENDCHAR

STARTCHAR jisx0208_2372
ENCODING 9074
SWIDTH 960 0
DWIDTH 20 0
BBX 20 20 0 -2
BITMAP
000000
000000
000000
000000
000000
000000
00CE00
00B800
00E000
00C000
00C000
00C000
00C000
00C000
00C000
00C000
00C000
000000
000000
000000
ENDCHAR

STARTCHAR jisx0208_2373
ENCODING 9075
SWIDTH 960 0
DWIDTH 20 0
BBX 20 20 0 -2
BITMAP
000000
000000
000000
000000
000000
000000
03F800
060C00
060C00
060000
038000
00F000
001C00
060600
060600
030600
01FC00
000000
000000
000000
ENDCHAR

STARTCHAR jisx0208_2374
ENCODING 9076
SWIDTH 960 0
DWIDTH 20 0
BBX 20 20 0 -2
BITMAP
000000
000000
00C000
00C000
00C000
00C000
03F800
00C000
00C000
00C000
00C000
00C000
00C000
00C000
00C000
00C000
007800
000000
000000
000000
ENDCHAR

STARTCHAR jisx0208_2375
ENCODING 9077
SWIDTH 960 0
DWIDTH 20 0
BBX 20 20 0 -2
BITMAP
000000
000000
000000
000000
000000
000000
060600
060600
060600
060600
060600
060600
060600
060600
060E00
031600
01F600
000000
000000
000000
ENDCHAR

STARTCHAR jisx0208_2376
ENCODING 9078
SWIDTH 960 0
DWIDTH 20 0
BBX 20 20 0 -2
BITMAP
000000
000000
000000
000000
000000
000000
0C0300
060600
060600
030C00
030C00
019800
019800
00B000
00B000
006000
006000
000000
000000
000000
ENDCHAR

STARTCHAR jisx0208_2377
ENCODING 9079
SWIDTH 960 0
DWIDTH 20 0
BBX 20 20 0 -2
BITMAP
000000
000000
000000
000000
000000
000000
186180
186180
186180
0CB300
0CB300
0CB300
059600
059600
059600
030C00
030C00
000000
000000
000000
ENDCHAR

STARTCHAR jisx0208_2378
ENCODING 9080
SWIDTH 960 0
DWIDTH 20 0
BBX 20 20 0 -2
BITMAP
000000
000000
000000
000000
000000
000000
060600
030C00
019800
019800
00B000
006000
00B000
019800
019800
030C00
060600
000000
000000
000000
ENDCHAR

STARTCHAR jisx0208_2379
ENCODING 9081
SWIDTH 960 0
DWIDTH 20 0
BBX 20 20 0 -2
BITMAP
000000
000000
000000
000000
000000
000000
060600
060600
030C00
030C00
019800
019800
019800
00B000
00B000
006000
006000
00C000
078000
000000
ENDCHAR

STARTCHAR jisx0208_237A
ENCODING 9082
SWIDTH 960 0
DWIDTH 20 0
BBX 20 20 0 -2
BITMAP
000000
000000
000000
000000
000000
000000
03FE00
000600
000C00
001800
003000
006000
00C000
018000
030000
060000
07FE00
000000
000000
000000
ENDCHAR

STARTCHAR jisx0208_2421
ENCODING 9249
SWIDTH 960 0
DWIDTH 20 0
BBX 20 20 0 -2
BITMAP
000000
000000
000000
000000
000000
00C000
00C000
0FFE00
018000
019800
01FC00
039700
05B300
0DB180
196180
18C180
196300
0F0700
003C00
000000
ENDCHAR

STARTCHAR jisx0208_2422
ENCODING 9250
SWIDTH 960 0
DWIDTH 20 0
BBX 20 20 0 -2
BITMAP
000000
00C000
00C000
00DE00
0FF000
018000
018C00
01FE00
039B80
0598C0
0DB0C0
19B060
316060
30C060
31C0C0
3360C0
1E0180
000700
003C00
000000
ENDCHAR

STARTCHAR jisx0208_2423
ENCODING 9251
SWIDTH 960 0
DWIDTH 20 0
BBX 20 20 0 -2
BITMAP
000000
000000
000000
000000
000000
000000
0C0000
0C0000
180600
180300
180300
180180
180180
180180
0CC000
0CC000
06C000
038000
000000
000000
ENDCHAR

STARTCHAR jisx0208_2424
ENCODING 9252
SWIDTH 960 0
DWIDTH 20 0
BBX 20 20 0 -2
BITMAP
000000
000000
000000
180000
180000
180180
300180
3000C0
3000C0
3000C0
300060
300060
300060
300060
18C000
18C000
0D8000
070000
000000
000000
ENDCHAR

STARTCHAR jisx0208_2425
ENCODING 9253
SWIDTH 960 0
DWIDTH 20 0
BBX 20 20 0 -2
BITMAP
000000
000000
000000
000000
000000
000000
03C000
007C00
000000
00FC00
0F8600
000300
000300
000300
000300
000600
000C00
003800
01E000
000000
ENDCHAR

STARTCHAR jisx0208_2426
ENCODING 9254
SWIDTH 960 0
DWIDTH 20 0
BBX 20 20 0 -2
BITMAP
000000
03E000
003E00
000000
000000
000000
007F00
1FC180
0000C0
0000C0
0000C0
0000C0
000180
000180
000300
000600
000C00
003800
01E000
000000
ENDCHAR

STARTCHAR jisx0208_2427
ENCODING 9255
SWIDTH 960 0
DWIDTH 20 0
BBX 20 20 0 -2
BITMAP
000000
000000
000000
000000
000000
03C000
007C00
000000
000000
00FC00
079800
003000
006000
00F000
019800
031800
061800
0C0F80
000000
000000
ENDCHAR

STARTCHAR jisx0208_2428
ENCODING 9256
SWIDTH 960 0
DWIDTH 20 0
BBX 20 20 0 -2
BITMAP
000000
03C000
007C00
000000
000000
007F00
0FC600
000C00
001800
003000
006000
00F000
019800
031800
061800
0C1800
181800
300FE0
000000
000000
ENDCHAR

STARTCHAR jisx0208_2429
ENCODING 9257
SWIDTH 960 0
DWIDTH 20 0
BBX 20 20 0 -2
BITMAP
000000
000000
000000
000000
000000
000000
018000
018000
017700
0FC180
018000
01BE00
01E300
038180
0D8180
0D8180
05B300
039E00
018000
000000
ENDCHAR

STARTCHAR jisx0208_242A
ENCODING 9258
SWIDTH 960 0
DWIDTH 20 0
BBX 20 20 0 -2
BITMAP
000000
060000
060000
060000
06F380
3F80E0
060030
060000
067F80
05C0C0
070060
0E0060
160060
760060
160060
0E30C0
061F80
060000
000000
000000
ENDCHAR

STARTCHAR jisx0208_242B
ENCODING 9259
SWIDTH 960 0
DWIDTH 20 0
BBX 20 20 0 -2
BITMAP
000000
030000
030000
030000
030600
07F300
7E1980
0618C0
0C1860
0C1860
0C1830
181830
1830F0
183000
303000
306000
636000
61C000
000000
000000
ENDCHAR

STARTCHAR jisx0208_242C
ENCODING 9260
SWIDTH 960 0
DWIDTH 20 0
BBX 20 20 0 -2
BITMAP
000000
0300C0
030060
030180
0306C0
07F300
7E1980
0618C0
0C1860
0C1860
0C1830
181830
1830F0
183000
303000
306000
636000
61C000
000000
000000
ENDCHAR

STARTCHAR jisx0208_242D
ENCODING 9261
SWIDTH 960 0
DWIDTH 20 0
BBX 20 20 0 -2
BITMAP
000000
006000
006000
003780
1FFC00
003000
001BC0
3FFE00
000C00
000C00
07F600
0C0F00
180300
180000
180000
180000
0E0000
03FE00
000000
000000
ENDCHAR

STARTCHAR jisx0208_242E
ENCODING 9262
SWIDTH 960 0
DWIDTH 20 0
BBX 20 20 0 -2
BITMAP
000000
006060
0061B0
0036C0
1FFC00
003000
001BC0
3FFE00
000C00
000C00
07F600
0C0F00
180300
180000
180000
180000
0E0000
03FE00
000000
000000
ENDCHAR

STARTCHAR jisx0208_242F
ENCODING 9263
SWIDTH 960 0
DWIDTH 20 0
BBX 20 20 0 -2
BITMAP
000000
000600
000C00
001800
007000
00C000
038000
060000
0C0000
0C0000
060000
030000
01C000
006000
003000
001800
000C00
000600
000300
000000
ENDCHAR

STARTCHAR jisx0208_2430
ENCODING 9264
SWIDTH 960 0
DWIDTH 20 0
BBX 20 20 0 -2
BITMAP
000000
000600
000CC0
001860
007180
00C0C0
038000
060000
0C0000
0C0000
060000
030000
01C000
006000
003000
001800
000C00
000600
000300
000000
ENDCHAR

STARTCHAR jisx0208_2431
ENCODING 9265
SWIDTH 960 0
DWIDTH 20 0
BBX 20 20 0 -2
BITMAP
000000
000000
180180
180180
180180
300180
30FFF0
300180
300180
300180
300180
300180
300180
300300
180300
180600
180C00
003800
000000
000000
ENDCHAR

STARTCHAR jisx0208_2432
ENCODING 9266
SWIDTH 960 0
DWIDTH 20 0
BBX 20 20 0 -2
BITMAP
000000
000060
1801B0
1801C0
180160
300180
30FFF0
300180
300180
300180
300180
300180
300180
300300
180300
180600
180C00
003800
000000
000000
ENDCHAR

STARTCHAR jisx0208_2433
ENCODING 9267
SWIDTH 960 0
DWIDTH 20 0
BBX 20 20 0 -2
BITMAP
000000
000000
000000
07FF00
000000
000000
000000
000000
000000
000000
060000
0C0000
180000
180000
180000
0C01C0
07FF00
000000
000000
000000
ENDCHAR

STARTCHAR jisx0208_2434
ENCODING 9268
SWIDTH 960 0
DWIDTH 20 0
BBX 20 20 0 -2
BITMAP
000000
000060
0001B0
07FEC0
000000
000000
000000
000000
000000
000000
060000
0C0000
180000
180000
180000
0C01C0
07FF00
000000
000000
000000
ENDCHAR

STARTCHAR jisx0208_2435
ENCODING 9269
SWIDTH 960 0
DWIDTH 20 0
BBX 20 20 0 -2
BITMAP
000000
006000
006000
003000
0033C0
3FFE00
001800
000C00
000C00
000600
07F600
0C0F00
180300
180000
180000
180000
0E0000
03FE00
000000
000000
ENDCHAR

STARTCHAR jisx0208_2436
ENCODING 9270
SWIDTH 960 0
DWIDTH 20 0
BBX 20 20 0 -2
BITMAP
000000
006060
006030
0030C0
003760
3FFC00
001800
000C00
000C00
000600
07F600
0C0F00
180300
180000
180000
180000
0E0000
03FE00
000000
000000
ENDCHAR

STARTCHAR jisx0208_2437
ENCODING 9271
SWIDTH 960 0
DWIDTH 20 0
BBX 20 20 0 -2
BITMAP
000000
060000
060000
060000
060000
060000
060000
060000
0C0000
0C0000
0C0000
0C0000
0C0000
0C00C0
0C0180
0C0300
060E00
03F800
000000
000000
ENDCHAR

STARTCHAR jisx0208_2438
ENCODING 9272
SWIDTH 960 0
DWIDTH 20 0
BBX 20 20 0 -2
BITMAP
000000
060000
060000
060300
060D80
060600
060000
060000
0C0000
0C0000
0C0000
0C0000
0C0000
0C00C0
0C0180
0C0300
060E00
03F800
000000
000000
ENDCHAR

STARTCHAR jisx0208_2439
ENCODING 9273
SWIDTH 960 0
DWIDTH 20 0
BBX 20 20 0 -2
BITMAP
000000
001800
001800
001800
07FFF0
7C1800
001800
01F800
031800
031C00
031C00
031C00
031C00
01EC00
001800
001800
003000
00E000
038000
000000
ENDCHAR

STARTCHAR jisx0208_243A
ENCODING 9274
SWIDTH 960 0
DWIDTH 20 0
BBX 20 20 0 -2
BITMAP
000000
001860
0019B0
0018C0
07FFF0
7C1800
001800
01F800
031800
031C00
031C00
031C00
031C00
01EC00
001800
001800
003000
00E000
038000
000000
ENDCHAR

STARTCHAR jisx0208_243B
ENCODING 9275
SWIDTH 960 0
DWIDTH 20 0
BBX 20 20 0 -2
BITMAP
000000
000300
000300
060300
060300
060300
067FF0
7FC300
060300
060300
060300
060300
063E00
060000
060000
060000
0601C0
03FF00
000000
000000
ENDCHAR

STARTCHAR jisx0208_243C
ENCODING 9276
SWIDTH 960 0
DWIDTH 20 0
BBX 20 20 0 -2
BITMAP
000000
000360
000330
0602C0
060360
060300
067FF0
7FC300
060300
060300
060300
060300
063E00
060000
060000
060000
0601C0
03FF00
000000
000000
ENDCHAR

STARTCHAR jisx0208_243D
ENCODING 9277
SWIDTH 960 0
DWIDTH 20 0
BBX 20 20 0 -2
BITMAP
000000
000000
007E00
0FCC00
003800
006000
01C000
030000
0EFFE0
7F7000
00C000
018000
018000
018000
018000
018000
00C000
007E00
000000
000000
ENDCHAR

STARTCHAR jisx0208_243E
ENCODING 9278
SWIDTH 960 0
DWIDTH 20 0
BBX 20 20 0 -2
BITMAP
000000
000000
007E60
0FCDB0
0038C0
006000
01C000
030000
0EFFE0
7F7000
00C000
018000
018000
018000
018000
018000
00C000
007E00
000000
000000
ENDCHAR

STARTCHAR jisx0208_243F
ENCODING 9279
SWIDTH 960 0
DWIDTH 20 0
BBX 20 20 0 -2
BITMAP
000000
030000
030000
030000
02F000
3F8000
060000
063FC0
060000
0C0000
0C0000
0C0000
183000
186000
18C000
30C000
30C000
307FE0
000000
000000
ENDCHAR

STARTCHAR jisx0208_2440
ENCODING 9280
SWIDTH 960 0
DWIDTH 20 0
BBX 20 20 0 -2
BITMAP
000000
030000
030060
0301B0
02F0C0
3F8000
060000
063FC0
060000
0C0000
0C0000
0C0000
183000
186000
18C000
30C000
30C000
307FE0
000000
000000
ENDCHAR

STARTCHAR jisx0208_2441
ENCODING 9281
SWIDTH 960 0
DWIDTH 20 0
BBX 20 20 0 -2
BITMAP
000000
018000
018000
019E00
3FF000
030000
030000
060000
06FE00
0B8380
0E00C0
1C00C0
1800C0
0000C0
0000C0
000180
000700
03FC00
000000
000000
ENDCHAR

STARTCHAR jisx0208_2442
ENCODING 9282
SWIDTH 960 0
DWIDTH 20 0
BBX 20 20 0 -2
BITMAP
000000
018060
0181B0
019EC0
3FF000
030000
030000
060000
06FE00
0B8380
0E00C0
1C00C0
1800C0
0000C0
0000C0
000180
000700
03FC00
000000
000000
ENDCHAR

STARTCHAR jisx0208_2443
ENCODING 9283
SWIDTH 960 0
DWIDTH 20 0
BBX 20 20 0 -2
BITMAP
000000
000000
000000
000000
000000
000000
000000
007E00
1FC300
000180
000180
000180
000180
000180
000300
000E00
00F800
000000
000000
000000
ENDCHAR

STARTCHAR jisx0208_2444
ENCODING 9284
SWIDTH 960 0
DWIDTH 20 0
BBX 20 20 0 -2
BITMAP
000000
000000
000000
000000
007F80
07C0E0
7C0060
000030
000030
000030
000030
000030
000060
000060
0000C0
000380
00FE00
000000
000000
000000
ENDCHAR

STARTCHAR jisx0208_2445
ENCODING 9285
SWIDTH 960 0
DWIDTH 20 0
BBX 20 20 0 -2
BITMAP
000000
000060
0001B0
0000C0
007F80
07C0E0
7C0060
000030
000030
000030
000030
000030
000060
000060
0000C0
000380
00FE00
000000
000000
000000
ENDCHAR

STARTCHAR jisx0208_2446
ENCODING 9286
SWIDTH 960 0
DWIDTH 20 0
BBX 20 20 0 -2
BITMAP
000000
000000
000000
0007E0
01FE00
3F1800
003000
006000
00C000
00C000
018000
018000
018000
018000
00C000
00C000
007000
001F00
000000
000000
ENDCHAR

STARTCHAR jisx0208_2447
ENCODING 9287
SWIDTH 960 0
DWIDTH 20 0
BBX 20 20 0 -2
BITMAP
000000
000000
000000
0007E0
01FE00
3F1800
003000
0060C0
00C360
00C180
018000
018000
018000
018000
00C000
00C000
007000
001F00
000000
000000
ENDCHAR

STARTCHAR jisx0208_2448
ENCODING 9288
SWIDTH 960 0
DWIDTH 20 0
BBX 20 20 0 -2
BITMAP
000000
018000
018000
018000
018000
018000
018780
00BC00
00E000
038000
060000
0C0000
180000
180000
180000
180000
0E03C0
03FE00
000000
000000
ENDCHAR

STARTCHAR jisx0208_2449
ENCODING 9289
SWIDTH 960 0
DWIDTH 20 0
BBX 20 20 0 -2
BITMAP
000000
0180C0
018360
018180
018000
018000
018780
00BC00
00E000
038000
060000
0C0000
180000
180000
180000
180000
0E03C0
03FE00
000000
000000
ENDCHAR

STARTCHAR jisx0208_244A
ENCODING 9290
SWIDTH 960 0
DWIDTH 20 0
BBX 20 20 0 -2
BITMAP
000000
060000
060000
05E000
7F0700
0C01C0
0C0060
0C0000
180300
180600
180600
300600
300600
61FE00
630700
0305C0
018660
00FC00
000000
000000
ENDCHAR

STARTCHAR jisx0208_244B
ENCODING 9291
SWIDTH 960 0
DWIDTH 20 0
BBX 20 20 0 -2
BITMAP
000000
000000
180000
180000
187FC0
300000
300000
300000
300000
300000
300000
300000
306000
30C000
30C000
18C000
187FE0
180000
000000
000000
ENDCHAR

STARTCHAR jisx0208_244C
ENCODING 9292
SWIDTH 960 0
DWIDTH 20 0
BBX 20 20 0 -2
BITMAP
000000
006000
006000
186000
18FE00
1B6380
1660C0
0C60C0
1CC060
2CC060
36C060
658060
658060
631F60
6330C0
65B0E0
3C19B0
000F00
000000
000000
ENDCHAR

STARTCHAR jisx0208_244D
ENCODING 9293
SWIDTH 960 0
DWIDTH 20 0
BBX 20 20 0 -2
BITMAP
000000
060000
060000
060000
079F80
7E70C0
06C060
058060
070060
0E0060
0E0060
160060
361F60
3630E0
663060
0618B0
060F80
060000
000000
000000
ENDCHAR

STARTCHAR jisx0208_244E
ENCODING 9294
SWIDTH 960 0
DWIDTH 20 0
BBX 20 20 0 -2
BITMAP
000000
000000
000000
01FC00
076700
0C6180
1860C0
3060C0
30C060
60C060
60C060
618060
618060
6300C0
6300C0
360180
1C0700
003C00
000000
000000
ENDCHAR

STARTCHAR jisx0208_244F
ENCODING 9295
SWIDTH 960 0
DWIDTH 20 0
BBX 20 20 0 -2
BITMAP
000000
000000
180300
180300
180300
31FFF0
300300
300300
300300
300300
300300
300300
300300
30FF00
3183C0
198360
18C330
187E00
000000
000000
ENDCHAR

STARTCHAR jisx0208_2450
ENCODING 9296
SWIDTH 960 0
DWIDTH 20 0
BBX 20 20 0 -2
BITMAP
000000
000060
180330
1802C0
180360
31FFF0
300300
300300
300300
300300
300300
300300
300300
30FF00
3183C0
198360
18C330
187E00
000000
000000
ENDCHAR

STARTCHAR jisx0208_2451
ENCODING 9297
SWIDTH 960 0
DWIDTH 20 0
BBX 20 20 0 -2
BITMAP
000000
0000E0
1803B0
1803B0
1802E0
31FFF0
300300
300300
300300
300300
300300
300300
300300
30FF00
3183C0
198360
18C330
187E00
000000
000000
ENDCHAR

STARTCHAR jisx0208_2452
ENCODING 9298
SWIDTH 960 0
DWIDTH 20 0
BBX 20 20 0 -2
BITMAP
000000
000000
000000
3FC600
018600
030300
060300
0C0380
1802C0
180360
300330
300300
300300
300600
300600
180C00
1C3800
07E000
000000
000000
ENDCHAR

STARTCHAR jisx0208_2453
ENCODING 9299
SWIDTH 960 0
DWIDTH 20 0
BBX 20 20 0 -2
BITMAP
000000
000000
000060
3FC630
0186C0
030360
060300
0C0380
1802C0
180360
300330
300300
300300
300600
300600
180C00
1C3800
07E000
000000
000000
ENDCHAR

STARTCHAR jisx0208_2454
ENCODING 9300
SWIDTH 960 0
DWIDTH 20 0
BBX 20 20 0 -2
BITMAP
000000
000000
0000E0
3FC5B0
0185B0
0302E0
060300
0C0380
1802C0
180360
300330
300300
300300
300600
300600
180C00
1C3800
07E000
000000
000000
ENDCHAR

STARTCHAR jisx0208_2455
ENCODING 9301
SWIDTH 960 0
DWIDTH 20 0
BBX 20 20 0 -2
BITMAP
000000
018000
00E000
003C00
000000
000000
006000
006000
006000
006000
003180
0C18C0
0C0C60
180C30
180C30
330C30
619800
00F000
000000
000000
ENDCHAR

STARTCHAR jisx0208_2456
ENCODING 9302
SWIDTH 960 0
DWIDTH 20 0
BBX 20 20 0 -2
BITMAP
000000
018000
00E0C0
003B60
000180
000000
006000
006000
006000
006000
003180
0C18C0
0C0C60
180C30
180C30
330C30
619800
00F000
000000
000000
ENDCHAR

STARTCHAR jisx0208_2457
ENCODING 9303
SWIDTH 960 0
DWIDTH 20 0
BBX 20 20 0 -2
BITMAP
000000
018000
00E1C0
003B60
000360
0001C0
006000
006000
006000
006000
003180
0C18C0
0C0C60
180C30
180C30
330C30
619800
00F000
000000
000000
ENDCHAR

STARTCHAR jisx0208_2458
ENCODING 9304
SWIDTH 960 0
DWIDTH 20 0
BBX 20 20 0 -2
BITMAP
000000
000000
000000
000000
000000
038000
06C000
0C6000
183000
301C00
600600
000300
0001C0
000060
000030
000000
000000
000000
000000
000000
ENDCHAR

STARTCHAR jisx0208_2459
ENCODING 9305
SWIDTH 960 0
DWIDTH 20 0
BBX 20 20 0 -2
BITMAP
000000
000000
000000
000180
0006C0
038300
06C000
0C6000
183000
301C00
600600
000300
0001C0
000060
000030
000000
000000
000000
000000
000000
ENDCHAR

STARTCHAR jisx0208_245A
ENCODING 9306
SWIDTH 960 0
DWIDTH 20 0
BBX 20 20 0 -2
BITMAP
000000
000000
000000
000380
0006C0
0386C0
06C380
0C6000
183000
301C00
600600
000300
0001C0
000060
000030
000000
000000
000000
000000
000000
ENDCHAR

STARTCHAR jisx0208_245B
ENCODING 9307
SWIDTH 960 0
DWIDTH 20 0
BBX 20 20 0 -2
BITMAP
000000
000000
180000
19FFE0
180300
300300
300300
300300
31FFF0
300300
300300
300300
300300
30FF00
3183C0
198360
18C330
187E00
000000
000000
ENDCHAR

STARTCHAR jisx0208_245C
ENCODING 9308
SWIDTH 960 0
DWIDTH 20 0
BBX 20 20 0 -2
BITMAP
000000
000060
1801B0
19FEC0
180300
300300
300300
300300
31FFF0
300300
300300
300300
300300
30FF00
3183C0
198360
18C330
187E00
000000
000000
ENDCHAR

STARTCHAR jisx0208_245D
ENCODING 9309
SWIDTH 960 0
DWIDTH 20 0
BBX 20 20 0 -2
BITMAP
000000
0000E0
1801B0
19FFB0
1802E0
300300
300300
300300
31FFF0
300300
300300
300300
300300
30FF00
3183C0
198360
18C330
187E00
000000
000000
ENDCHAR

STARTCHAR jisx0208_245E
ENCODING 9310
SWIDTH 960 0
DWIDTH 20 0
BBX 20 20 0 -2
BITMAP
000000
003000
003000
0033C0
1FFE00
003000
003000
003380
0FFE00
003000
003000
003000
003000
0FF000
183E00
183380
0C30C0
07E000
000000
000000
ENDCHAR

STARTCHAR jisx0208_245F
ENCODING 9311
SWIDTH 960 0
DWIDTH 20 0
BBX 20 20 0 -2
BITMAP
000000
000000
00F800
079800
003000
003000
003000
0060C0
0060C0
03FCC0
0EC6C0
1981C0
3180E0
3301B0
330180
360300
1C0600
001C00
000000
000000
ENDCHAR

STARTCHAR jisx0208_2460
ENCODING 9312
SWIDTH 960 0
DWIDTH 20 0
BBX 20 20 0 -2
BITMAP
000000
030000
030000
030000
02E700
3F8180
0600C0
0E0060
1B0000
330000
330000
360000
1C0300
0C0180
0C00C0
0C00C0
0C00C0
07FF80
000000
000000
ENDCHAR

STARTCHAR jisx0208_2461
ENCODING 9313
SWIDTH 960 0
DWIDTH 20 0
BBX 20 20 0 -2
BITMAP
000000
003000
003000
183000
19FC00
173700
0C3180
1C30C0
2C60C0
2C6060
666060
66C060
62C060
6380C0
6380C0
66C180
3C0700
001C00
000000
000000
ENDCHAR

STARTCHAR jisx0208_2462
ENCODING 9314
SWIDTH 960 0
DWIDTH 20 0
BBX 20 20 0 -2
BITMAP
000000
018000
018000
018000
398000
0FF800
030000
030000
030000
3B0300
0FF980
060180
0600C0
0600C0
0600C0
0600C0
030180
01FF00
000000
000000
ENDCHAR

STARTCHAR jisx0208_2463
ENCODING 9315
SWIDTH 960 0
DWIDTH 20 0
BBX 20 20 0 -2
BITMAP
000000
000000
000000
000000
000000
003000
033000
031F00
037980
03CCC0
1D8CC0
0180C0
00C180
00CF00
00C000
006000
006000
006000
006000
000000
ENDCHAR

STARTCHAR jisx0208_2464
ENCODING 9316
SWIDTH 960 0
DWIDTH 20 0
BBX 20 20 0 -2
BITMAP
000000
006000
003000
0C3000
0C1F80
0678E0
05CC60
0F0C30
7B0030
030030
018060
0180E0
018F80
00C000
00C000
00C000
006000
006000
006000
000000
ENDCHAR

STARTCHAR jisx0208_2465
ENCODING 9317
SWIDTH 960 0
DWIDTH 20 0
BBX 20 20 0 -2
BITMAP
000000
000000
000000
000000
000000
003000
003000
061800
067E00
0CDB00
0D9980
0B1980
0B1980
0E1980
0D9980
06DB00
067E00
003000
00E000
000000
ENDCHAR

STARTCHAR jisx0208_2466
ENCODING 9318
SWIDTH 960 0
DWIDTH 20 0
BBX 20 20 0 -2
BITMAP
000000
006000
003000
181800
187F00
19CDC0
330CC0
360C60
2C0C60
2C0C60
2C0C60
3B0C60
3B0C60
398CC0
19D9C0
187F00
003000
006000
01C000
000000
ENDCHAR

STARTCHAR jisx0208_2467
ENCODING 9319
SWIDTH 960 0
DWIDTH 20 0
BBX 20 20 0 -2
BITMAP
000000
000000
000000
000000
000000
003000
003000
003000
003F80
003000
003000
003000
003000
07F000
0C3C00
0C3700
063180
03E000
000000
000000
ENDCHAR

STARTCHAR jisx0208_2468
ENCODING 9320
SWIDTH 960 0
DWIDTH 20 0
BBX 20 20 0 -2
BITMAP
000000
006000
006000
006000
006000
006380
007E00
006000
006000
006000
006000
006000
006000
1FE000
307C00
306700
1861C0
0FC000
000000
000000
ENDCHAR

STARTCHAR jisx0208_2469
ENCODING 9321
SWIDTH 960 0
DWIDTH 20 0
BBX 20 20 0 -2
BITMAP
000000
000000
03E000
003C00
000000
060000
060000
0C0000
0CFE00
0B8380
1600C0
1C00C0
1800C0
0000C0
0000C0
000180
000700
01FC00
000000
000000
ENDCHAR

STARTCHAR jisx0208_246A
ENCODING 9322
SWIDTH 960 0
DWIDTH 20 0
BBX 20 20 0 -2
BITMAP
000000
000000
060300
060300
0C0180
0C0180
0C0180
0D8180
0D8180
0B0180
0B0180
0E0180
060180
060180
000300
000300
000600
001C00
00F000
000000
ENDCHAR

STARTCHAR jisx0208_246B
ENCODING 9323
SWIDTH 960 0
DWIDTH 20 0
BBX 20 20 0 -2
BITMAP
000000
000000
007C00
07D800
003000
006000
00C000
018000
02FE00
078380
0E00C0
1800C0
3000C0
03C0C0
0660C0
063180
031700
01FC00
000000
000000
ENDCHAR

STARTCHAR jisx0208_246C
ENCODING 9324
SWIDTH 960 0
DWIDTH 20 0
BBX 20 20 0 -2
BITMAP
000000
060000
060000
060000
079F00
7E7180
06C180
058180
070180
0E0180
0E0180
160180
360180
360180
6601B0
060160
0601C0
060000
000000
000000
ENDCHAR

STARTCHAR jisx0208_246D
ENCODING 9325
SWIDTH 960 0
DWIDTH 20 0
BBX 20 20 0 -2
BITMAP
000000
000000
007C00
07D800
003000
006000
00C000
018000
02FE00
078380
0E00C0
1800C0
3000C0
0000C0
0000C0
000180
000700
01FC00
000000
000000
ENDCHAR

STARTCHAR jisx0208_246E
ENCODING 9326
SWIDTH 960 0
DWIDTH 20 0
BBX 20 20 0 -2
BITMAP
000000
000000
000000
000000
000000
030000
030000
030000
03BE00
1EE300
038180
030180
070180
0B0180
0B0180
1B0300
030700
031C00
030000
000000
ENDCHAR

STARTCHAR jisx0208_246F
ENCODING 9327
SWIDTH 960 0
DWIDTH 20 0
BBX 20 20 0 -2
BITMAP
000000
060000
060000
060000
079F80
7E70C0
06C060
058060
070060
0E0060
0E0060
160060
360060
3600C0
6600C0
060380
061E00
060000
000000
000000
ENDCHAR

STARTCHAR jisx0208_2470
ENCODING 9328
SWIDTH 960 0
DWIDTH 20 0
BBX 20 20 0 -2
BITMAP
000000
000000
00F000
0FB000
003000
006000
00FE00
036380
06C0C0
0CC0C0
18C060
198060
318060
333C60
3366C0
3662C0
1C3380
001E00
000000
000000
ENDCHAR

STARTCHAR jisx0208_2471
ENCODING 9329
SWIDTH 960 0
DWIDTH 20 0
BBX 20 20 0 -2
BITMAP
000000
000000
00FC00
079800
007000
00C000
03FC00
0E0600
19E300
033300
032E00
01F800
038000
0E0F00
1F1980
31B0C0
60E060
60E060
000000
000000
ENDCHAR

STARTCHAR jisx0208_2472
ENCODING 9330
SWIDTH 960 0
DWIDTH 20 0
BBX 20 20 0 -2
BITMAP
000000
018000
018000
018F00
1FF800
030000
030000
06F1C0
0B9700
0E1C00
183800
30D800
019800
031800
060000
060000
0601C0
03FF00
000000
000000
ENDCHAR

STARTCHAR jisx0208_2473
ENCODING 9331
SWIDTH 960 0
DWIDTH 20 0
BBX 20 20 0 -2
BITMAP
000000
006000
00C000
00C000
018000
018000
030000
030000
060000
05E000
0B3000
0E3060
1C3060
183060
3030C0
3030C0
603180
601F00
000000
000000
ENDCHAR

STARTCHAR jisx0208_2521
ENCODING 9505
SWIDTH 960 0
DWIDTH 20 0
BBX 20 20 0 -2
BITMAP
000000
000000
000000
000000
000000
000000
0FFF80
000180
000300
006600
006C00
006000
006000
00C000
00C000
018000
030000
060000
000000
000000
ENDCHAR

STARTCHAR jisx0208_2522
ENCODING 9506
SWIDTH 960 0
DWIDTH 20 0
BBX 20 20 0 -2
BITMAP
000000
000000
000000
3FFFE0
000060
0000C0
000180
006300
006600
006C00
006000
006000
00C000
00C000
018000
030000
060000
0C0000
000000
000000
ENDCHAR

STARTCHAR jisx0208_2523
ENCODING 9507
SWIDTH 960 0
DWIDTH 20 0
BBX 20 20 0 -2
BITMAP
000000
000000
000000
000000
000000
000300
000600
000C00
001800
003800
005800
00D800
039800
0E1800
001800
001800
001800
001800
001800
000000
ENDCHAR

STARTCHAR jisx0208_2524
ENCODING 9508
SWIDTH 960 0
DWIDTH 20 0
BBX 20 20 0 -2
BITMAP
000000
000180
000300
000600
000C00
001800
003800
005800
01D800
031800
0E1800
381800
001800
001800
001800
001800
001800
001800
001800
000000
ENDCHAR

STARTCHAR jisx0208_2525
ENCODING 9509
SWIDTH 960 0
DWIDTH 20 0
BBX 20 20 0 -2
BITMAP
000000
000000
000000
000000
000000
006000
006000
006000
0FFF00
0C0300
0C0300
0C0300
0C0300
0C0300
000600
000600
000C00
003800
00E000
000000
ENDCHAR

STARTCHAR jisx0208_2526
ENCODING 9510
SWIDTH 960 0
DWIDTH 20 0
BBX 20 20 0 -2
BITMAP
000000
006000
006000
006000
1FFFC0
1800C0
1800C0
1800C0
1800C0
1800C0
1800C0
000180
000180
000300
000600
000C00
003800
01E000
000000
000000
ENDCHAR

STARTCHAR jisx0208_2527
ENCODING 9511
SWIDTH 960 0
DWIDTH 20 0
BBX 20 20 0 -2
BITMAP
000000
000000
000000
000000
000000
000000
000000
000000
0FFF00
006000
006000
006000
006000
006000
006000
006000
1FFF80
000000
000000
000000
ENDCHAR

STARTCHAR jisx0208_2528
ENCODING 9512
SWIDTH 960 0
DWIDTH 20 0
BBX 20 20 0 -2
BITMAP
000000
000000
000000
000000
1FFF80
006000
006000
006000
006000
006000
006000
006000
006000
006000
006000
7FFFE0
000000
000000
000000
000000
ENDCHAR

STARTCHAR jisx0208_2529
ENCODING 9513
SWIDTH 960 0
DWIDTH 20 0
BBX 20 20 0 -2
BITMAP
000000
000000
000000
000000
000000
000C00
000C00
000C00
0FFFC0
001C00
002C00
006C00
00CC00
018C00
070C00
1C0C00
000C00
000C00
007800
000000
ENDCHAR

STARTCHAR jisx0208_252A
ENCODING 9514
SWIDTH 960 0
DWIDTH 20 0
BBX 20 20 0 -2
BITMAP
000000
000C00
000C00
000C00
000C00
1FFFE0
001C00
001C00
002C00
006C00
00CC00
018C00
030C00
0E0C00
380C00
000C00
000C00
007800
000000
000000
ENDCHAR

STARTCHAR jisx0208_252B
ENCODING 9515
SWIDTH 960 0
DWIDTH 20 0
BBX 20 20 0 -2
BITMAP
000000
018000
018000
018000
018000
3FFF80
018180
018180
018180
018180
030180
030180
030180
060180
060180
0C0300
180300
303E00
000000
000000
ENDCHAR

STARTCHAR jisx0208_252C
ENCODING 9516
SWIDTH 960 0
DWIDTH 20 0
BBX 20 20 0 -2
BITMAP
000000
018060
0181B0
0180C0
018000
3FFF80
018180
018180
018180
018180
030180
030180
030180
060180
060180
0C0300
180300
303E00
000000
000000
ENDCHAR

STARTCHAR jisx0208_252D
ENCODING 9517
SWIDTH 960 0
DWIDTH 20 0
BBX 20 20 0 -2
BITMAP
000000
006000
006000
006000
007F80
1FE000
006000
006000
006000
006000
007FE0
3FF000
003000
003000
003000
003000
003000
003000
003000
000000
ENDCHAR

STARTCHAR jisx0208_252E
ENCODING 9518
SWIDTH 960 0
DWIDTH 20 0
BBX 20 20 0 -2
BITMAP
000000
006060
0061B0
0060C0
007F80
1FE000
006000
006000
006000
006000
007FE0
3FF000
003000
003000
003000
003000
003000
003000
003000
000000
ENDCHAR

STARTCHAR jisx0208_252F
ENCODING 9519
SWIDTH 960 0
DWIDTH 20 0
BBX 20 20 0 -2
BITMAP
000000
00C000
00C000
018000
01FFC0
0300C0
0600C0
0C0180
180180
300300
000300
000600
000C00
001800
003000
006000
01C000
0F0000
000000
000000
ENDCHAR

STARTCHAR jisx0208_2530
ENCODING 9520
SWIDTH 960 0
DWIDTH 20 0
BBX 20 20 0 -2
BITMAP
000000
00C060
00C1B0
0180C0
01FFC0
0300C0
0600C0
0C0180
180180
300300
000300
000600
000C00
001800
003000
006000
01C000
0F0000
000000
000000
ENDCHAR

STARTCHAR jisx0208_2531
ENCODING 9521
SWIDTH 960 0
DWIDTH 20 0
BBX 20 20 0 -2
BITMAP
000000
030000
030000
030000
060000
07FFF0
0C0C00
0C0C00
180C00
300C00
000C00
000C00
001800
001800
003000
006000
01C000
070000
000000
000000
ENDCHAR

STARTCHAR jisx0208_2532
ENCODING 9522
SWIDTH 960 0
DWIDTH 20 0
BBX 20 20 0 -2
BITMAP
000000
030060
0301B0
0300C0
060000
07FFF0
0C0C00
0C0C00
180C00
300C00
000C00
000C00
001800
001800
003000
006000
01C000
070000
000000
000000
ENDCHAR

STARTCHAR jisx0208_2533
ENCODING 9523
SWIDTH 960 0
DWIDTH 20 0
BBX 20 20 0 -2
BITMAP
000000
000000
000000
000000
1FFFC0
0000C0
0000C0
0000C0
0000C0
0000C0
0000C0
0000C0
0000C0
0000C0
0000C0
1FFFC0
0000C0
000000
000000
000000
ENDCHAR

STARTCHAR jisx0208_2534
ENCODING 9524
SWIDTH 960 0
DWIDTH 20 0
BBX 20 20 0 -2
BITMAP
000000
000160
0000B0
000000
1FFFC0
0000C0
0000C0
0000C0
0000C0
0000C0
0000C0
0000C0
0000C0
0000C0
0000C0
1FFFC0
0000C0
000000
000000
000000
ENDCHAR

STARTCHAR jisx0208_2535
ENCODING 9525
SWIDTH 960 0
DWIDTH 20 0
BBX 20 20 0 -2
BITMAP
000000
000000
060600
060600
060600
060600
7FFFF0
060600
060600
060600
060600
060600
000600
000C00
000C00
001800
007000
01C000
000000
000000
ENDCHAR

STARTCHAR jisx0208_2536
ENCODING 9526
SWIDTH 960 0
DWIDTH 20 0
BBX 20 20 0 -2
BITMAP
000000
000000
060660
0605B0
0606C0
060600
7FFFF0
060600
060600
060600
060600
060600
000600
000C00
000C00
001800
007000
01C000
000000
000000
ENDCHAR

STARTCHAR jisx0208_2537
ENCODING 9527
SWIDTH 960 0
DWIDTH 20 0
BBX 20 20 0 -2
BITMAP
000000
000000
000000
0E0000
038000
00C000
000060
380060
0E00C0
0300C0
000180
000300
000600
000C00
001800
007000
01C000
0F0000
000000
000000
ENDCHAR

STARTCHAR jisx0208_2538
ENCODING 9528
SWIDTH 960 0
DWIDTH 20 0
BBX 20 20 0 -2
BITMAP
000000
000000
000060
0E01B0
0380C0
00C000
000060
380060
0E00C0
0300C0
000180
000300
000600
000C00
001800
007000
01C000
0F0000
000000
000000
ENDCHAR

STARTCHAR jisx0208_2539
ENCODING 9529
SWIDTH 960 0
DWIDTH 20 0
BBX 20 20 0 -2
BITMAP
000000
000000
000000
0FFF00
000300
000300
000600
000600
000C00
000C00
001800
002C00
006600
00C300
018180
0700C0
3C00C0
000000
000000
000000
ENDCHAR

STARTCHAR jisx0208_253A
ENCODING 9530
SWIDTH 960 0
DWIDTH 20 0
BBX 20 20 0 -2
BITMAP
000000
000060
0001B0
0FFEC0
000300
000300
000600
000600
000C00
000C00
001800
002C00
006600
00C300
018180
0700C0
3C00C0
000000
000000
000000
ENDCHAR

STARTCHAR jisx0208_253B
ENCODING 9531
SWIDTH 960 0
DWIDTH 20 0
BBX 20 20 0 -2
BITMAP
000000
030000
030000
030000
030000
030FE0
03F860
7F00C0
030180
030300
030600
030C00
030000
030000
030000
030000
01FFC0
000000
000000
000000
ENDCHAR

STARTCHAR jisx0208_253C
ENCODING 9532
SWIDTH 960 0
DWIDTH 20 0
BBX 20 20 0 -2
BITMAP
000000
030060
0301B0
0300C0
030000
030FE0
03F860
7F00C0
030180
030300
030600
030C00
030000
030000
030000
030000
01FFC0
000000
000000
000000
ENDCHAR

STARTCHAR jisx0208_253D
ENCODING 9533
SWIDTH 960 0
DWIDTH 20 0
BBX 20 20 0 -2
BITMAP
000000
000000
000000
1800C0
0C00C0
0C00C0
0600C0
060180
000180
000180
000300
000300
000600
000C00
001800
003000
00E000
078000
000000
000000
ENDCHAR

STARTCHAR jisx0208_253E
ENCODING 9534
SWIDTH 960 0
DWIDTH 20 0
BBX 20 20 0 -2
BITMAP
000000
000160
0000B0
180000
0C00C0
0C00C0
0600C0
060180
000180
000180
000300
000300
000600
000C00
001800
003000
00E000
078000
000000
000000
ENDCHAR

STARTCHAR jisx0208_253F
ENCODING 9535
SWIDTH 960 0
DWIDTH 20 0
BBX 20 20 0 -2
BITMAP
000000
00C000
00C000
018000
01FFC0
0300C0
0600C0
0C0180
180180
31C300
007300
001600
000C00
001600
003300
006000
01C000
0F0000
000000
000000
ENDCHAR

STARTCHAR jisx0208_2540
ENCODING 9536
SWIDTH 960 0
DWIDTH 20 0
BBX 20 20 0 -2
BITMAP
000000
00C060
00C1B0
0180C0
01FFC0
0300C0
0600C0
0C0180
180180
31C300
007300
001600
000C00
001600
003300
006000
01C000
0F0000
000000
000000
ENDCHAR

STARTCHAR jisx0208_2541
ENCODING 9537
SWIDTH 960 0
DWIDTH 20 0
BBX 20 20 0 -2
BITMAP
000000
000700
003C00
0FF000
003000
003000
003000
003000
3FFFE0
003000
003000
003000
003000
006000
006000
00C000
018000
070000
000000
000000
ENDCHAR

STARTCHAR jisx0208_2542
ENCODING 9538
SWIDTH 960 0
DWIDTH 20 0
BBX 20 20 0 -2
BITMAP
000000
000700
003C00
0FF060
0031B0
0030C0
003000
003000
3FFFE0
003000
003000
003000
003000
006000
006000
00C000
018000
070000
000000
000000
ENDCHAR

STARTCHAR jisx0208_2543
ENCODING 9539
SWIDTH 960 0
DWIDTH 20 0
BBX 20 20 0 -2
BITMAP
000000
000000
000000
000000
000000
000000
006000
066000
063180
033180
030180
000300
000300
000600
000C00
001800
007000
03C000
000000
000000
ENDCHAR

STARTCHAR jisx0208_2544
ENCODING 9540
SWIDTH 960 0
DWIDTH 20 0
BBX 20 20 0 -2
BITMAP
000000
000000
000000
00C000
18C0C0
1860C0
0C60C0
0C60C0
0C0180
000180
000300
000300
000600
000C00
001800
003000
00E000
078000
000000
000000
ENDCHAR

STARTCHAR jisx0208_2545
ENCODING 9541
SWIDTH 960 0
DWIDTH 20 0
BBX 20 20 0 -2
BITMAP
000000
000160
0000B0
00C000
18C0C0
1860C0
0C60C0
0C60C0
0C0180
000180
000300
000300
000600
000C00
001800
003000
00E000
078000
000000
000000
ENDCHAR

STARTCHAR jisx0208_2546
ENCODING 9542
SWIDTH 960 0
DWIDTH 20 0
BBX 20 20 0 -2
BITMAP
000000
000000
000000
0FFF80
000000
000000
000000
000000
3FFFE0
003000
003000
003000
003000
006000
006000
00C000
018000
070000
000000
000000
ENDCHAR

STARTCHAR jisx0208_2547
ENCODING 9543
SWIDTH 960 0
DWIDTH 20 0
BBX 20 20 0 -2
BITMAP
000000
000060
0001B0
0FFEC0
000000
000000
000000
000000
3FFFE0
003000
003000
003000
003000
006000
006000
00C000
018000
070000
000000
000000
ENDCHAR

STARTCHAR jisx0208_2548
ENCODING 9544
SWIDTH 960 0
DWIDTH 20 0
BBX 20 20 0 -2
BITMAP
000000
00C000
00C000
00C000
00C000
00C000
00C000
00C000
00F000
00DC00
00C600
00C300
00C000
00C000
00C000
00C000
00C000
00C000
00C000
000000
ENDCHAR

STARTCHAR jisx0208_2549
ENCODING 9545
SWIDTH 960 0
DWIDTH 20 0
BBX 20 20 0 -2
BITMAP
000000
00C300
00C180
00C600
00C300
00C000
00C000
00C000
00F000
00DC00
00C600
00C300
00C000
00C000
00C000
00C000
00C000
00C000
00C000
000000
ENDCHAR

STARTCHAR jisx0208_254A
ENCODING 9546
SWIDTH 960 0
DWIDTH 20 0
BBX 20 20 0 -2
BITMAP
000000
003000
003000
003000
003000
003000
3FFFE0
003000
003000
003000
003000
003000
003000
006000
006000
00C000
018000
070000
000000
000000
ENDCHAR

STARTCHAR jisx0208_254B
ENCODING 9547
SWIDTH 960 0
DWIDTH 20 0
BBX 20 20 0 -2
BITMAP
000000
000000
000000
000000
0FFF80
000000
000000
000000
000000
000000
000000
000000
000000
000000
000000
3FFFE0
000000
000000
000000
000000
ENDCHAR

STARTCHAR jisx0208_254C
ENCODING 9548
SWIDTH 960 0
DWIDTH 20 0
BBX 20 20 0 -2
BITMAP
000000
000000
000000
0FFF80
000180
000180
000300
000300
078600
00E600
002C00
001C00
003600
006300
00C180
018000
070000
3C0000
000000
000000
ENDCHAR

STARTCHAR jisx0208_254D
ENCODING 9549
SWIDTH 960 0
DWIDTH 20 0
BBX 20 20 0 -2
BITMAP
000000
01E000
003800
000000
000000
0FFE00
000600
000C00
001800
003000
006000
01EE00
036380
0E60C0
386060
006000
006000
006000
006000
000000
ENDCHAR

STARTCHAR jisx0208_254E
ENCODING 9550
SWIDTH 960 0
DWIDTH 20 0
BBX 20 20 0 -2
BITMAP
000000
000000
000000
000180
000180
000180
000300
000300
000600
000C00
000C00
001800
003000
006000
00C000
018000
070000
1C0000
000000
000000
ENDCHAR

STARTCHAR jisx0208_254F
ENCODING 9551
SWIDTH 960 0
DWIDTH 20 0
BBX 20 20 0 -2
BITMAP
000000
000000
000000
000000
030600
030300
030300
060180
0600C0
0600C0
0C0060
0C0060
180060
180030
300030
600030
000000
000000
000000
000000
ENDCHAR

STARTCHAR jisx0208_2550
ENCODING 9552
SWIDTH 960 0
DWIDTH 20 0
BBX 20 20 0 -2
BITMAP
000000
000060
000030
0000C0
030660
030300
030300
060180
0600C0
0600C0
0C0060
0C0060
180060
180030
300030
600030
000000
000000
000000
000000
ENDCHAR

STARTCHAR jisx0208_2551
ENCODING 9553
SWIDTH 960 0
DWIDTH 20 0
BBX 20 20 0 -2
BITMAP
000000
0000E0
0001B0
0001B0
0306E0
030300
030300
060180
0600C0
0600C0
0C0060
0C0060
180060
180030
300030
600030
000000
000000
000000
000000
ENDCHAR

STARTCHAR jisx0208_2552
ENCODING 9554
SWIDTH 960 0
DWIDTH 20 0
BBX 20 20 0 -2
BITMAP
000000
000000
0C0000
0C0000
0C0000
0C0380
0C1E00
0CF000
0F8000
0C0000
0C0000
0C0000
0C0000
0C0000
0C0000
0C0000
07FFC0
000000
000000
000000
ENDCHAR

STARTCHAR jisx0208_2553
ENCODING 9555
SWIDTH 960 0
DWIDTH 20 0
BBX 20 20 0 -2
BITMAP
000000
000060
0C01B0
0C00C0
0C0000
0C0380
0C1E00
0CF000
0F8000
0C0000
0C0000
0C0000
0C0000
0C0000
0C0000
0C0000
07FFC0
000000
000000
000000
ENDCHAR

STARTCHAR jisx0208_2554
ENCODING 9556
SWIDTH 960 0
DWIDTH 20 0
BBX 20 20 0 -2
BITMAP
000000
0000E0
0C01B0
0C01B0
0C00E0
0C0380
0C1E00
0CF000
0F8000
0C0000
0C0000
0C0000
0C0000
0C0000
0C0000
0C0000
07FFC0
000000
000000
000000
ENDCHAR

STARTCHAR jisx0208_2555
ENCODING 9557
SWIDTH 960 0
DWIDTH 20 0
BBX 20 20 0 -2
BITMAP
000000
000000
000000
000000
3FFFC0
0000C0
0000C0
000180
000180
000180
000300
000300
000600
000C00
001800
003000
00E000
078000
000000
000000
ENDCHAR

STARTCHAR jisx0208_2556
ENCODING 9558
SWIDTH 960 0
DWIDTH 20 0
BBX 20 20 0 -2
BITMAP
000000
000160
0000B0
000000
3FFFC0
0000C0
0000C0
000180
000180
000180
000300
000300
000600
000C00
001800
003000
00E000
078000
000000
000000
ENDCHAR

STARTCHAR jisx0208_2557
ENCODING 9559
SWIDTH 960 0
DWIDTH 20 0
BBX 20 20 0 -2
BITMAP
000000
0000E0
0001B0
0001B0
3FFFE0
0000C0
0000C0
000180
000180
000180
000300
000300
000600
000C00
001800
003000
00E000
078000
000000
000000
ENDCHAR

STARTCHAR jisx0208_2558
ENCODING 9560
SWIDTH 960 0
DWIDTH 20 0
BBX 20 20 0 -2
BITMAP
000000
000000
000000
000000
000000
038000
06C000
0C6000
183800
300C00
600600
000300
0001C0
000060
000030
000000
000000
000000
000000
000000
ENDCHAR

STARTCHAR jisx0208_2559
ENCODING 9561
SWIDTH 960 0
DWIDTH 20 0
BBX 20 20 0 -2
BITMAP
000000
000000
000000
000000
000180
0386C0
06C300
0C6000
183800
300C00
600600
000300
0001C0
000060
000030
000000
000000
000000
000000
000000
ENDCHAR

STARTCHAR jisx0208_255A
ENCODING 9562
SWIDTH 960 0
DWIDTH 20 0
BBX 20 20 0 -2
BITMAP
000000
000000
000000
000700
000D80
038D80
06C700
0C6000
183800
300C00
600600
000300
0001C0
000060
000030
000000
000000
000000
000000
000000
ENDCHAR

STARTCHAR jisx0208_255B
ENCODING 9563
SWIDTH 960 0
DWIDTH 20 0
BBX 20 20 0 -2
BITMAP
000000
003000
003000
003000
003000
3FFFE0
003000
003000
003000
063300
063180
0C30C0
0C30C0
183060
183060
303060
003000
01E000
000000
000000
ENDCHAR

STARTCHAR jisx0208_255C
ENCODING 9564
SWIDTH 960 0
DWIDTH 20 0
BBX 20 20 0 -2
BITMAP
000000
003360
0031B0
003000
003000
3FFFE0
003000
003000
003000
063300
063180
0C30C0
0C30C0
183060
183060
303060
003000
01E000
000000
000000
ENDCHAR

STARTCHAR jisx0208_255D
ENCODING 9565
SWIDTH 960 0
DWIDTH 20 0
BBX 20 20 0 -2
BITMAP
000000
0031C0
003360
003360
0031C0
3FFFE0
003000
003000
003000
063300
063180
0C30C0
0C30C0
183060
183060
303060
003000
01E000
000000
000000
ENDCHAR

STARTCHAR jisx0208_255E
ENCODING 9566
SWIDTH 960 0
DWIDTH 20 0
BBX 20 20 0 -2
BITMAP
000000
000000
000000
000000
3FFFE0
000060
0000C0
000180
000300
000600
060C00
031800
01B000
00E000
006000
003000
001800
001800
000000
000000
ENDCHAR

STARTCHAR jisx0208_255F
ENCODING 9567
SWIDTH 960 0
DWIDTH 20 0
BBX 20 20 0 -2
BITMAP
000000
000000
000000
07C000
007800
000E00
000000
000000
07C000
007800
000E00
000000
000000
000000
1F0000
01E000
003C00
000700
000000
000000
ENDCHAR

STARTCHAR jisx0208_2560
ENCODING 9568
SWIDTH 960 0
DWIDTH 20 0
BBX 20 20 0 -2
BITMAP
000000
000000
006000
006000
006000
00C000
00C000
00C000
018000
018000
030600
030300
060300
060180
0C00C0
0C3FC0
7FE060
000060
000000
000000
ENDCHAR

STARTCHAR jisx0208_2561
ENCODING 9569
SWIDTH 960 0
DWIDTH 20 0
BBX 20 20 0 -2
BITMAP
000000
000000
000180
000180
000180
000300
000300
038600
00C600
006C00
001800
002C00
006600
00C300
018180
030000
0E0000
380000
000000
000000
ENDCHAR

STARTCHAR jisx0208_2562
ENCODING 9570
SWIDTH 960 0
DWIDTH 20 0
BBX 20 20 0 -2
BITMAP
000000
000000
000000
1FFF80
00C000
00C000
00C000
00C000
3FFFE0
00C000
00C000
00C000
00C000
00C000
00C000
00C000
007FC0
000000
000000
000000
ENDCHAR

STARTCHAR jisx0208_2563
ENCODING 9571
SWIDTH 960 0
DWIDTH 20 0
BBX 20 20 0 -2
BITMAP
000000
000000
000000
000000
000000
018000
018000
018000
018000
00FF80
1FC180
00C300
00C600
00CC00
006000
006000
006000
006000
006000
000000
ENDCHAR

STARTCHAR jisx0208_2564
ENCODING 9572
SWIDTH 960 0
DWIDTH 20 0
BBX 20 20 0 -2
BITMAP
000000
018000
018000
018000
018000
018FE0
03F860
7EC0C0
00C0C0
00C180
00C300
00C600
00C000
006000
006000
006000
006000
006000
006000
000000
ENDCHAR

STARTCHAR jisx0208_2565
ENCODING 9573
SWIDTH 960 0
DWIDTH 20 0
BBX 20 20 0 -2
BITMAP
000000
000000
000000
000000
000000
000000
000000
000000
07FC00
000C00
000C00
000C00
000C00
000C00
000C00
000C00
1FFFC0
000000
000000
000000
ENDCHAR

STARTCHAR jisx0208_2566
ENCODING 9574
SWIDTH 960 0
DWIDTH 20 0
BBX 20 20 0 -2
BITMAP
000000
000000
000000
000000
0FFF00
000300
000300
000300
000300
000300
000600
000600
000600
000600
000600
7FFFF0
000000
000000
000000
000000
ENDCHAR

STARTCHAR jisx0208_2567
ENCODING 9575
SWIDTH 960 0
DWIDTH 20 0
BBX 20 20 0 -2
BITMAP
000000
000000
000000
000000
000000
000000
07FF00
000300
000300
000300
000300
03FF00
000300
000300
000300
000300
07FF00
000300
000000
000000
ENDCHAR

STARTCHAR jisx0208_2568
ENCODING 9576
SWIDTH 960 0
DWIDTH 20 0
BBX 20 20 0 -2
BITMAP
000000
000000
000000
1FFF80
000180
000180
000180
000180
000180
0FFF80
000180
000180
000180
000180
000180
000180
1FFF80
000180
000000
000000
ENDCHAR

STARTCHAR jisx0208_2569
ENCODING 9577
SWIDTH 960 0
DWIDTH 20 0
BBX 20 20 0 -2
BITMAP
000000
000000
0FFF00
000000
000000
000000
000000
3FFFC0
0000C0
0000C0
000180
000180
000300
000600
000C00
001800
007000
03C000
000000
000000
ENDCHAR

STARTCHAR jisx0208_256A
ENCODING 9578
SWIDTH 960 0
DWIDTH 20 0
BBX 20 20 0 -2
BITMAP
000000
000000
060300
060300
060300
060300
060300
060300
060300
060300
060300
060300
000300
000600
000600
000C00
001800
007000
01C000
000000
ENDCHAR

STARTCHAR jisx0208_256B
ENCODING 9579
SWIDTH 960 0
DWIDTH 20 0
BBX 20 20 0 -2
BITMAP
000000
000000
003000
063000
063000
063000
063000
063000
063000
063000
063000
0C3060
0C30C0
0C3180
183300
182E00
303800
600000
000000
000000
ENDCHAR

STARTCHAR jisx0208_256C
ENCODING 9580
SWIDTH 960 0
DWIDTH 20 0
BBX 20 20 0 -2
BITMAP
000000
000000
0C0000
0C0000
0C0000
0C0000
0C0000
0C0000
0C0000
0C0000
0C00C0
0C0180
0C0300
0C0E00
0C1800
0C7000
0DC000
0F0000
000000
000000
ENDCHAR

STARTCHAR jisx0208_256D
ENCODING 9581
SWIDTH 960 0
DWIDTH 20 0
BBX 20 20 0 -2
BITMAP
000000
000000
000000
000000
1FFF80
180180
180180
180180
180180
180180
180180
180180
180180
180180
180180
1FFF80
180180
000000
000000
000000
ENDCHAR

STARTCHAR jisx0208_256E
ENCODING 9582
SWIDTH 960 0
DWIDTH 20 0
BBX 20 20 0 -2
BITMAP
000000
000000
000000
000000
000000
000000
000000
0FFF00
0C0300
0C0300
0C0300
0C0300
0C0300
000600
000600
000C00
001800
007000
01C000
000000
ENDCHAR

STARTCHAR jisx0208_256F
ENCODING 9583
SWIDTH 960 0
DWIDTH 20 0
BBX 20 20 0 -2
BITMAP
000000
000000
000000
1FFF80
180180
180180
180180
180180
180180
180180
180180
000300
000300
000600
000C00
001800
007000
01C000
000000
000000
ENDCHAR

STARTCHAR jisx0208_2570
ENCODING 9584
SWIDTH 960 0
DWIDTH 20 0
BBX 20 20 0 -2
BITMAP
000000
001800
001800
001800
001800
0FFFC0
0C1800
0C1800
0C1800
0C1800
0C1800
0C1800
7FFFE0
001800
001800
001800
001800
001800
001800
000000
ENDCHAR

STARTCHAR jisx0208_2571
ENCODING 9585
SWIDTH 960 0
DWIDTH 20 0
BBX 20 20 0 -2
BITMAP
000000
000000
000000
000000
0FFF80
000180
000300
000600
000C00
007800
006000
006000
006000
006000
006000
7FFFF0
000000
000000
000000
000000
ENDCHAR

STARTCHAR jisx0208_2572
ENCODING 9586
SWIDTH 960 0
DWIDTH 20 0
BBX 20 20 0 -2
BITMAP
000000
000000
000000
1FFFC0
0000C0
0000C0
0000C0
0000C0
0FFF80
000180
000180
000300
000300
000600
000C00
001800
007000
03C000
000000
000000
ENDCHAR

STARTCHAR jisx0208_2573
ENCODING 9587
SWIDTH 960 0
DWIDTH 20 0
BBX 20 20 0 -2
BITMAP
000000
000000
000000
1C0000
070000
018000
000060
000060
0000C0
0000C0
000180
000300
000600
000C00
001800
007000
01C000
0F0000
000000
000000
ENDCHAR

STARTCHAR jisx0208_2574
ENCODING 9588
SWIDTH 960 0
DWIDTH 20 0
BBX 20 20 0 -2
BITMAP
000000
006060
0061B0
0060C0
1FFFC0
1800C0
1800C0
1800C0
1800C0
1800C0
1800C0
000180
000180
000300
000600
000C00
003800
01E000
000000
000000
ENDCHAR

STARTCHAR jisx0208_2575
ENCODING 9589
SWIDTH 960 0
DWIDTH 20 0
BBX 20 20 0 -2
BITMAP
000000
000000
000000
000000
000000
006000
006000
006000
0FFF80
006180
006180
00C180
00C180
00C180
018180
018180
030300
060300
0C1E00
000000
ENDCHAR

STARTCHAR jisx0208_2576
ENCODING 9590
SWIDTH 960 0
DWIDTH 20 0
BBX 20 20 0 -2
BITMAP
000000
000000
000000
000000
000000
018000
018000
018000
030000
03FFC0
060C00
0C0C00
180C00
000C00
001800
001800
003000
006000
01C000
000000
ENDCHAR

STARTCHAR jisx0208_2621
ENCODING 9761
SWIDTH 960 0
DWIDTH 20 0
BBX 20 20 0 -2
BITMAP
000000
000000
006000
006000
00B000
00B000
019800
019800
030C00
030C00
030C00
060600
060600
0FFF00
0C0300
180180
180180
000000
000000
000000
ENDCHAR

STARTCHAR jisx0208_2622
ENCODING 9762
SWIDTH 960 0
DWIDTH 20 0
BBX 20 20 0 -2
BITMAP
000000
000000
07FC00
060600
060300
060300
060300
060600
07FE00
060300
060180
060180
060180
060180
060180
060300
07FE00
000000
000000
000000
ENDCHAR

STARTCHAR jisx0208_2623
ENCODING 9763
SWIDTH 960 0
DWIDTH 20 0
BBX 20 20 0 -2
BITMAP
000000
000000
07FF00
060000
060000
060000
060000
060000
060000
060000
060000
060000
060000
060000
060000
060000
060000
000000
000000
000000
ENDCHAR

STARTCHAR jisx0208_2624
ENCODING 9764
SWIDTH 960 0
DWIDTH 20 0
BBX 20 20 0 -2
BITMAP
000000
000000
006000
006000
00B000
00B000
019800
019800
030C00
030C00
030C00
060600
060600
0C0300
0C0300
180180
1FFF80
000000
000000
000000
ENDCHAR

STARTCHAR jisx0208_2625
ENCODING 9765
SWIDTH 960 0
DWIDTH 20 0
BBX 20 20 0 -2
BITMAP
000000
000000
07FF00
060000
060000
060000
060000
060000
07FE00
060000
060000
060000
060000
060000
060000
060000
07FF00
000000
000000
000000
ENDCHAR

STARTCHAR jisx0208_2626
ENCODING 9766
SWIDTH 960 0
DWIDTH 20 0
BBX 20 20 0 -2
BITMAP
000000
000000
07FF00
000300
000600
000C00
001800
001800
003000
006000
00C000
018000
018000
030000
060000
0C0000
0FFF00
000000
000000
000000
ENDCHAR

STARTCHAR jisx0208_2627
ENCODING 9767
SWIDTH 960 0
DWIDTH 20 0
BBX 20 20 0 -2
BITMAP
000000
000000
0C0300
0C0300
0C0300
0C0300
0C0300
0C0300
0FFF00
0C0300
0C0300
0C0300
0C0300
0C0300
0C0300
0C0300
0C0300
000000
000000
000000
ENDCHAR

STARTCHAR jisx0208_2628
ENCODING 9768
SWIDTH 960 0
DWIDTH 20 0
BBX 20 20 0 -2
BITMAP
000000
000000
01F800
070E00
0C0300
0C0300
180180
180180
180180
1BFD80
180180
180180
180180
0C0300
0C0300
070E00
01F800
000000
000000
000000
ENDCHAR

STARTCHAR jisx0208_2629
ENCODING 9769
SWIDTH 960 0
DWIDTH 20 0
BBX 20 20 0 -2
BITMAP
000000
000000
006000
006000
006000
006000
006000
006000
006000
006000
006000
006000
006000
006000
006000
006000
006000
000000
000000
000000
ENDCHAR

STARTCHAR jisx0208_262A
ENCODING 9770
SWIDTH 960 0
DWIDTH 20 0
BBX 20 20 0 -2
BITMAP
000000
000000
060600
060C00
061800
063000
066000
06C000
05C000
076000
063000
063000
061800
060C00
060C00
060600
060300
000000
000000
000000
ENDCHAR

STARTCHAR jisx0208_262B
ENCODING 9771
SWIDTH 960 0
DWIDTH 20 0
BBX 20 20 0 -2
BITMAP
000000
000000
006000
006000
00B000
00B000
019800
019800
030C00
030C00
030C00
060600
060600
0C0300
0C0300
180180
180180
000000
000000
000000
ENDCHAR

STARTCHAR jisx0208_262C
ENCODING 9772
SWIDTH 960 0
DWIDTH 20 0
BBX 20 20 0 -2
BITMAP
000000
000000
180180
180180
1C0380
1C0380
160580
160580
1B0D80
1B0D80
1B0D80
199980
199980
18B180
18B180
186180
186180
000000
000000
000000
ENDCHAR

STARTCHAR jisx0208_262D
ENCODING 9773
SWIDTH 960 0
DWIDTH 20 0
BBX 20 20 0 -2
BITMAP
000000
000000
0C0300
0E0300
0E0300
0B0300
0D8300
0CC300
0CC300
0C6300
0C3300
0C3300
0C1B00
0C0B00
0C0700
0C0700
0C0300
000000
000000
000000
ENDCHAR

STARTCHAR jisx0208_262E
ENCODING 9774
SWIDTH 960 0
DWIDTH 20 0
BBX 20 20 0 -2
BITMAP
000000
000000
0FFF00
000000
000000
000000
000000
000000
000000
07FE00
000000
000000
000000
000000
000000
000000
0FFF00
000000
000000
000000
ENDCHAR

STARTCHAR jisx0208_262F
ENCODING 9775
SWIDTH 960 0
DWIDTH 20 0
BBX 20 20 0 -2
BITMAP
000000
000000
01F800
070E00
0C0300
0C0300
180180
180180
180180
180180
180180
180180
180180
0C0300
0C0300
070E00
01F800
000000
000000
000000
ENDCHAR

STARTCHAR jisx0208_2630
ENCODING 9776
SWIDTH 960 0
DWIDTH 20 0
BBX 20 20 0 -2
BITMAP
000000
000000
0FFF00
0C0300
0C0300
0C0300
0C0300
0C0300
0C0300
0C0300
0C0300
0C0300
0C0300
0C0300
0C0300
0C0300
0C0300
000000
000000
000000
ENDCHAR

STARTCHAR jisx0208_2631
ENCODING 9777
SWIDTH 960 0
DWIDTH 20 0
BBX 20 20 0 -2
BITMAP
000000
000000
07FE00
060300
060180
060180
060180
060180
060180
060300
07FE00
060000
060000
060000
060000
060000
060000
000000
000000
000000
ENDCHAR

STARTCHAR jisx0208_2632
ENCODING 9778
SWIDTH 960 0
DWIDTH 20 0
BBX 20 20 0 -2
BITMAP
000000
000000
0FFF00
060000
030000
018000
00C000
006000
003000
003000
006000
00C000
018000
030000
060000
0C0000
0FFF00
000000
000000
000000
ENDCHAR

STARTCHAR jisx0208_2633
ENCODING 9779
SWIDTH 960 0
DWIDTH 20 0
BBX 20 20 0 -2
BITMAP
000000
000000
1FFF80
006000
006000
006000
006000
006000
006000
006000
006000
006000
006000
006000
006000
006000
006000
000000
000000
000000
ENDCHAR

STARTCHAR jisx0208_2634
ENCODING 9780
SWIDTH 960 0
DWIDTH 20 0
BBX 20 20 0 -2
BITMAP
000000
000000
079E00
0CB300
186180
186180
006000
006000
006000
006000
006000
006000
006000
006000
006000
006000
006000
000000
000000
000000
ENDCHAR

STARTCHAR jisx0208_2635
ENCODING 9781
SWIDTH 960 0
DWIDTH 20 0
BBX 20 20 0 -2
BITMAP
000000
000000
006000
006000
03FC00
0E6700
0C6300
186180
186180
186180
186180
186180
0C6300
0E6700
03FC00
006000
006000
000000
000000
000000
ENDCHAR

STARTCHAR jisx0208_2636
ENCODING 9782
SWIDTH 960 0
DWIDTH 20 0
BBX 20 20 0 -2
BITMAP
000000
000000
0C0300
060600
030C00
030C00
019800
00B000
00B000
006000
00B000
019800
019800
030C00
060600
060600
0C0300
000000
000000
000000
ENDCHAR

STARTCHAR jisx0208_2637
ENCODING 9783
SWIDTH 960 0
DWIDTH 20 0
BBX 20 20 0 -2
BITMAP
000000
000000
0C6300
0C6300
0C6300
0C6300
0C6300
0C6300
0C6300
0C6300
0C6300
066600
076E00
01F800
006000
006000
006000
000000
000000
000000
ENDCHAR

STARTCHAR jisx0208_2638
ENCODING 9784
SWIDTH 960 0
DWIDTH 20 0
BBX 20 20 0 -2
BITMAP
000000
000000
00F800
038E00
060300
060300
0C0180
0C0180
0C0180
0C0180
0C0180
060300
060300
030600
018C00
00D800
0FDF80
000000
000000
000000
ENDCHAR

STARTCHAR jisx0208_2641
ENCODING 9793
SWIDTH 960 0
DWIDTH 20 0
BBX 20 20 0 -2
BITMAP
000000
000000
000000
000000
000000
000000
00F180
019980
030D80
060B00
060B00
0C0E00
0C0E00
0C0C00
0C1C00
062D80
03E700
000000
000000
000000
ENDCHAR

STARTCHAR jisx0208_2642
ENCODING 9794
SWIDTH 960 0
DWIDTH 20 0
BBX 20 20 0 -2
BITMAP
000000
000000
007E00
00C300
018180
018180
018180
030300
037E00
030600
030300
060300
060300
060300
070300
0D8600
0CFC00
0C0000
0C0000
000000
ENDCHAR

STARTCHAR jisx0208_2643
ENCODING 9795
SWIDTH 960 0
DWIDTH 20 0
BBX 20 20 0 -2
BITMAP
000000
000000
000000
000000
000000
000000
03C780
066C00
003800
003000
003000
003000
006000
006000
006000
006000
00C000
00C000
00C000
000000
ENDCHAR

STARTCHAR jisx0208_2644
ENCODING 9796
SWIDTH 960 0
DWIDTH 20 0
BBX 20 20 0 -2
BITMAP
000000
000000
00F800
00CE00
006300
003000
00FC00
018600
030300
060300
060300
0C0300
0C0600
0C0600
0C0C00
061800
03F000
000000
000000
000000
ENDCHAR

STARTCHAR jisx0208_2645
ENCODING 9797
SWIDTH 960 0
DWIDTH 20 0
BBX 20 20 0 -2
BITMAP
000000
000000
000000
000000
000000
000000
00FE00
018300
018000
018000
01FC00
030000
060000
060000
060300
030E00
01F800
000000
000000
000000
ENDCHAR

STARTCHAR jisx0208_2646
ENCODING 9798
SWIDTH 960 0
DWIDTH 20 0
BBX 20 20 0 -2
BITMAP
000000
000000
01FF00
000C00
001800
003000
006000
00C000
018000
030000
030000
060000
060000
060000
060000
03FC00
000600
000600
01FC00
000000
ENDCHAR

STARTCHAR jisx0208_2647
ENCODING 9799
SWIDTH 960 0
DWIDTH 20 0
BBX 20 20 0 -2
BITMAP
000000
000000
000000
000000
000000
000000
077E00
0DC300
018300
030300
030600
030600
060600
060C00
060C00
0C0C00
0C1800
001800
001800
000000
ENDCHAR

STARTCHAR jisx0208_2648
ENCODING 9800
SWIDTH 960 0
DWIDTH 20 0
BBX 20 20 0 -2
BITMAP
000000
000000
00FC00
018600
030300
030300
060300
060300
060300
0FFF00
0C0600
0C0600
0C0600
0C0C00
0C0C00
061800
03F000
000000
000000
000000
ENDCHAR

STARTCHAR jisx0208_2649
ENCODING 9801
SWIDTH 960 0
DWIDTH 20 0
BBX 20 20 0 -2
BITMAP
000000
000000
000000
000000
000000
000000
006000
006000
006000
006000
00C000
00C000
00C000
018000
019800
01B000
00E000
000000
000000
000000
ENDCHAR

STARTCHAR jisx0208_264A
ENCODING 9802
SWIDTH 960 0
DWIDTH 20 0
BBX 20 20 0 -2
BITMAP
000000
000000
000000
000000
000000
000000
018780
018C00
019800
033000
03E000
033000
063000
061800
061B00
0C1B00
0C0E00
000000
000000
000000
ENDCHAR

STARTCHAR jisx0208_264B
ENCODING 9803
SWIDTH 960 0
DWIDTH 20 0
BBX 20 20 0 -2
BITMAP
000000
000000
00F000
001800
001800
001800
001800
003800
005800
00D800
019800
019800
031800
061800
061800
0C1800
0C0F00
000000
000000
000000
ENDCHAR

STARTCHAR jisx0208_264C
ENCODING 9804
SWIDTH 960 0
DWIDTH 20 0
BBX 20 20 0 -2
BITMAP
000000
000000
000000
000000
000000
000000
018300
018300
018300
030600
030600
030600
060C00
060C00
060C00
071D80
0DF700
0C0000
0C0000
000000
ENDCHAR

STARTCHAR jisx0208_264D
ENCODING 9805
SWIDTH 960 0
DWIDTH 20 0
BBX 20 20 0 -2
BITMAP
000000
000000
000000
000000
000000
000000
060300
030300
030300
018600
018600
018C00
019800
01B000
016000
01C000
018000
000000
000000
000000
ENDCHAR

STARTCHAR jisx0208_264E
ENCODING 9806
SWIDTH 960 0
DWIDTH 20 0
BBX 20 20 0 -2
BITMAP
000000
000000
03FE00
006000
00C000
018000
018000
018000
00FC00
018000
030000
060000
060000
060000
030000
01F800
000C00
000C00
00F800
000000
ENDCHAR

STARTCHAR jisx0208_264F
ENCODING 9807
SWIDTH 960 0
DWIDTH 20 0
BBX 20 20 0 -2
BITMAP
000000
000000
000000
000000
000000
000000
00FC00
018600
030300
060300
060300
0C0300
0C0600
0C0600
0C0C00
061800
03F000
000000
000000
000000
ENDCHAR

STARTCHAR jisx0208_2650
ENCODING 9808
SWIDTH 960 0
DWIDTH 20 0
BBX 20 20 0 -2
BITMAP
000000
000000
000000
000000
000000
0000C0
07FF80
0D8C00
018C00
018C00
031800
031800
031800
063000
063300
0C3600
181C00
000000
000000
000000
ENDCHAR

STARTCHAR jisx0208_2651
ENCODING 9809
SWIDTH 960 0
DWIDTH 20 0
BBX 20 20 0 -2
BITMAP
000000
000000
000000
000000
000000
000000
007E00
00C300
018180
030180
030180
060180
060300
060300
0E0600
0B0C00
0DF800
0C0000
0C0000
000000
ENDCHAR

STARTCHAR jisx0208_2652
ENCODING 9810
SWIDTH 960 0
DWIDTH 20 0
BBX 20 20 0 -2
BITMAP
000000
000000
000000
000000
000000
0000C0
00FF80
018600
030300
060300
060300
0C0300
0C0600
0C0600
0C0C00
061800
03F000
000000
000000
000000
ENDCHAR

STARTCHAR jisx0208_2653
ENCODING 9811
SWIDTH 960 0
DWIDTH 20 0
BBX 20 20 0 -2
BITMAP
000000
000000
000000
000000
000000
000300
03FE00
066000
006000
006000
00C000
00C000
00C000
018000
019800
01B000
00E000
000000
000000
000000
ENDCHAR

STARTCHAR jisx0208_2654
ENCODING 9812
SWIDTH 960 0
DWIDTH 20 0
BBX 20 20 0 -2
BITMAP
000000
000000
000000
000000
000000
000000
030600
030300
030300
030300
030300
060300
060600
060600
060C00
061800
03F000
000000
000000
000000
ENDCHAR

STARTCHAR jisx0208_2655
ENCODING 9813
SWIDTH 960 0
DWIDTH 20 0
BBX 20 20 0 -2
BITMAP
000000
000000
000000
001800
001800
001800
00FC00
03B600
063300
063300
0C6300
0C6300
0C6600
0CC600
06DC00
03F000
018000
018000
018000
000000
ENDCHAR

STARTCHAR jisx0208_2656
ENCODING 9814
SWIDTH 960 0
DWIDTH 20 0
BBX 20 20 0 -2
BITMAP
000000
000000
000000
000000
000000
000000
038180
06C300
0CC600
006C00
005800
007000
006000
00B000
01B000
033000
061980
0C1B00
180E00
000000
ENDCHAR

STARTCHAR jisx0208_2657
ENCODING 9815
SWIDTH 960 0
DWIDTH 20 0
BBX 20 20 0 -2
BITMAP
000000
000000
000000
001800
001800
001800
0E3600
1B3300
033300
066300
066300
0C6300
0CC600
0CC600
0CDC00
07F000
018000
018000
018000
000000
ENDCHAR

STARTCHAR jisx0208_2658
ENCODING 9816
SWIDTH 960 0
DWIDTH 20 0
BBX 20 20 0 -2
BITMAP
000000
000000
000000
000000
000000
000000
018600
030300
060300
0C3180
0C3180
183180
186180
186180
186300
0CE600
07BC00
000000
000000
000000
ENDCHAR

STARTCHAR jisx0208_2721
ENCODING 10017
SWIDTH 960 0
DWIDTH 20 0
BBX 20 20 0 -2
BITMAP
000000
000000
006000
006000
00B000
00B000
019800
019800
030C00
030C00
030C00
060600
060600
0FFF00
0C0300
180180
180180
000000
000000
000000
ENDCHAR

STARTCHAR jisx0208_2722
ENCODING 10018
SWIDTH 960 0
DWIDTH 20 0
BBX 20 20 0 -2
BITMAP
000000
000000
07FE00
060000
060000
060000
060000
060000
07FC00
060600
060300
060300
060300
060300
060300
060600
07FC00
000000
000000
000000
ENDCHAR

STARTCHAR jisx0208_2723
ENCODING 10019
SWIDTH 960 0
DWIDTH 20 0
BBX 20 20 0 -2
BITMAP
000000
000000
07F800
060C00
060600
060600
060600
060C00
07FC00
060600
060300
060300
060300
060300
060300
060600
07FC00
000000
000000
000000
ENDCHAR

STARTCHAR jisx0208_2724
ENCODING 10020
SWIDTH 960 0
DWIDTH 20 0
BBX 20 20 0 -2
BITMAP
000000
000000
07FF00
060000
060000
060000
060000
060000
060000
060000
060000
060000
060000
060000
060000
060000
060000
000000
000000
000000
ENDCHAR

STARTCHAR jisx0208_2725
ENCODING 10021
SWIDTH 960 0
DWIDTH 20 0
BBX 20 20 0 -2
BITMAP
000000
000000
01FF00
018300
018300
018300
018300
018300
018300
018300
018300
018300
018300
030300
030300
060300
1FFFC0
1800C0
1800C0
000000
ENDCHAR

STARTCHAR jisx0208_2726
ENCODING 10022
SWIDTH 960 0
DWIDTH 20 0
BBX 20 20 0 -2
BITMAP
000000
000000
07FF00
060000
060000
060000
060000
060000
07FE00
060000
060000
060000
060000
060000
060000
060000
07FF00
000000
000000
000000
ENDCHAR

STARTCHAR jisx0208_2727
ENCODING 10023
SWIDTH 960 0
DWIDTH 20 0
BBX 20 20 0 -2
BITMAP
000000
01DC00
01DC00
000000
07FF00
060000
060000
060000
060000
07FE00
060000
060000
060000
060000
060000
060000
07FF00
000000
000000
000000
ENDCHAR

STARTCHAR jisx0208_2728
ENCODING 10024
SWIDTH 960 0
DWIDTH 20 0
BBX 20 20 0 -2
BITMAP
000000
000000
3861C0
0C6300
066600
066600
036C00
036C00
01F800
036C00
066600
0C6300
0C6300
186180
186180
3060C0
3060C0
000000
000000
000000
ENDCHAR

STARTCHAR jisx0208_2729
ENCODING 10025
SWIDTH 960 0
DWIDTH 20 0
BBX 20 20 0 -2
BITMAP
000000
000000
01FC00
070600
060300
0C0300
000300
000600
01FC00
000700
000300
000180
0C0180
0C0180
060300
070700
01FC00
000000
000000
000000
ENDCHAR

STARTCHAR jisx0208_272A
ENCODING 10026
SWIDTH 960 0
DWIDTH 20 0
BBX 20 20 0 -2
BITMAP
000000
000000
0C0300
0C0700
0C0700
0C0B00
0C1B00
0C3300
0C3300
0C6300
0CC300
0CC300
0D8300
0B0300
0E0300
0E0300
0C0300
000000
000000
000000
ENDCHAR

STARTCHAR jisx0208_272B
ENCODING 10027
SWIDTH 960 0
DWIDTH 20 0
BBX 20 20 0 -2
BITMAP
000000
018C00
0CFB00
0C0700
0C0700
0C0B00
0C1B00
0C3300
0C3300
0C6300
0CC300
0CC300
0D8300
0B0300
0E0300
0E0300
0C0300
000000
000000
000000
ENDCHAR

STARTCHAR jisx0208_272C
ENCODING 10028
SWIDTH 960 0
DWIDTH 20 0
BBX 20 20 0 -2
BITMAP
000000
000000
060300
060600
060C00
061800
063000
066000
07E000
063000
061800
061800
060C00
060600
060600
060300
060180
000000
000000
000000
ENDCHAR

STARTCHAR jisx0208_272D
ENCODING 10029
SWIDTH 960 0
DWIDTH 20 0
BBX 20 20 0 -2
BITMAP
000000
000000
03FF00
030300
030300
030300
030300
030300
030300
030300
030300
030300
030300
030300
030300
030300
1E0300
000000
000000
000000
ENDCHAR

STARTCHAR jisx0208_272E
ENCODING 10030
SWIDTH 960 0
DWIDTH 20 0
BBX 20 20 0 -2
BITMAP
000000
000000
180180
180180
1C0380
1C0380
160580
160580
1B0D80
1B0D80
1B0D80
199980
199980
18B180
18B180
186180
186180
000000
000000
000000
ENDCHAR

STARTCHAR jisx0208_272F
ENCODING 10031
SWIDTH 960 0
DWIDTH 20 0
BBX 20 20 0 -2
BITMAP
000000
000000
0C0300
0C0300
0C0300
0C0300
0C0300
0C0300
0FFF00
0C0300
0C0300
0C0300
0C0300
0C0300
0C0300
0C0300
0C0300
000000
000000
000000
ENDCHAR

STARTCHAR jisx0208_2730
ENCODING 10032
SWIDTH 960 0
DWIDTH 20 0
BBX 20 20 0 -2
BITMAP
000000
000000
01F800
070E00
0C0300
0C0300
180180
180180
180180
180180
180180
180180
180180
0C0300
0C0300
070E00
01F800
000000
000000
000000
ENDCHAR

STARTCHAR jisx0208_2731
ENCODING 10033
SWIDTH 960 0
DWIDTH 20 0
BBX 20 20 0 -2
BITMAP
000000
000000
0FFF00
0C0300
0C0300
0C0300
0C0300
0C0300
0C0300
0C0300
0C0300
0C0300
0C0300
0C0300
0C0300
0C0300
0C0300
000000
000000
000000
ENDCHAR

STARTCHAR jisx0208_2732
ENCODING 10034
SWIDTH 960 0
DWIDTH 20 0
BBX 20 20 0 -2
BITMAP
000000
000000
07FC00
060600
060300
060300
060300
060300
060300
060600
07FC00
060000
060000
060000
060000
060000
060000
000000
000000
000000
ENDCHAR

STARTCHAR jisx0208_2733
ENCODING 10035
SWIDTH 960 0
DWIDTH 20 0
BBX 20 20 0 -2
BITMAP
000000
000000
00FC00
038700
060300
060180
0C0180
0C0000
0C0000
0C0000
0C0000
0C0000
0C0180
060180
060300
038700
00FC00
000000
000000
000000
ENDCHAR

STARTCHAR jisx0208_2734
ENCODING 10036
SWIDTH 960 0
DWIDTH 20 0
BBX 20 20 0 -2
BITMAP
000000
000000
1FFF80
006000
006000
006000
006000
006000
006000
006000
006000
006000
006000
006000
006000
006000
006000
000000
000000
000000
ENDCHAR

STARTCHAR jisx0208_2735
ENCODING 10037
SWIDTH 960 0
DWIDTH 20 0
BBX 20 20 0 -2
BITMAP
000000
000000
0C0300
0C0300
060600
060600
030C00
030C00
019800
019800
00B000
00B000
006000
006000
00C000
00C000
0F8000
000000
000000
000000
ENDCHAR

STARTCHAR jisx0208_2736
ENCODING 10038
SWIDTH 960 0
DWIDTH 20 0
BBX 20 20 0 -2
BITMAP
000000
000000
006000
006000
03FC00
0E6700
0C6300
186180
186180
186180
186180
186180
0C6300
0E6700
03FC00
006000
006000
000000
000000
000000
ENDCHAR

STARTCHAR jisx0208_2737
ENCODING 10039
SWIDTH 960 0
DWIDTH 20 0
BBX 20 20 0 -2
BITMAP
000000
000000
0C0300
060600
030C00
030C00
019800
00B000
00B000
006000
00B000
019800
019800
030C00
060600
060600
0C0300
000000
000000
000000
ENDCHAR

STARTCHAR jisx0208_2738
ENCODING 10040
SWIDTH 960 0
DWIDTH 20 0
BBX 20 20 0 -2
BITMAP
000000
000000
060300
060300
060300
060300
060300
060300
060300
060300
060300
060300
060300
060300
060300
060300
07FFC0
0000C0
0000C0
000000
ENDCHAR

STARTCHAR jisx0208_2739
ENCODING 10041
SWIDTH 960 0
DWIDTH 20 0
BBX 20 20 0 -2
BITMAP
000000
000000
060600
060600
060600
060600
060600
060600
060600
03FE00
000600
000600
000600
000600
000600
000600
000600
000000
000000
000000
ENDCHAR

STARTCHAR jisx0208_273A
ENCODING 10042
SWIDTH 960 0
DWIDTH 20 0
BBX 20 20 0 -2
BITMAP
000000
000000
186180
186180
186180
186180
186180
186180
186180
186180
186180
186180
186180
186180
186180
186180
1FFF80
000000
000000
000000
ENDCHAR

STARTCHAR jisx0208_273B
ENCODING 10043
SWIDTH 960 0
DWIDTH 20 0
BBX 20 20 0 -2
BITMAP
000000
000000
186180
186180
186180
186180
186180
186180
186180
186180
186180
186180
186180
186180
186180
186180
1FFFC0
0000C0
0000C0
000000
ENDCHAR

STARTCHAR jisx0208_273C
ENCODING 10044
SWIDTH 960 0
DWIDTH 20 0
BBX 20 20 0 -2
BITMAP
000000
000000
1F0000
030000
030000
030000
030000
030000
03FC00
030600
030300
030300
030300
030300
030300
030600
03FC00
000000
000000
000000
ENDCHAR

STARTCHAR jisx0208_273D
ENCODING 10045
SWIDTH 960 0
DWIDTH 20 0
BBX 20 20 0 -2
BITMAP
000000
000000
0C0180
0C0180
0C0180
0C0180
0C0180
0C0180
0FF180
0C1980
0C0D80
0C0D80
0C0D80
0C0D80
0C0D80
0C1980
0FF180
000000
000000
000000
ENDCHAR

STARTCHAR jisx0208_273E
ENCODING 10046
SWIDTH 960 0
DWIDTH 20 0
BBX 20 20 0 -2
BITMAP
000000
000000
060000
060000
060000
060000
060000
060000
07FC00
060600
060300
060300
060300
060300
060300
060600
07FC00
000000
000000
000000
ENDCHAR

STARTCHAR jisx0208_273F
ENCODING 10047
SWIDTH 960 0
DWIDTH 20 0
BBX 20 20 0 -2
BITMAP
000000
000000
01F800
070E00
060300
0C0300
0C0180
000180
01FF80
000180
000180
000180
0C0180
0C0300
060300
070E00
01F800
000000
000000
000000
ENDCHAR

STARTCHAR jisx0208_2740
ENCODING 10048
SWIDTH 960 0
DWIDTH 20 0
BBX 20 20 0 -2
BITMAP
000000
000000
181E00
187380
18C0C0
18C0C0
198060
198060
198060
1F8060
198060
198060
198060
18C0C0
18C0C0
187380
181E00
000000
000000
000000
ENDCHAR

STARTCHAR jisx0208_2741
ENCODING 10049
SWIDTH 960 0
DWIDTH 20 0
BBX 20 20 0 -2
BITMAP
000000
000000
01FF00
030300
060300
060300
060300
060300
030300
01FF00
030300
030300
060300
060300
060300
0C0300
0C0300
000000
000000
000000
ENDCHAR

STARTCHAR jisx0208_2751
ENCODING 10065
SWIDTH 960 0
DWIDTH 20 0
BBX 20 20 0 -2
BITMAP
000000
000000
000000
000000
000000
000000
01F800
030C00
060600
000600
00FE00
038600
060600
060600
060600
031E00
01F600
000000
000000
000000
ENDCHAR

STARTCHAR jisx0208_2752
ENCODING 10066
SWIDTH 960 0
DWIDTH 20 0
BBX 20 20 0 -2
BITMAP
000000
000000
000600
00FC00
038000
030000
05F800
070C00
060600
060600
060600
060600
060600
060600
060600
030C00
01F800
000000
000000
000000
ENDCHAR

STARTCHAR jisx0208_2753
ENCODING 10067
SWIDTH 960 0
DWIDTH 20 0
BBX 20 20 0 -2
BITMAP
000000
000000
000000
000000
000000
000000
07F800
060C00
060C00
060C00
07F800
060C00
060600
060600
060600
060C00
07F800
000000
000000
000000
ENDCHAR

STARTCHAR jisx0208_2754
ENCODING 10068
SWIDTH 960 0
DWIDTH 20 0
BBX 20 20 0 -2
BITMAP
000000
000000
000000
000000
000000
000000
03FE00
030000
030000
030000
030000
030000
030000
030000
030000
030000
030000
000000
000000
000000
ENDCHAR

STARTCHAR jisx0208_2755
ENCODING 10069
SWIDTH 960 0
DWIDTH 20 0
BBX 20 20 0 -2
BITMAP
000000
000000
000000
000000
000000
000000
01FC00
018C00
018C00
018C00
018C00
018C00
018C00
018C00
030C00
030C00
0FFE00
0C0600
0C0600
000000
ENDCHAR

STARTCHAR jisx0208_2756
ENCODING 10070
SWIDTH 960 0
DWIDTH 20 0
BBX 20 20 0 -2
BITMAP
000000
000000
000000
000000
000000
000000
00F800
038E00
030600
060300
060300
07FF00
060000
060000
030300
038600
00FC00
000000
000000
000000
ENDCHAR

STARTCHAR jisx0208_2757
ENCODING 10071
SWIDTH 960 0
DWIDTH 20 0
BBX 20 20 0 -2
BITMAP
000000
000000
000000
01DC00
01DC00
000000
00F800
038E00
030600
060300
060300
07FF00
060000
060000
030300
038600
00FC00
000000
000000
000000
ENDCHAR

STARTCHAR jisx0208_2758
ENCODING 10072
SWIDTH 960 0
DWIDTH 20 0
BBX 20 20 0 -2
BITMAP
000000
000000
000000
000000
000000
000000
0E6700
036C00
036C00
015800
01F800
036C00
036C00
066600
066600
0C6300
0C6300
000000
000000
000000
ENDCHAR

STARTCHAR jisx0208_2759
ENCODING 10073
SWIDTH 960 0
DWIDTH 20 0
BBX 20 20 0 -2
BITMAP
000000
000000
000000
000000
000000
000000
01F800
030C00
060C00
000C00
01F800
000C00
000600
060600
060600
030C00
01F800
000000
000000
000000
ENDCHAR

STARTCHAR jisx0208_275A
ENCODING 10074
SWIDTH 960 0
DWIDTH 20 0
BBX 20 20 0 -2
BITMAP
000000
000000
000000
000000
000000
000000
060600
060E00
061600
061600
063600
066600
06C600
06C600
058600
070600
060600
000000
000000
000000
ENDCHAR

STARTCHAR jisx0208_275B
ENCODING 10075
SWIDTH 960 0
DWIDTH 20 0
BBX 20 20 0 -2
BITMAP
000000
000000
000000
000000
019800
00F000
060600
060E00
061600
061600
063600
066600
06C600
06C600
058600
070600
060600
000000
000000
000000
ENDCHAR

STARTCHAR jisx0208_275C
ENCODING 10076
SWIDTH 960 0
DWIDTH 20 0
BBX 20 20 0 -2
BITMAP
000000
000000
000000
000000
000000
000000
030E00
031800
031800
033000
03F000
031800
031800
030C00
030C00
030600
030600
000000
000000
000000
ENDCHAR

STARTCHAR jisx0208_275D
ENCODING 10077
SWIDTH 960 0
DWIDTH 20 0
BBX 20 20 0 -2
BITMAP
000000
000000
000000
000000
000000
000000
01FE00
018600
018600
018600
018600
018600
018600
018600
018600
018600
0F0600
000000
000000
000000
ENDCHAR

STARTCHAR jisx0208_275E
ENCODING 10078
SWIDTH 960 0
DWIDTH 20 0
BBX 20 20 0 -2
BITMAP
000000
000000
000000
000000
000000
000000
060300
070700
070700
058B00
058B00
058B00
06DB00
06DB00
067300
067300
067300
000000
000000
000000
ENDCHAR

STARTCHAR jisx0208_275F
ENCODING 10079
SWIDTH 960 0
DWIDTH 20 0
BBX 20 20 0 -2
BITMAP
000000
000000
000000
000000
000000
000000
060600
060600
060600
060600
060600
07FE00
060600
060600
060600
060600
060600
000000
000000
000000
ENDCHAR

STARTCHAR jisx0208_2760
ENCODING 10080
SWIDTH 960 0
DWIDTH 20 0
BBX 20 20 0 -2
BITMAP
000000
000000
000000
000000
000000
000000
01F000
071C00
060C00
0C0600
0C0600
0C0600
0C0600
0C0600
060C00
071C00
01F000
000000
000000
000000
ENDCHAR

STARTCHAR jisx0208_2761
ENCODING 10081
SWIDTH 960 0
DWIDTH 20 0
BBX 20 20 0 -2
BITMAP
000000
000000
000000
000000
000000
000000
07FE00
060600
060600
060600
060600
060600
060600
060600
060600
060600
060600
000000
000000
000000
ENDCHAR

STARTCHAR jisx0208_2762
ENCODING 10082
SWIDTH 960 0
DWIDTH 20 0
BBX 20 20 0 -2
BITMAP
000000
000000
000000
000000
000000
000000
02FC00
038600
030300
030300
030300
030300
030300
030300
038600
02FC00
030000
030000
030000
000000
ENDCHAR

STARTCHAR jisx0208_2763
ENCODING 10083
SWIDTH 960 0
DWIDTH 20 0
BBX 20 20 0 -2
BITMAP
000000
000000
000000
000000
000000
000000
00F800
038E00
030600
060300
060000
060000
060000
060300
030600
038E00
00F800
000000
000000
000000
ENDCHAR

STARTCHAR jisx0208_2764
ENCODING 10084
SWIDTH 960 0
DWIDTH 20 0
BBX 20 20 0 -2
BITMAP
000000
000000
000000
000000
000000
000000
07FE00
006000
006000
006000
006000
006000
006000
006000
006000
006000
006000
000000
000000
000000
ENDCHAR

STARTCHAR jisx0208_2765
ENCODING 10085
SWIDTH 960 0
DWIDTH 20 0
BBX 20 20 0 -2
BITMAP
000000
000000
000000
000000
000000
000000
060600
060600
030C00
030C00
019800
019800
00B000
00B000
006000
006000
00C000
00C000
078000
000000
ENDCHAR

STARTCHAR jisx0208_2766
ENCODING 10086
SWIDTH 960 0
DWIDTH 20 0
BBX 20 20 0 -2
BITMAP
000000
000000
006000
006000
006000
006000
075E00
0CF300
186180
186180
186180
186180
186180
186180
0CF300
075E00
006000
006000
006000
000000
ENDCHAR

STARTCHAR jisx0208_2767
ENCODING 10087
SWIDTH 960 0
DWIDTH 20 0
BBX 20 20 0 -2
BITMAP
000000
000000
000000
000000
000000
000000
060600
030C00
019800
019800
00B000
006000
00B000
019800
019800
030C00
060600
000000
000000
000000
ENDCHAR

STARTCHAR jisx0208_2768
ENCODING 10088
SWIDTH 960 0
DWIDTH 20 0
BBX 20 20 0 -2
BITMAP
000000
000000
000000
000000
000000
000000
030600
030600
030600
030600
030600
030600
030600
030600
030600
030600
03FF00
000300
000300
000000
ENDCHAR

STARTCHAR jisx0208_2769
ENCODING 10089
SWIDTH 960 0
DWIDTH 20 0
BBX 20 20 0 -2
BITMAP
000000
000000
000000
000000
000000
000000
030600
030600
030600
030600
030600
030600
01FE00
000600
000600
000600
000600
000000
000000
000000
ENDCHAR

STARTCHAR jisx0208_276A
ENCODING 10090
SWIDTH 960 0
DWIDTH 20 0
BBX 20 20 0 -2
BITMAP
000000
000000
000000
000000
000000
000000
0C6300
0C6300
0C6300
0C6300
0C6300
0C6300
0C6300
0C6300
0C6300
0C6300
0FFF00
000000
000000
000000
ENDCHAR

STARTCHAR jisx0208_276B
ENCODING 10091
SWIDTH 960 0
DWIDTH 20 0
BBX 20 20 0 -2
BITMAP
000000
000000
000000
000000
000000
000000
0C6300
0C6300
0C6300
0C6300
0C6300
0C6300
0C6300
0C6300
0C6300
0C6300
0FFF80
000180
000180
000000
ENDCHAR

STARTCHAR jisx0208_276C
ENCODING 10092
SWIDTH 960 0
DWIDTH 20 0
BBX 20 20 0 -2
BITMAP
000000
000000
000000
000000
000000
000000
078000
018000
018000
018000
01FC00
018600
018300
018300
018300
018600
01FC00
000000
000000
000000
ENDCHAR

STARTCHAR jisx0208_276D
ENCODING 10093
SWIDTH 960 0
DWIDTH 20 0
BBX 20 20 0 -2
BITMAP
000000
000000
000000
000000
000000
000000
0C0300
0C0300
0C0300
0C0300
0FE300
0C3300
0C1B00
0C1B00
0C1B00
0C3300
0FE300
000000
000000
000000
ENDCHAR

STARTCHAR jisx0208_276E
ENCODING 10094
SWIDTH 960 0
DWIDTH 20 0
BBX 20 20 0 -2
BITMAP
000000
000000
000000
000000
000000
000000
030000
030000
030000
030000
03F800
030C00
030600
030600
030600
030C00
03F800
000000
000000
000000
ENDCHAR

STARTCHAR jisx0208_276F
ENCODING 10095
SWIDTH 960 0
DWIDTH 20 0
BBX 20 20 0 -2
BITMAP
000000
000000
000000
000000
000000
000000
00F800
038E00
030600
060300
000300
00FF00
000300
060300
030600
038E00
00F800
000000
000000
000000
ENDCHAR

STARTCHAR jisx0208_2770
ENCODING 10096
SWIDTH 960 0
DWIDTH 20 0
BBX 20 20 0 -2
BITMAP
000000
000000
000000
000000
000000
000000
0C3E00
0C6300
0CC180
0CC180
0CC180
0FC180
0CC180
0CC180
0CC180
0C6300
0C3E00
000000
000000
000000
ENDCHAR

STARTCHAR jisx0208_2771
ENCODING 10097
SWIDTH 960 0
DWIDTH 20 0
BBX 20 20 0 -2
BITMAP
000000
000000
000000
000000
000000
000000
01FE00
030600
030600
030600
030600
01FE00
018600
030600
030600
060600
060600
000000
000000
000000
ENDCHAR

STARTCHAR jisx0208_2821
ENCODING 10273
SWIDTH 960 0
DWIDTH 20 0
BBX 20 20 0 -2
BITMAP
000000
000000
000000
000000
000000
000000
000000
000000
000000
FFFFF0
000000
000000
000000
000000
000000
000000
000000
000000
000000
000000
ENDCHAR

STARTCHAR jisx0208_2822
ENCODING 10274
SWIDTH 960 0
DWIDTH 20 0
BBX 20 20 0 -2
BITMAP
006000
006000
006000
006000
006000
006000
006000
006000
006000
006000
006000
006000
006000
006000
006000
006000
006000
006000
006000
006000
ENDCHAR

STARTCHAR jisx0208_2823
ENCODING 10275
SWIDTH 960 0
DWIDTH 20 0
BBX 20 20 0 -2
BITMAP
000000
000000
000000
000000
000000
000000
000000
000000
000000
007FF0
006000
006000
006000
006000
006000
006000
006000
006000
006000
006000
ENDCHAR

STARTCHAR jisx0208_2824
ENCODING 10276
SWIDTH 960 0
DWIDTH 20 0
BBX 20 20 0 -2
BITMAP
000000
000000
000000
000000
000000
000000
000000
000000
000000
FFE000
006000
006000
006000
006000
006000
006000
006000
006000
006000
006000
ENDCHAR

STARTCHAR jisx0208_2825
ENCODING 10277
SWIDTH 960 0
DWIDTH 20 0
BBX 20 20 0 -2
BITMAP
006000
006000
006000
006000
006000
006000
006000
006000
006000
FFE000
000000
000000
000000
000000
000000
000000
000000
000000
000000
000000
ENDCHAR

STARTCHAR jisx0208_2826
ENCODING 10278
SWIDTH 960 0
DWIDTH 20 0
BBX 20 20 0 -2
BITMAP
006000
006000
006000
006000
006000
006000
006000
006000
006000
007FF0
000000
000000
000000
000000
000000
000000
000000
000000
000000
000000
ENDCHAR

STARTCHAR jisx0208_2827
ENCODING 10279
SWIDTH 960 0
DWIDTH 20 0
BBX 20 20 0 -2
BITMAP
006000
006000
006000
006000
006000
006000
006000
006000
006000
007FF0
006000
006000
006000
006000
006000
006000
006000
006000
006000
006000
ENDCHAR

STARTCHAR jisx0208_2828
ENCODING 10280
SWIDTH 960 0
DWIDTH 20 0
BBX 20 20 0 -2
BITMAP
000000
000000
000000
000000
000000
000000
000000
000000
000000
FFFFF0
006000
006000
006000
006000
006000
006000
006000
006000
006000
006000
ENDCHAR

STARTCHAR jisx0208_2829
ENCODING 10281
SWIDTH 960 0
DWIDTH 20 0
BBX 20 20 0 -2
BITMAP
006000
006000
006000
006000
006000
006000
006000
006000
006000
FFE000
006000
006000
006000
006000
006000
006000
006000
006000
006000
006000
ENDCHAR

STARTCHAR jisx0208_282A
ENCODING 10282
SWIDTH 960 0
DWIDTH 20 0
BBX 20 20 0 -2
BITMAP
006000
006000
006000
006000
006000
006000
006000
006000
006000
FFFFF0
000000
000000
000000
000000
000000
000000
000000
000000
000000
000000
ENDCHAR

STARTCHAR jisx0208_282B
ENCODING 10283
SWIDTH 960 0
DWIDTH 20 0
BBX 20 20 0 -2
BITMAP
006000
006000
006000
006000
006000
006000
006000
006000
006000
FFFFF0
006000
006000
006000
006000
006000
006000
006000
006000
006000
006000
ENDCHAR

STARTCHAR jisx0208_282C
ENCODING 10284
SWIDTH 960 0
DWIDTH 20 0
BBX 20 20 0 -2
BITMAP
000000
000000
000000
000000
000000
000000
000000
000000
000000
FFFFF0
FFFFF0
000000
000000
000000
000000
000000
000000
000000
000000
000000
ENDCHAR

STARTCHAR jisx0208_282D
ENCODING 10285
SWIDTH 960 0
DWIDTH 20 0
BBX 20 20 0 -2
BITMAP
007000
007000
007000
007000
007000
007000
007000
007000
007000
007000
007000
007000
007000
007000
007000
007000
007000
007000
007000
007000
ENDCHAR

STARTCHAR jisx0208_282E
ENCODING 10286
SWIDTH 960 0
DWIDTH 20 0
BBX 20 20 0 -2
BITMAP
000000
000000
000000
000000
000000
000000
000000
000000
000000
007FF0
007FF0
007000
007000
007000
007000
007000
007000
007000
007000
007000
ENDCHAR

STARTCHAR jisx0208_282F
ENCODING 10287
SWIDTH 960 0
DWIDTH 20 0
BBX 20 20 0 -2
BITMAP
000000
000000
000000
000000
000000
000000
000000
000000
000000
FFF000
FFF000
007000
007000
007000
007000
007000
007000
007000
007000
007000
ENDCHAR

STARTCHAR jisx0208_2830
ENCODING 10288
SWIDTH 960 0
DWIDTH 20 0
BBX 20 20 0 -2
BITMAP
007000
007000
007000
007000
007000
007000
007000
007000
007000
FFF000
FFF000
000000
000000
000000
000000
000000
000000
000000
000000
000000
ENDCHAR

STARTCHAR jisx0208_2831
ENCODING 10289
SWIDTH 960 0
DWIDTH 20 0
BBX 20 20 0 -2
BITMAP
007000
007000
007000
007000
007000
007000
007000
007000
007000
007FF0
007FF0
000000
000000
000000
000000
000000
000000
000000
000000
000000
ENDCHAR

STARTCHAR jisx0208_2832
ENCODING 10290
SWIDTH 960 0
DWIDTH 20 0
BBX 20 20 0 -2
BITMAP
007000
007000
007000
007000
007000
007000
007000
007000
007000
007FF0
007FF0
007000
007000
007000
007000
007000
007000
007000
007000
007000
ENDCHAR

STARTCHAR jisx0208_2833
ENCODING 10291
SWIDTH 960 0
DWIDTH 20 0
BBX 20 20 0 -2
BITMAP
000000
000000
000000
000000
000000
000000
000000
000000
000000
FFFFF0
FFFFF0
007000
007000
007000
007000
007000
007000
007000
007000
007000
ENDCHAR

STARTCHAR jisx0208_2834
ENCODING 10292
SWIDTH 960 0
DWIDTH 20 0
BBX 20 20 0 -2
BITMAP
007000
007000
007000
007000
007000
007000
007000
007000
007000
FFF000
FFF000
007000
007000
007000
007000
007000
007000
007000
007000
007000
ENDCHAR

STARTCHAR jisx0208_2835
ENCODING 10293
SWIDTH 960 0
DWIDTH 20 0
BBX 20 20 0 -2
BITMAP
007000
007000
007000
007000
007000
007000
007000
007000
007000
FFFFF0
FFFFF0
000000
000000
000000
000000
000000
000000
000000
000000
000000
ENDCHAR

STARTCHAR jisx0208_2836
ENCODING 10294
SWIDTH 960 0
DWIDTH 20 0
BBX 20 20 0 -2
BITMAP
007000
007000
007000
007000
007000
007000
007000
007000
007000
FFFFF0
FFFFF0
007000
007000
007000
007000
007000
007000
007000
007000
007000
ENDCHAR

STARTCHAR jisx0208_2837
ENCODING 10295
SWIDTH 960 0
DWIDTH 20 0
BBX 20 20 0 -2
BITMAP
007000
007000
007000
007000
007000
007000
007000
007000
007000
007FF0
007000
007000
007000
007000
007000
007000
007000
007000
007000
007000
ENDCHAR

STARTCHAR jisx0208_2838
ENCODING 10296
SWIDTH 960 0
DWIDTH 20 0
BBX 20 20 0 -2
BITMAP
000000
000000
000000
000000
000000
000000
000000
000000
000000
FFFFF0
FFFFF0
006000
006000
006000
006000
006000
006000
006000
006000
006000
ENDCHAR

STARTCHAR jisx0208_2839
ENCODING 10297
SWIDTH 960 0
DWIDTH 20 0
BBX 20 20 0 -2
BITMAP
007000
007000
007000
007000
007000
007000
007000
007000
007000
FFF000
007000
007000
007000
007000
007000
007000
007000
007000
007000
007000
ENDCHAR

STARTCHAR jisx0208_283A
ENCODING 10298
SWIDTH 960 0
DWIDTH 20 0
BBX 20 20 0 -2
BITMAP
006000
006000
006000
006000
006000
006000
006000
006000
006000
FFFFF0
FFFFF0
000000
000000
000000
000000
000000
000000
000000
000000
000000
ENDCHAR

STARTCHAR jisx0208_283B
ENCODING 10299
SWIDTH 960 0
DWIDTH 20 0
BBX 20 20 0 -2
BITMAP
006000
006000
006000
006000
006000
006000
006000
006000
006000
FFFFF0
FFFFF0
006000
006000
006000
006000
006000
006000
006000
006000
006000
ENDCHAR

STARTCHAR jisx0208_283C
ENCODING 10300
SWIDTH 960 0
DWIDTH 20 0
BBX 20 20 0 -2
BITMAP
006000
006000
006000
006000
006000
006000
006000
006000
006000
007FF0
007FF0
006000
006000
006000
006000
006000
006000
006000
006000
006000
ENDCHAR

STARTCHAR jisx0208_283D
ENCODING 10301
SWIDTH 960 0
DWIDTH 20 0
BBX 20 20 0 -2
BITMAP
000000
000000
000000
000000
000000
000000
000000
000000
000000
FFFFF0
007000
007000
007000
007000
007000
007000
007000
007000
007000
007000
ENDCHAR

STARTCHAR jisx0208_283E
ENCODING 10302
SWIDTH 960 0
DWIDTH 20 0
BBX 20 20 0 -2
BITMAP
006000
006000
006000
006000
006000
006000
006000
006000
006000
FFE000
FFE000
006000
006000
006000
006000
006000
006000
006000
006000
006000
ENDCHAR

STARTCHAR jisx0208_283F
ENCODING 10303
SWIDTH 960 0
DWIDTH 20 0
BBX 20 20 0 -2
BITMAP
007000
007000
007000
007000
007000
007000
007000
007000
007000
FFFFF0
000000
000000
000000
000000
000000
000000
000000
000000
000000
000000
ENDCHAR

STARTCHAR jisx0208_2840
ENCODING 10304
SWIDTH 960 0
DWIDTH 20 0
BBX 20 20 0 -2
BITMAP
007000
007000
007000
007000
007000
007000
007000
007000
007000
FFFFF0
007000
007000
007000
007000
007000
007000
007000
007000
007000
007000
ENDCHAR

STARTCHAR jisx0208_2D21
ENCODING 11553
SWIDTH 960 0
DWIDTH 20 0
BBX 20 20 0 -2
BITMAP
000000
03F800
0E0E00
180300
306180
61E0C0
6060C0
C06060
C06060
C06060
C06060
C06060
C06060
6060C0
6060C0
306180
180300
0E0E00
03F800
000000
ENDCHAR

STARTCHAR jisx0208_2D22
ENCODING 11554
SWIDTH 960 0
DWIDTH 20 0
BBX 20 20 0 -2
BITMAP
000000
03F800
0E0E00
180300
31F180
6318C0
660CC0
C60C60
C00C60
C03860
C0E060
C18060
C30060
6600C0
6600C0
37FD80
180300
0E0E00
03F800
000000
ENDCHAR

STARTCHAR jisx0208_2D23
ENCODING 11555
SWIDTH 960 0
DWIDTH 20 0
BBX 20 20 0 -2
BITMAP
000000
03F800
0E0E00
180300
31F180
6318C0
660CC0
C60C60
C01860
C1F060
C01860
C00C60
C60C60
660CC0
6318C0
31F180
180300
0E0E00
03F800
000000
ENDCHAR

STARTCHAR jisx0208_2D24
ENCODING 11556
SWIDTH 960 0
DWIDTH 20 0
BBX 20 20 0 -2
BITMAP
000000
03F800
0E0E00
180300
303180
6070C0
60B0C0
C1B060
C33060
C33060
C63060
CC3060
DFFC60
6030C0
6030C0
303180
180300
0E0E00
03F800
000000
ENDCHAR

STARTCHAR jisx0208_2D25
ENCODING 11557
SWIDTH 960 0
DWIDTH 20 0
BBX 20 20 0 -2
BITMAP
000000
03F800
0E0E00
180300
37F980
6600C0
6600C0
C60060
C5F060
C71860
C60C60
C00C60
C00C60
660CC0
6318C0
31F180
180300
0E0E00
03F800
000000
ENDCHAR

STARTCHAR jisx0208_2D26
ENCODING 11558
SWIDTH 960 0
DWIDTH 20 0
BBX 20 20 0 -2
BITMAP
000000
03F800
0E0E00
180300
31F180
6318C0
660CC0
C60060
C5F060
C71860
C60C60
C60C60
C60C60
660CC0
6318C0
31F180
180300
0E0E00
03F800
000000
ENDCHAR

STARTCHAR jisx0208_2D27
ENCODING 11559
SWIDTH 960 0
DWIDTH 20 0
BBX 20 20 0 -2
BITMAP
000000
03F800
0E0E00
180300
37FD80
600CC0
6018C0
C01860
C03060
C03060
C06060
C06060
C06060
60C0C0
60C0C0
30C180
180300
0E0E00
03F800
000000
ENDCHAR

STARTCHAR jisx0208_2D28
ENCODING 11560
SWIDTH 960 0
DWIDTH 20 0
BBX 20 20 0 -2
BITMAP
000000
03F800
0E0E00
180300
31F180
6318C0
660CC0
C60C60
C31860
C1F060
C31860
C60C60
C60C60
660CC0
6318C0
31F180
180300
0E0E00
03F800
000000
ENDCHAR

STARTCHAR jisx0208_2D29
ENCODING 11561
SWIDTH 960 0
DWIDTH 20 0
BBX 20 20 0 -2
BITMAP
000000
03F800
0E0E00
180300
31F180
6318C0
660CC0
C60C60
C60C60
C60C60
C31C60
C1EC60
C00C60
660CC0
6318C0
31F180
180300
0E0E00
03F800
000000
ENDCHAR

STARTCHAR jisx0208_2D2A
ENCODING 11562
SWIDTH 960 0
DWIDTH 20 0
BBX 20 20 0 -2
BITMAP
000000
03F800
0E0E00
180300
363D80
5E66C0
66C2C0
C6C360
C6C360
C6C360
C6C360
C6C360
C6C360
66C2C0
6666C0
363D80
180300
0E0E00
03F800
000000
ENDCHAR

STARTCHAR jisx0208_2D2B
ENCODING 11563
SWIDTH 960 0
DWIDTH 20 0
BBX 20 20 0 -2
BITMAP
000000
03F800
0E0E00
180300
360D80
5E3CC0
660CC0
C60C60
C60C60
C60C60
C60C60
C60C60
C60C60
660CC0
660CC0
360D80
180300
0E0E00
03F800
000000
ENDCHAR

STARTCHAR jisx0208_2D2C
ENCODING 11564
SWIDTH 960 0
DWIDTH 20 0
BBX 20 20 0 -2
BITMAP
000000
03F800
0E0E00
180300
363D80
5E66C0
66C2C0
C6C360
C60360
C60660
C61C60
C63060
C66060
66C0C0
66C0C0
36FF80
180300
0E0E00
03F800
000000
ENDCHAR

STARTCHAR jisx0208_2D2D
ENCODING 11565
SWIDTH 960 0
DWIDTH 20 0
BBX 20 20 0 -2
BITMAP
000000
03F800
0E0E00
180300
363D80
5E66C0
66C2C0
C6C360
C60660
C63C60
C60660
C60360
C6C360
66C2C0
6666C0
363D80
180300
0E0E00
03F800
000000
ENDCHAR

STARTCHAR jisx0208_2D2E
ENCODING 11566
SWIDTH 960 0
DWIDTH 20 0
BBX 20 20 0 -2
BITMAP
000000
03F800
0E0E00
180300
360580
5E0EC0
6616C0
C61660
C63660
C66660
C66660
C6C660
C5FF60
6606C0
6606C0
360580
180300
0E0E00
03F800
000000
ENDCHAR

STARTCHAR jisx0208_2D2F
ENCODING 11567
SWIDTH 960 0
DWIDTH 20 0
BBX 20 20 0 -2
BITMAP
000000
03F800
0E0E00
180300
36FD80
5EC0C0
66C0C0
C6C060
C6BC60
C6E660
C6C360
C60360
C60360
66C2C0
6666C0
363D80
180300
0E0E00
03F800
000000
ENDCHAR

STARTCHAR jisx0208_2D30
ENCODING 11568
SWIDTH 960 0
DWIDTH 20 0
BBX 20 20 0 -2
BITMAP
000000
03F800
0E0E00
180300
363D80
5E66C0
66C2C0
C6C060
C6BC60
C6E660
C6C360
C6C360
C6C360
66C2C0
6666C0
363D80
180300
0E0E00
03F800
000000
ENDCHAR

STARTCHAR jisx0208_2D31
ENCODING 11569
SWIDTH 960 0
DWIDTH 20 0
BBX 20 20 0 -2
BITMAP
000000
03F800
0E0E00
180300
36FF80
5E02C0
6606C0
C60660
C60C60
C60C60
C60C60
C61860
C61860
6618C0
6618C0
361980
180300
0E0E00
03F800
000000
ENDCHAR

STARTCHAR jisx0208_2D32
ENCODING 11570
SWIDTH 960 0
DWIDTH 20 0
BBX 20 20 0 -2
BITMAP
000000
03F800
0E0E00
180300
363D80
5E66C0
66C2C0
C6C360
C66660
C63C60
C66660
C6C360
C6C360
66C2C0
6666C0
363D80
180300
0E0E00
03F800
000000
ENDCHAR

STARTCHAR jisx0208_2D33
ENCODING 11571
SWIDTH 960 0
DWIDTH 20 0
BBX 20 20 0 -2
BITMAP
000000
03F800
0E0E00
180300
363D80
5E66C0
66C2C0
C6C360
C6C360
C6C360
C66760
C63B60
C60360
66C2C0
6666C0
363D80
180300
0E0E00
03F800
000000
ENDCHAR

STARTCHAR jisx0208_2D34
ENCODING 11572
SWIDTH 960 0
DWIDTH 20 0
BBX 20 20 0 -2
BITMAP
000000
03F800
0E0E00
180300
379D80
6CB2C0
6CB2C0
CCB360
C0B360
C0B360
C1B360
C33360
C63360
6C32C0
6C32C0
2FDD80
180300
0E0E00
03F800
000000
ENDCHAR

STARTCHAR jisx0208_2D35
ENCODING 11573
SWIDTH 960 0
DWIDTH 20 0
BBX 20 20 0 -2
BITMAP
000000
000000
00C000
00C000
00C000
00C000
00C000
00C000
00C000
00C000
00C000
00C000
00C000
00C000
00C000
00C000
00C000
000000
000000
000000
ENDCHAR

STARTCHAR jisx0208_2D36
ENCODING 11574
SWIDTH 960 0
DWIDTH 20 0
BBX 20 20 0 -2
BITMAP
000000
000000
061800
061800
061800
061800
061800
061800
061800
061800
061800
061800
061800
061800
061800
061800
061800
000000
000000
000000
ENDCHAR

STARTCHAR jisx0208_2D37
ENCODING 11575
SWIDTH 960 0
DWIDTH 20 0
BBX 20 20 0 -2
BITMAP
000000
000000
30C300
30C300
30C300
30C300
30C300
30C300
30C300
30C300
30C300
30C300
30C300
30C300
30C300
30C300
30C300
000000
000000
000000
ENDCHAR

STARTCHAR jisx0208_2D38
ENCODING 11576
SWIDTH 960 0
DWIDTH 20 0
BBX 20 20 0 -2
BITMAP
000000
000000
3300C0
3300C0
318180
318180
318180
30C300
30C300
30C300
306600
306600
306600
302C00
302C00
301800
301800
000000
000000
000000
ENDCHAR

STARTCHAR jisx0208_2D39
ENCODING 11577
SWIDTH 960 0
DWIDTH 20 0
BBX 20 20 0 -2
BITMAP
000000
000000
300300
300300
180600
180600
0C0C00
0C0C00
061800
061800
061800
033000
033000
016000
016000
00C000
00C000
000000
000000
000000
ENDCHAR

STARTCHAR jisx0208_2D3A
ENCODING 11578
SWIDTH 960 0
DWIDTH 20 0
BBX 20 20 0 -2
BITMAP
000000
000000
601980
601980
303180
303180
303180
186180
186180
186180
0CC180
0CC180
0CC180
058180
058180
030180
030180
000000
000000
000000
ENDCHAR

STARTCHAR jisx0208_2D3B
ENCODING 11579
SWIDTH 960 0
DWIDTH 20 0
BBX 20 20 0 -2
BITMAP
000000
000000
606CC0
606CC0
606CC0
30CCC0
30CCC0
30CCC0
30CCC0
198CC0
198CC0
198CC0
0B0CC0
0B0CC0
0B0CC0
060CC0
060CC0
000000
000000
000000
ENDCHAR

STARTCHAR jisx0208_2D3C
ENCODING 11580
SWIDTH 960 0
DWIDTH 20 0
BBX 20 20 0 -2
BITMAP
000000
000000
C0B6C0
C0B6C0
C0B6C0
61B6C0
61B6C0
61B6C0
3336C0
3336C0
3336C0
1636C0
1636C0
1636C0
0C36C0
0C36C0
0C36C0
000000
000000
000000
ENDCHAR

STARTCHAR jisx0208_2D3D
ENCODING 11581
SWIDTH 960 0
DWIDTH 20 0
BBX 20 20 0 -2
BITMAP
000000
000000
330180
318300
318300
30C600
306C00
306C00
303800
303800
303800
306C00
306C00
30C600
318300
318300
330180
000000
000000
000000
ENDCHAR

STARTCHAR jisx0208_2D3E
ENCODING 11582
SWIDTH 960 0
DWIDTH 20 0
BBX 20 20 0 -2
BITMAP
000000
000000
180600
0C0C00
061800
061800
033000
016000
016000
00C000
016000
033000
033000
061800
0C0C00
0C0C00
180600
000000
000000
000000
ENDCHAR

STARTCHAR jisx0208_2D40
ENCODING 11584
SWIDTH 960 0
DWIDTH 20 0
BBX 20 20 0 -2
BITMAP
000000
3C0000
070000
000000
3C0000
070000
000000
780000
0E0000
038000
0018C0
0018C0
0018C0
0018C0
0018C0
0018C0
0000C0
000180
000700
000000
ENDCHAR

STARTCHAR jisx0208_2D41
ENCODING 11585
SWIDTH 960 0
DWIDTH 20 0
BBX 20 20 0 -2
BITMAP
000000
0C0000
0C0000
7F8000
060000
060000
7FC000
060000
060000
060000
000000
003FC0
0030C0
0030C0
0030C0
0030C0
003FC0
0030C0
000000
000000
ENDCHAR

STARTCHAR jisx0208_2D42
ENCODING 11586
SWIDTH 960 0
DWIDTH 20 0
BBX 20 20 0 -2
BITMAP
000000
300000
301800
3FCC00
F18060
3300C0
360180
300300
1F9E00
000000
070000
7C0000
0C0000
0C0000
FF8000
0C0000
0C0000
180000
700000
000000
ENDCHAR

STARTCHAR jisx0208_2D43
ENCODING 11587
SWIDTH 960 0
DWIDTH 20 0
BBX 20 20 0 -2
BITMAP
000000
018000
018000
3B0000
0E0000
0E3FC0
1B0000
318000
E00000
000000
300300
301B00
301B00
3C1B00
371B00
301B60
301AC0
303380
306300
000000
ENDCHAR

STARTCHAR jisx0208_2D44
ENCODING 11588
SWIDTH 960 0
DWIDTH 20 0
BBX 20 20 0 -2
BITMAP
000000
1ADF80
1AC000
3F0000
633FC0
C300C0
0600C0
0C0180
180300
700E00
000000
0C0000
0C0000
180000
1B0000
318000
318000
66C000
FCC000
000000
ENDCHAR

STARTCHAR jisx0208_2D45
ENCODING 11589
SWIDTH 960 0
DWIDTH 20 0
BBX 20 20 0 -2
BITMAP
000000
300000
300000
300000
3C0000
370000
300000
300000
300000
300000
003000
001800
000060
0000C0
000180
000300
000600
003C00
000000
000000
ENDCHAR

STARTCHAR jisx0208_2D46
ENCODING 11590
SWIDTH 960 0
DWIDTH 20 0
BBX 20 20 0 -2
BITMAP
000000
000000
FF8000
018000
1B0000
163FC0
180000
180000
300000
600000
060000
360000
360000
360000
360000
36C000
358000
670000
C60000
000000
ENDCHAR

STARTCHAR jisx0208_2D47
ENCODING 11591
SWIDTH 960 0
DWIDTH 20 0
BBX 20 20 0 -2
BITMAP
000000
000600
000600
180FC0
2C18C0
6630C0
C30180
018300
00C600
001C00
180300
180B00
3F0B00
630B00
C30B00
16EB60
0C0AC0
161B80
703300
000000
ENDCHAR

STARTCHAR jisx0208_2D48
ENCODING 11592
SWIDTH 960 0
DWIDTH 20 0
BBX 20 20 0 -2
BITMAP
000000
630000
630000
632C00
632D80
632D80
030300
060600
1C1C00
000000
300300
301B00
301B00
3C1B00
371B00
301B60
301AC0
303380
306300
000000
ENDCHAR

STARTCHAR jisx0208_2D49
ENCODING 11593
SWIDTH 960 0
DWIDTH 20 0
BBX 20 20 0 -2
BITMAP
000000
7F8000
618000
619600
6196C0
6196C0
030180
060300
1C0E00
000000
180000
180000
180000
1E0000
1B8000
180000
180000
180000
180000
000000
ENDCHAR

STARTCHAR jisx0208_2D4A
ENCODING 11594
SWIDTH 960 0
DWIDTH 20 0
BBX 20 20 0 -2
BITMAP
000000
180000
FFBFC0
19B0C0
19B0C0
31B0C0
31B0C0
61BFC0
CF30C0
000000
000000
630000
630000
630000
633FC0
630000
030000
060000
1C0000
000000
ENDCHAR

STARTCHAR jisx0208_2D4B
ENCODING 11595
SWIDTH 960 0
DWIDTH 20 0
BBX 20 20 0 -2
BITMAP
000000
358000
358000
300000
3C0000
370000
300000
300000
300000
300000
000300
001B00
001B00
001B00
001B00
001B60
001AC0
003380
006300
000000
ENDCHAR

STARTCHAR jisx0208_2D4C
ENCODING 11596
SWIDTH 960 0
DWIDTH 20 0
BBX 20 20 0 -2
BITMAP
000000
300000
301800
3FCC00
F18060
3300C0
360180
300300
1F9E00
000000
180000
180000
180000
1E0000
1B8000
180000
180000
180000
180000
000000
ENDCHAR

STARTCHAR jisx0208_2D4D
ENCODING 11597
SWIDTH 960 0
DWIDTH 20 0
BBX 20 20 0 -2
BITMAP
000000
00C000
356000
32C000
330000
61BFC0
618000
C18000
000000
000000
600300
618300
7EDB00
E61BC0
6C1B60
583300
603300
606300
3DC300
000000
ENDCHAR

STARTCHAR jisx0208_2D4E
ENCODING 11598
SWIDTH 960 0
DWIDTH 20 0
BBX 20 20 0 -2
BITMAP
000000
3C18C0
0618C0
0018C0
3C18C0
0618C0
0000C0
7C0180
070700
000000
02C300
2ACB00
2C0B00
360B00
35EB00
630B60
630AC0
C31B80
003300
000000
ENDCHAR

STARTCHAR jisx0208_2D4F
ENCODING 11599
SWIDTH 960 0
DWIDTH 20 0
BBX 20 20 0 -2
BITMAP
000000
030000
058000
1B0000
2C0000
663FC0
C30000
018000
00C000
000000
02C000
62C000
300000
C00000
618000
030000
060000
0C0000
780000
000000
ENDCHAR

STARTCHAR jisx0208_2D50
ENCODING 11600
SWIDTH 960 0
DWIDTH 20 0
BBX 20 20 0 -2
BITMAP
000000
000000
000000
000000
000000
000000
EF7780
D96CC0
D96CC0
D96CC0
D96CC0
D96CC0
D96CC0
D96CC0
D96CC0
D96CC0
D96CC0
000000
000000
000000
ENDCHAR

STARTCHAR jisx0208_2D51
ENCODING 11601
SWIDTH 960 0
DWIDTH 20 0
BBX 20 20 0 -2
BITMAP
000000
000000
000000
000000
000000
000000
1E5DC0
337760
616660
616660
606660
606660
606660
616660
616660
336660
1E6660
000000
000000
000000
ENDCHAR

STARTCHAR jisx0208_2D52
ENCODING 11602
SWIDTH 960 0
DWIDTH 20 0
BBX 20 20 0 -2
BITMAP
000000
000000
600000
600000
600000
600000
615DC0
637760
666660
6C6660
5C6660
766660
666660
636660
636660
616660
616660
000000
000000
000000
ENDCHAR

STARTCHAR jisx0208_2D53
ENCODING 11603
SWIDTH 960 0
DWIDTH 20 0
BBX 20 20 0 -2
BITMAP
000000
000000
000000
000000
000000
000000
BB8EC0
EED9C0
CCB0C0
CCB0C0
CCB0C0
CCB0C0
CCD9C0
CCCEC0
CCC0C0
CCB0C0
CCB0C0
001980
000F00
000000
ENDCHAR

STARTCHAR jisx0208_2D54
ENCODING 11604
SWIDTH 960 0
DWIDTH 20 0
BBX 20 20 0 -2
BITMAP
000000
000000
600000
600000
600000
600000
618EC0
6319C0
6630C0
6C30C0
5C30C0
7630C0
6619C0
630EC0
6300C0
61B0C0
61B0C0
001980
000F00
000000
ENDCHAR

STARTCHAR jisx0208_2D55
ENCODING 11605
SWIDTH 960 0
DWIDTH 20 0
BBX 20 20 0 -2
BITMAP
000000
000000
000000
000000
000000
000000
1E0F00
331980
61B0C0
61B0C0
603000
603000
603000
61B0C0
61B0C0
331980
1E0F00
000000
000000
000000
ENDCHAR

STARTCHAR jisx0208_2D56
ENCODING 11606
SWIDTH 960 0
DWIDTH 20 0
BBX 20 20 0 -2
BITMAP
000000
000380
0006C0
000180
000300
0007C0
2FBE00
38E300
30C300
30C300
30C300
30C300
30C300
30C300
30C300
30C300
30C300
000000
000000
000000
ENDCHAR

STARTCHAR jisx0208_2D5F
ENCODING 11615
SWIDTH 960 0
DWIDTH 20 0
BBX 20 20 0 -2
BITMAP
000000
0002C0
FFC360
0C0300
0C7FE0
6D6300
6D6300
2D62C0
2B62C0
2B7AC0
0C6AC0
FFEAC0
0C6B80
0C6B80
0C6B00
0CBB60
0CC560
0CCCE0
0D9860
000000
ENDCHAR

STARTCHAR jisx0208_2D60
ENCODING 11616
SWIDTH 960 0
DWIDTH 20 0
BBX 20 20 0 -2
BITMAP
000000
0006C0
0006C0
000D80
000D80
001B00
000000
000000
000000
000000
000000
000000
000000
000000
000000
000000
000000
000000
000000
000000
ENDCHAR

STARTCHAR jisx0208_2D61
ENCODING 11617
SWIDTH 960 0
DWIDTH 20 0
BBX 20 20 0 -2
BITMAP
000000
000000
000000
000000
000000
000000
000000
000000
000000
000000
000000
000000
000000
000000
1B0000
1B0000
360000
360000
6C0000
000000
ENDCHAR

STARTCHAR jisx0208_2D62
ENCODING 11618
SWIDTH 960 0
DWIDTH 20 0
BBX 20 20 0 -2
BITMAP
000000
000000
C18000
E18000
E18000
B18000
B19E00
D9B300
D96180
CD6180
CD6180
C56180
C56180
C36180
C36180
C1B2E0
C19EE0
000000
000000
000000
ENDCHAR

STARTCHAR jisx0208_2D63
ENCODING 11619
SWIDTH 960 0
DWIDTH 20 0
BBX 20 20 0 -2
BITMAP
000000
000000
633180
663300
663300
6C3600
582C00
582C00
703800
783C00
582C00
6C3600
6C3600
663300
663300
62B160
62B160
000000
000000
000000
ENDCHAR

STARTCHAR jisx0208_2D64
ENCODING 11620
SWIDTH 960 0
DWIDTH 20 0
BBX 20 20 0 -2
BITMAP
000000
000000
FDF600
318600
318600
318600
318600
318600
31F600
318600
318600
318600
318600
318600
318600
318600
31F7E0
000000
000000
000000
ENDCHAR

STARTCHAR jisx0208_2D65
ENCODING 11621
SWIDTH 960 0
DWIDTH 20 0
BBX 20 20 0 -2
BITMAP
000000
03F800
0E0E00
180300
30C180
60C0C0
60C0C0
C0C060
C0FE60
C0C060
C0C060
C0C060
C0C060
60C0C0
5FFEC0
300180
180300
0E0E00
03F800
000000
ENDCHAR

STARTCHAR jisx0208_2D66
ENCODING 11622
SWIDTH 960 0
DWIDTH 20 0
BBX 20 20 0 -2
BITMAP
000000
03F800
0E0E00
180300
30C180
60C0C0
5FFEC0
D8C660
D8C660
D8C660
D8C660
DFFE60
D8C660
60C0C0
60C0C0
30C180
180300
0E0E00
03F800
000000
ENDCHAR

STARTCHAR jisx0208_2D67
ENCODING 11623
SWIDTH 960 0
DWIDTH 20 0
BBX 20 20 0 -2
BITMAP
000000
03F800
0E0E00
180300
300180
5FFEC0
60C0C0
C0C060
C0F060
C0D860
C0CC60
C0C060
C0C060
60C0C0
60C0C0
30C180
180300
0E0E00
03F800
000000
ENDCHAR

STARTCHAR jisx0208_2D68
ENCODING 11624
SWIDTH 960 0
DWIDTH 20 0
BBX 20 20 0 -2
BITMAP
000000
03F800
0E0E00
198300
318180
5FFEC0
6180C0
C30060
C30060
C7FE60
C66060
CC6060
D86060
6060C0
6FFEC0
300180
180300
0E0E00
03F800
000000
ENDCHAR

STARTCHAR jisx0208_2D69
ENCODING 11625
SWIDTH 960 0
DWIDTH 20 0
BBX 20 20 0 -2
BITMAP
000000
03F800
0E0E00
198300
318180
5FFEC0
6180C0
C30060
C30060
C7FE60
C70660
CB0660
DB0660
6306C0
63FEC0
330580
180300
0E0E00
03F800
000000
ENDCHAR

STARTCHAR jisx0208_2D6A
ENCODING 11626
SWIDTH 960 0
DWIDTH 20 0
BBX 20 20 0 -2
BITMAP
000000
300180
6618C0
6658C0
C65860
DF7F60
C6D860
C6D860
CE1860
CEFF60
D59860
D63C60
B65660
C65660
C6DB60
C59960
6618C0
6618C0
300180
000000
ENDCHAR

STARTCHAR jisx0208_2D6B
ENCODING 11627
SWIDTH 960 0
DWIDTH 20 0
BBX 20 20 0 -2
BITMAP
000000
300180
6180C0
6180C0
DFFF60
C30060
C30060
C7FC60
C70C60
CB0C60
DBFC60
B30C60
C30C60
C3FC60
C30C60
C30C60
630CC0
633CC0
300180
000000
ENDCHAR

STARTCHAR jisx0208_2D6C
ENCODING 11628
SWIDTH 960 0
DWIDTH 20 0
BBX 20 20 0 -2
BITMAP
000000
300180
6330C0
632CC0
C63660
C63060
CE3060
CE3F60
D5F060
D63060
B63060
C63060
C61860
C61B60
C60B60
C60B60
6606C0
6000C0
300180
000000
ENDCHAR

STARTCHAR jisx0208_2D6D
ENCODING 11629
SWIDTH 960 0
DWIDTH 20 0
BBX 20 20 0 -2
BITMAP
000000
000000
0F8600
ED6600
ADB580
AD8CC0
AD8CC0
AFCDE0
ED5F60
AD8060
ADB000
AFAFC0
ADACC0
EDACC0
CDACC0
0D6CC0
196CC0
196FC0
37CCC0
000000
ENDCHAR

STARTCHAR jisx0208_2D6E
ENCODING 11630
SWIDTH 960 0
DWIDTH 20 0
BBX 20 20 0 -2
BITMAP
000000
000000
0C0000
0C7FE0
0C0600
0C0600
FFC600
0C0600
0C0600
0C3600
0C37C0
163600
163600
163600
333600
333600
61B600
61B600
C0FFE0
000000
ENDCHAR

STARTCHAR jisx0208_2D6F
ENCODING 11631
SWIDTH 960 0
DWIDTH 20 0
BBX 20 20 0 -2
BITMAP
000000
000000
1F8E00
ED7BE0
AD9B60
AD9B60
AD9B60
AD7F60
F99B60
B71B60
B03B60
AFB760
AD5B60
AD5B60
EDDB60
CD9B60
CD9BE0
0F9B60
0D9B60
000000
ENDCHAR

STARTCHAR jisx0208_2D70
ENCODING 11632
SWIDTH 960 0
DWIDTH 20 0
BBX 20 20 0 -2
BITMAP
000000
000000
000000
070000
070000
000000
000000
3FFF80
000000
000000
000000
3FFF80
000000
000000
001C00
001C00
000000
000000
000000
000000
ENDCHAR

STARTCHAR jisx0208_2D71
ENCODING 11633
SWIDTH 960 0
DWIDTH 20 0
BBX 20 20 0 -2
BITMAP
000000
000000
000000
000000
000000
3FFF80
000000
000000
000000
3FFF80
000000
000000
000000
3FFF80
000000
000000
000000
000000
000000
000000
ENDCHAR

STARTCHAR jisx0208_2D72
ENCODING 11634
SWIDTH 960 0
DWIDTH 20 0
BBX 20 20 0 -2
BITMAP
000000
00F000
019800
019800
018000
018000
018000
00C000
00C000
00C000
00C000
00C000
00C000
006000
006000
006000
066000
066000
03C000
000000
ENDCHAR

STARTCHAR jisx0208_2D73
ENCODING 11635
SWIDTH 960 0
DWIDTH 20 0
BBX 20 20 0 -2
BITMAP
000000
00F000
019800
019800
018000
018000
01E000
02B000
06D800
06D800
06D800
02B000
01E000
006000
006000
006000
066000
066000
03C000
000000
ENDCHAR

STARTCHAR jisx0208_2D74
ENCODING 11636
SWIDTH 960 0
DWIDTH 20 0
BBX 20 20 0 -2
BITMAP
000000
000000
1FFE00
0C0000
060000
030000
018000
00C000
006000
006000
00C000
018000
030000
060000
0C0000
180000
1FFE00
000000
000000
000000
ENDCHAR

STARTCHAR jisx0208_2D75
ENCODING 11637
SWIDTH 960 0
DWIDTH 20 0
BBX 20 20 0 -2
BITMAP
000000
003FE0
003000
006000
006000
006000
00C000
00C000
00C000
018000
018000
198000
3B0000
6B0000
CB0000
060000
060000
000000
000000
000000
ENDCHAR

STARTCHAR jisx0208_2D76
ENCODING 11638
SWIDTH 960 0
DWIDTH 20 0
BBX 20 20 0 -2
BITMAP
000000
000000
000000
00C000
00C000
00C000
00C000
00C000
00C000
00C000
00C000
00C000
00C000
00C000
00C000
3FFF00
000000
000000
000000
000000
ENDCHAR

STARTCHAR jisx0208_2D77
ENCODING 11639
SWIDTH 960 0
DWIDTH 20 0
BBX 20 20 0 -2
BITMAP
000000
000000
000000
000300
000600
000C00
001800
003000
006000
00C000
018000
030000
060000
0C0000
180000
3FFF00
000000
000000
000000
000000
ENDCHAR

STARTCHAR jisx0208_2D78
ENCODING 11640
SWIDTH 960 0
DWIDTH 20 0
BBX 20 20 0 -2
BITMAP
000000
000000
000000
180000
180000
180000
180000
180000
180000
180000
180000
180000
180000
180000
180000
1FFF80
000000
000000
000000
000000
ENDCHAR

STARTCHAR jisx0208_2D79
ENCODING 11641
SWIDTH 960 0
DWIDTH 20 0
BBX 20 20 0 -2
BITMAP
000000
000000
000000
000300
000700
000B00
001B00
003300
006300
00C300
018300
030300
060300
0C0300
180300
3FFF00
000000
000000
000000
000000
ENDCHAR

STARTCHAR jisx0208_2D7A
ENCODING 11642
SWIDTH 960 0
DWIDTH 20 0
BBX 20 20 0 -2
BITMAP
000000
000000
000000
000000
380380
380380
000000
000000
000000
000000
000000
000000
000000
000000
00E000
00E000
000000
000000
000000
000000
ENDCHAR

STARTCHAR jisx0208_2D7B
ENCODING 11643
SWIDTH 960 0
DWIDTH 20 0
BBX 20 20 0 -2
BITMAP
000000
000000
000000
03F000
0E1C00
0C0C00
180600
180600
180600
180600
180600
180600
180600
180600
180600
180600
180600
000000
000000
000000
ENDCHAR

STARTCHAR jisx0208_2D7C
ENCODING 11644
SWIDTH 960 0
DWIDTH 20 0
BBX 20 20 0 -2
BITMAP
000000
000000
000000
180600
180600
180600
180600
180600
180600
180600
180600
180600
180600
180600
0C0C00
0E1C00
03F000
000000
000000
000000
ENDCHAR

STARTCHAR jisx0208_3021
ENCODING 12321
SWIDTH 960 0
DWIDTH 20 0
BBX 20 20 0 -2
BITMAP
000000
000000
7FFFF0
018C00
018C00
018C00
018C00
1FFFC0
198CC0
198CC0
198CC0
198CC0
1FFFC0
198CC0
018C00
018C00
018C00
018C00
7FFFF0
000000
ENDCHAR

STARTCHAR jisx0208_3022
ENCODING 12322
SWIDTH 960 0
DWIDTH 20 0
BBX 20 20 0 -2
BITMAP
000000
000000
01FFF0
7E1B00
661B00
661B00
661B00
66FFE0
66DB60
66DB60
66DB60
66DB60
66FFE0
7EDB60
601B00
601B00
001B00
001B00
03FFF0
000000
ENDCHAR

STARTCHAR jisx0208_3023
ENCODING 12323
SWIDTH 960 0
DWIDTH 20 0
BBX 20 20 0 -2
BITMAP
000000
180600
180600
180600
187FE0
7F0600
1B0600
1B0600
32FFF0
330000
330600
360600
660600
767FE0
6E0600
0B0600
198600
300600
60FFF0
000000
ENDCHAR

STARTCHAR jisx0208_3024
ENCODING 12324
SWIDTH 960 0
DWIDTH 20 0
BBX 20 20 0 -2
BITMAP
000000
000000
7DFFF0
6600C0
6600C0
6C00C0
6CFCC0
58CCC0
58CCC0
6CCCC0
6CCCC0
66CCC0
66FCC0
66CCC0
5CC0C0
6000C0
6000C0
6000C0
6007C0
000000
ENDCHAR

STARTCHAR jisx0208_3025
ENCODING 12325
SWIDTH 960 0
DWIDTH 20 0
BBX 20 20 0 -2
BITMAP
000000
006000
006000
7FFFE0
000000
000000
0FFF00
0C0300
0C0300
0C0300
0FFF00
00B0C0
01B180
071B00
1B1600
730C00
037600
03C380
1E00E0
000000
ENDCHAR

STARTCHAR jisx0208_3026
ENCODING 12326
SWIDTH 960 0
DWIDTH 20 0
BBX 20 20 0 -2
BITMAP
000000
000000
000FC0
3FF980
0CC300
066600
7FFFF0
606030
6B31B0
0B06C0
19FEC0
00C000
018000
03FE00
0D8600
38CC00
007800
03CF00
7E01F0
000000
ENDCHAR

STARTCHAR jisx0208_3027
ENCODING 12327
SWIDTH 960 0
DWIDTH 20 0
BBX 20 20 0 -2
BITMAP
000000
0C0C00
0C0CC0
0C1860
0C19F0
7EFF30
0C1800
0C1800
0C3FE0
0B3600
1E6600
6C0600
0CFFF0
0C0600
0C0B00
0C0B00
0C1980
0C30C0
3CE070
000000
ENDCHAR

STARTCHAR jisx0208_3028
ENCODING 12328
SWIDTH 960 0
DWIDTH 20 0
BBX 20 20 0 -2
BITMAP
000000
180E00
180B00
181B00
181980
7F3180
1B30C0
1B60C0
32BF60
338030
330000
360000
667FC0
7660C0
6E60C0
0B60C0
1960C0
307FC0
6060C0
000000
ENDCHAR

STARTCHAR jisx0208_3029
ENCODING 12329
SWIDTH 960 0
DWIDTH 20 0
BBX 20 20 0 -2
BITMAP
000000
003000
303000
187F80
0CE300
03B600
001C00
003700
00EDC0
7B8C70
0CFFC0
0C0C00
0C7F80
0C0C00
0DFFE0
0C0C00
0C0C00
170000
71FFF0
000000
ENDCHAR

STARTCHAR jisx0208_302A
ENCODING 12330
SWIDTH 960 0
DWIDTH 20 0
BBX 20 20 0 -2
BITMAP
000000
030C00
7FFFE0
030C00
000000
3FDB00
00D600
0D8CC0
070580
060300
1BFD80
7060E0
006000
1FFF80
00B000
019800
030C00
0E0700
7801E0
000000
ENDCHAR

STARTCHAR jisx0208_302B
ENCODING 12331
SWIDTH 960 0
DWIDTH 20 0
BBX 20 20 0 -2
BITMAP
000000
030C00
030C00
7FFFF0
030C00
030C00
000000
7FFFF0
019800
019800
1FFFC0
1998C0
1998C0
1B1AC0
161EC0
1800C0
1800C0
1FFFC0
1800C0
000000
ENDCHAR

STARTCHAR jisx0208_302C
ENCODING 12332
SWIDTH 960 0
DWIDTH 20 0
BBX 20 20 0 -2
BITMAP
000000
006000
077E00
7CC600
0DFFC0
0CCCC0
7EFFC0
0CCCC0
0CFFC0
1E0C00
1BFFE0
2D8C60
2DFFE0
6D8C60
6DFFE0
0D8C00
0D8C30
0C0C30
0C07F0
000000
ENDCHAR

STARTCHAR jisx0208_302D
ENCODING 12333
SWIDTH 960 0
DWIDTH 20 0
BBX 20 20 0 -2
BITMAP
000000
000000
7FFFF0
018C00
018C00
1FFFC0
198CC0
198CC0
1FFFC0
018C00
018C00
7FFFF0
000000
003000
1B18C0
1B1860
330330
330330
61FF00
000000
ENDCHAR

STARTCHAR jisx0208_302E
ENCODING 12334
SWIDTH 960 0
DWIDTH 20 0
BBX 20 20 0 -2
BITMAP
000000
180000
19FFE0
198060
198060
7DFFE0
198000
19FFE0
198C00
1D8D80
7998C0
197F60
198600
198600
197FE0
1B0600
1B0600
160600
78FFF0
000000
ENDCHAR

STARTCHAR jisx0208_302F
ENCODING 12335
SWIDTH 960 0
DWIDTH 20 0
BBX 20 20 0 -2
BITMAP
000000
300000
19FFE0
0D8060
018060
61FFE0
318000
19FFF0
018C00
018D80
0198C0
0D7F60
0D8600
1B0600
1B7FE0
330600
360600
660600
6CFFF0
000000
ENDCHAR

STARTCHAR jisx0208_3030
ENCODING 12336
SWIDTH 960 0
DWIDTH 20 0
BBX 20 20 0 -2
BITMAP
000000
0C0000
0C0000
0C1FC0
0C18C0
7F98C0
0D98C0
0D98C0
0D9FC0
0D98C0
0D98C0
0D98C0
1998C0
1998C0
199FC0
199830
318030
318030
60FFF0
000000
ENDCHAR

STARTCHAR jisx0208_3031
ENCODING 12337
SWIDTH 960 0
DWIDTH 20 0
BBX 20 20 0 -2
BITMAP
000000
030C00
7FFFF0
030C00
00C000
1FFF00
018300
7FFFF0
000000
0FFF80
0C0180
0FFF80
003000
0FFFC0
0C3000
0C3000
7FFFF0
003000
003000
000000
ENDCHAR

STARTCHAR jisx0208_3032
ENCODING 12338
SWIDTH 960 0
DWIDTH 20 0
BBX 20 20 0 -2
BITMAP
000000
018C00
018C00
7FFFF0
018C00
000000
3FFFE0
000000
000000
0FFF80
0C0180
0C0180
0C0180
0FFF80
0C0180
180180
180000
300000
600000
000000
ENDCHAR

STARTCHAR jisx0208_3033
ENCODING 12339
SWIDTH 960 0
DWIDTH 20 0
BBX 20 20 0 -2
BITMAP
000000
180C00
1E0D80
1618C0
367F60
2C0660
7F0600
2B0C00
2B7FF0
3F1980
2B32C0
2B6660
2ADDB0
3F3300
000E60
55B8C0
558380
560E00
607800
000000
ENDCHAR

STARTCHAR jisx0208_3034
ENCODING 12340
SWIDTH 960 0
DWIDTH 20 0
BBX 20 20 0 -2
BITMAP
000000
0C0600
0C0600
0C0600
0C7FE0
7F0000
0C30C0
0C18C0
1E1980
1AFFF0
2C0600
2C0600
6C0600
6C7FE0
0C0600
0C0600
0C0600
0C0600
0C0600
000000
ENDCHAR

STARTCHAR jisx0208_3035
ENCODING 12341
SWIDTH 960 0
DWIDTH 20 0
BBX 20 20 0 -2
BITMAP
000000
000000
1FFFF0
180000
181800
181800
181800
181800
181800
17FFE0
181800
181800
181800
181800
301800
301800
301800
601800
6FFFF0
000000
ENDCHAR

STARTCHAR jisx0208_3036
ENCODING 12342
SWIDTH 960 0
DWIDTH 20 0
BBX 20 20 0 -2
BITMAP
000000
0C0700
0C0580
7F8D80
0C0CC0
0C18C0
7FB060
6159B0
618D80
7F8180
61B180
619980
7F8180
0C01F0
0C0F80
7F7980
0C0180
0C0180
0C0180
000000
ENDCHAR

STARTCHAR jisx0208_3037
ENCODING 12343
SWIDTH 960 0
DWIDTH 20 0
BBX 20 20 0 -2
BITMAP
000000
0C0000
0CFF80
0C3180
0C3180
7F3180
0C3180
0C3300
0C33E0
0B3860
1E5860
6C6C60
0C6CC0
0C66C0
0CC580
0CC300
0CC580
0D8CC0
3B3870
000000
ENDCHAR

STARTCHAR jisx0208_3038
ENCODING 12344
SWIDTH 960 0
DWIDTH 20 0
BBX 20 20 0 -2
BITMAP
000000
006000
006000
7FFFE0
600060
6C0060
6C0060
0C3F80
1FB180
19B180
19B180
39B180
6DB180
033180
033780
063000
0C3060
183060
701FE0
000000
ENDCHAR

STARTCHAR jisx0208_3039
ENCODING 12345
SWIDTH 960 0
DWIDTH 20 0
BBX 20 20 0 -2
BITMAP
000000
180000
183FC0
1830C0
1830C0
7F30C0
1B30C0
1B3FC0
3330C0
3330C0
3330C0
3630C0
663FC0
7630C0
6E30C0
0B30C0
19B0C0
3030C0
60FFF0
000000
ENDCHAR

STARTCHAR jisx0208_303A
ENCODING 12346
SWIDTH 960 0
DWIDTH 20 0
BBX 20 20 0 -2
BITMAP
000000
0C0600
0C0600
0C0600
0C0600
7FBFF0
6DB000
6DB000
6DB000
6DB000
6DB000
6DB000
7FB000
6C3000
0C3000
0DB000
0DB000
0FB000
7CDFF0
000000
ENDCHAR

STARTCHAR jisx0208_303B
ENCODING 12347
SWIDTH 960 0
DWIDTH 20 0
BBX 20 20 0 -2
BITMAP
000000
0E0600
0B0600
198600
36CC00
660CC0
3F9860
319BB0
317E30
3F8000
318000
31BFE0
3FB060
303060
31B060
31B060
36B060
3CBFE0
703060
000000
ENDCHAR

STARTCHAR jisx0208_303C
ENCODING 12348
SWIDTH 960 0
DWIDTH 20 0
BBX 20 20 0 -2
BITMAP
000000
0C3000
183000
1B3000
767FE0
366060
1CC060
0B0060
1B3F60
7DB360
0DB360
0C3F60
2B3360
2B3360
2DB360
6DBF60
6C3060
0C0060
0C03C0
000000
ENDCHAR

STARTCHAR jisx0208_303D
ENCODING 12349
SWIDTH 960 0
DWIDTH 20 0
BBX 20 20 0 -2
BITMAP
000000
0C0600
180600
1B3FC0
760600
360600
1CFFF0
0B1B00
1B1B60
7DB360
0D6BE0
0C0C00
2B1F80
2B1980
2DB980
6D6B00
6C0600
0C1B80
0CF0F0
000000
ENDCHAR

STARTCHAR jisx0208_303E
ENCODING 12350
SWIDTH 960 0
DWIDTH 20 0
BBX 20 20 0 -2
BITMAP
000000
0C0600
0F8600
198600
330600
6607F0
3FC600
36C600
36C600
3FC600
36DFE0
36D860
36D860
3FD860
001860
2AD860
2AD860
2ADFE0
601860
000000
ENDCHAR

STARTCHAR jisx0208_303F
ENCODING 12351
SWIDTH 960 0
DWIDTH 20 0
BBX 20 20 0 -2
BITMAP
000000
000D80
000CC0
000C60
7FFFF0
000C00
000C00
000C60
1FCC60
18CCC0
18C6C0
18C580
1FC580
180300
00E700
078DB0
7C19B0
0070B0
01C070
000000
ENDCHAR

STARTCHAR jisx0208_3040
ENCODING 12352
SWIDTH 960 0
DWIDTH 20 0
BBX 20 20 0 -2
BITMAP
000000
000000
7FFFE0
019800
019800
1FFF80
199980
199980
1FFF80
006000
066600
036C00
7FFFE0
00F000
015800
076E00
1C6380
7060E0
006000
000000
ENDCHAR

STARTCHAR jisx0208_3041
ENCODING 12353
SWIDTH 960 0
DWIDTH 20 0
BBX 20 20 0 -2
BITMAP
000000
180E00
180B00
181B00
7F1980
033180
0630C0
066060
0CBFB0
1B0000
3E0000
560000
1B7FC0
1860C0
1860C0
1860C0
1860C0
187FC0
1860C0
000000
ENDCHAR

STARTCHAR jisx0208_3042
ENCODING 12354
SWIDTH 960 0
DWIDTH 20 0
BBX 20 20 0 -2
BITMAP
000000
006000
006000
7FFFE0
600060
60C060
60C060
018000
018000
7FFFE0
030600
060600
060C00
0F8C00
0CD800
003800
00EE00
078380
3C00C0
000000
ENDCHAR

STARTCHAR jisx0208_3043
ENCODING 12355
SWIDTH 960 0
DWIDTH 20 0
BBX 20 20 0 -2
BITMAP
000000
003000
003000
1FFFF0
181800
183000
17FFE0
186600
18DB00
199980
1BFFC0
1D9970
19FF80
199980
199980
19FF80
319830
301830
600FF0
000000
ENDCHAR

STARTCHAR jisx0208_3044
ENCODING 12356
SWIDTH 960 0
DWIDTH 20 0
BBX 20 20 0 -2
BITMAP
000000
180C00
180C00
19FFF0
198030
7D8C30
198C30
180C00
181800
1DFFF0
781980
183180
183180
187B00
186B00
180700
180D80
1838C0
79E060
000000
ENDCHAR

STARTCHAR jisx0208_3045
ENCODING 12357
SWIDTH 960 0
DWIDTH 20 0
BBX 20 20 0 -2
BITMAP
000000
000C00
7E0C00
66FFE0
666180
666180
663300
663300
7DFFF0
660000
660000
667FC0
6660C0
6660C0
7E7FC0
6660C0
6060C0
007FC0
0060C0
000000
ENDCHAR

STARTCHAR jisx0208_3046
ENCODING 12358
SWIDTH 960 0
DWIDTH 20 0
BBX 20 20 0 -2
BITMAP
000000
006000
006000
7FFFE0
60C060
618060
3FFFC0
030600
07EC00
003C00
01E700
3F61C0
006000
7FFFE0
00F000
035C00
0E6700
7861E0
006000
000000
ENDCHAR

STARTCHAR jisx0208_3047
ENCODING 12359
SWIDTH 960 0
DWIDTH 20 0
BBX 20 20 0 -2
BITMAP
000000
000000
7F9FE0
619860
7F9FE0
619860
7F9FE0
606060
67FE60
630C60
619860
6FFF60
600060
63FC60
630C60
63FC60
630C60
63FC60
630DE0
000000
ENDCHAR

STARTCHAR jisx0208_3048
ENCODING 12360
SWIDTH 960 0
DWIDTH 20 0
BBX 20 20 0 -2
BITMAP
000000
330600
330600
7F7FF0
336030
336030
3F6630
0C0600
0C0600
7FBFF0
6D8CC0
6D8CC0
7F98C0
0C1D80
0C1580
7F8380
0C02C0
0C0E60
0C3830
000000
ENDCHAR

STARTCHAR jisx0208_3049
ENCODING 12361
SWIDTH 960 0
DWIDTH 20 0
BBX 20 20 0 -2
BITMAP
000000
006000
006000
7FFFE0
00F000
015800
036C00
066700
1C6180
7060E0
000000
0FFF00
0C0300
0C0300
0C0300
0C0300
0C0300
0FFF00
0C0300
000000
ENDCHAR

STARTCHAR jisx0208_304A
ENCODING 12362
SWIDTH 960 0
DWIDTH 20 0
BBX 20 20 0 -2
BITMAP
000000
180180
18C180
186180
183180
183180
180180
180180
180180
180180
180180
183300
18E300
1B8380
1E06C0
700C60
001860
007030
01C030
000000
ENDCHAR

STARTCHAR jisx0208_304B
ENCODING 12363
SWIDTH 960 0
DWIDTH 20 0
BBX 20 20 0 -2
BITMAP
000000
0C0000
0DFFC0
0C18C0
1818C0
1818C0
1818C0
3BFFF0
3818C0
5818C0
1818C0
1818C0
19FFC0
1818C0
1818C0
183000
183000
186000
19C000
000000
ENDCHAR

STARTCHAR jisx0208_304C
ENCODING 12364
SWIDTH 960 0
DWIDTH 20 0
BBX 20 20 0 -2
BITMAP
000000
061800
061800
0C1800
0C1800
1BFFE0
180000
398180
598180
18C180
18C180
18C300
186300
186300
186300
186600
186600
180600
17FFF0
000000
ENDCHAR

STARTCHAR jisx0208_304D
ENCODING 12365
SWIDTH 960 0
DWIDTH 20 0
BBX 20 20 0 -2
BITMAP
000000
060C00
060C00
0C0C00
0BFFF0
180C00
181C00
381600
583660
1836C0
186380
18E300
196300
1B6180
166180
1860C0
186EC0
187860
19E030
000000
ENDCHAR

STARTCHAR jisx0208_304E
ENCODING 12366
SWIDTH 960 0
DWIDTH 20 0
BBX 20 20 0 -2
BITMAP
000000
0C1800
0C1800
0DFF80
183180
183180
1BFFF0
380000
38FFC0
58C0C0
18C0C0
18FFC0
180600
18FFE0
18C600
18C600
1BFFF0
180600
180600
000000
ENDCHAR

STARTCHAR jisx0208_304F
ENCODING 12367
SWIDTH 960 0
DWIDTH 20 0
BBX 20 20 0 -2
BITMAP
000000
000000
3FFFE0
300060
319860
319860
319860
37FF60
319860
319860
319860
2FFF60
319860
319860
331860
331860
361860
300060
3FFFE0
000000
ENDCHAR

STARTCHAR jisx0208_3050
ENCODING 12368
SWIDTH 960 0
DWIDTH 20 0
BBX 20 20 0 -2
BITMAP
000000
006000
006000
7FFFE0
006000
3FFF80
006180
006180
1FFF80
186000
186000
3FFFC0
3060C0
00B0C0
019B80
030C00
060600
1C0380
7000E0
000000
ENDCHAR

STARTCHAR jisx0208_3051
ENCODING 12369
SWIDTH 960 0
DWIDTH 20 0
BBX 20 20 0 -2
BITMAP
000000
000000
000F80
1FF800
006000
7FFFE0
00F000
035C00
0E6700
7861E0
00C000
018000
7FFFE0
030600
060C00
0FD800
007C00
01C700
3F0180
000000
ENDCHAR

STARTCHAR jisx0208_3052
ENCODING 12370
SWIDTH 960 0
DWIDTH 20 0
BBX 20 20 0 -2
BITMAP
000000
000D80
000CC0
000C60
3FFFF0
300C00
300C00
2FEC00
330C60
330C60
2FECC0
3366C0
366580
366580
2EC300
2BC730
316DB0
6318B0
6E7070
000000
ENDCHAR

STARTCHAR jisx0208_3053
ENCODING 12371
SWIDTH 960 0
DWIDTH 20 0
BBX 20 20 0 -2
BITMAP
000000
0000C0
3FE0C0
3060C0
3060C0
3FE0C0
301FF0
3000C0
2FC0C0
300CC0
3006C0
3FE6C0
3300C0
2AC0C0
2AC0C0
3B60C0
5B60C0
6300C0
0F03C0
000000
ENDCHAR

STARTCHAR jisx0208_3054
ENCODING 12372
SWIDTH 960 0
DWIDTH 20 0
BBX 20 20 0 -2
BITMAP
000000
0C3180
0C3180
0C3300
2E6300
2B7FF0
2AE600
2D6600
6B6600
6C7FE0
0C6600
0C6600
0C6600
0C7FE0
0C6600
0C6600
0C6600
0C7FF0
0C6000
000000
ENDCHAR

STARTCHAR jisx0208_3055
ENCODING 12373
SWIDTH 960 0
DWIDTH 20 0
BBX 20 20 0 -2
BITMAP
000000
006000
006000
1FFF80
060600
030C00
7FFFE0
000000
0FFF00
0C0300
0FFF00
0C0300
0FFF00
000000
036000
1B30C0
1B0660
330660
61FE00
000000
ENDCHAR

STARTCHAR jisx0208_3056
ENCODING 12374
SWIDTH 960 0
DWIDTH 20 0
BBX 20 20 0 -2
BITMAP
000000
0000C0
1FF0C0
1830C0
1FF0C0
181FF0
17E0C0
180CC0
1FF6C0
1986C0
3560C0
2DB0C0
6383C0
000000
033000
1B1860
1B0330
330330
61FF00
000000
ENDCHAR

STARTCHAR jisx0208_3057
ENCODING 12375
SWIDTH 960 0
DWIDTH 20 0
BBX 20 20 0 -2
BITMAP
000000
000000
0FFF80
0C0180
0C0180
0FFF80
0C0180
0C0180
0FFF80
030000
060000
1FFFE0
70CC60
018C60
071860
3C3060
00E060
0380C0
1E0780
000000
ENDCHAR

STARTCHAR jisx0208_3058
ENCODING 12376
SWIDTH 960 0
DWIDTH 20 0
BBX 20 20 0 -2
BITMAP
000000
0C0C00
0C0C00
0DFFE0
0C0C00
7F1600
0C3300
0CE1C0
1E0000
1BFFF0
2C00C0
2C00C0
6CFCC0
6CCCC0
0CCCC0
0CFCC0
0CC0C0
0C00C0
0C03C0
000000
ENDCHAR

STARTCHAR jisx0208_3059
ENCODING 12377
SWIDTH 960 0
DWIDTH 20 0
BBX 20 20 0 -2
BITMAP
000000
0C6000
066000
3FFE00
00C600
00C600
018C00
01FF80
030180
030180
060300
0FFFE0
180060
300660
6DB360
0CDB60
0CD8C0
1800C0
000780
000000
ENDCHAR

STARTCHAR jisx0208_305A
ENCODING 12378
SWIDTH 960 0
DWIDTH 20 0
BBX 20 20 0 -2
BITMAP
000000
000000
1FFF80
186180
186180
1FFF80
186180
186180
1FFF80
000000
7FFFE0
0C6000
0C30C0
0C3180
0C1700
0C0C00
0CF600
0F8380
7C00E0
000000
ENDCHAR

STARTCHAR jisx0208_305B
ENCODING 12379
SWIDTH 960 0
DWIDTH 20 0
BBX 20 20 0 -2
BITMAP
000000
000000
1FFF80
186180
186180
1FFF80
186180
186180
1FFF80
030C00
030C00
3FFFC0
030C00
030C00
7FFFE0
000000
030700
0E01C0
780060
000000
ENDCHAR

STARTCHAR jisx0208_305C
ENCODING 12380
SWIDTH 960 0
DWIDTH 20 0
BBX 20 20 0 -2
BITMAP
000000
000C00
038C00
7E1FC0
0C18C0
0C3980
7F6B00
0CC600
0C0C00
1E1600
1B6C00
2D9FE0
2C3060
6C58C0
6DCD80
0C0700
0C0E00
0C3800
0DE000
000000
ENDCHAR

STARTCHAR jisx0208_305D
ENCODING 12381
SWIDTH 960 0
DWIDTH 20 0
BBX 20 20 0 -2
BITMAP
000000
0C1980
181980
1B3300
763300
367FF0
1CB300
0B3300
1B3300
7DBFE0
0DB300
0C3300
2B3300
2B3FE0
2DB300
6DB300
6C3300
0C3FF0
0C3000
000000
ENDCHAR

STARTCHAR jisx0208_305E
ENCODING 12382
SWIDTH 960 0
DWIDTH 20 0
BBX 20 20 0 -2
BITMAP
000000
0C0C00
180C00
1B7F80
761980
361980
1CFFF0
0B0000
1B3FC0
7DB0C0
0DB0C0
0C3FC0
2B0300
2B3FE0
2DB300
6DB300
6CFFF0
0C0300
0C0300
000000
ENDCHAR

STARTCHAR jisx0208_305F
ENCODING 12383
SWIDTH 960 0
DWIDTH 20 0
BBX 20 20 0 -2
BITMAP
000000
3FFFC0
3060C0
3060C0
3FFFC0
3060C0
3060C0
3FFFC0
000000
1FFF80
180180
180180
1FFF80
180180
180180
1FFF80
180180
180180
180F80
000000
ENDCHAR

STARTCHAR jisx0208_3060
ENCODING 12384
SWIDTH 960 0
DWIDTH 20 0
BBX 20 20 0 -2
BITMAP
000000
030C00
7FFFE0
030C00
0003C0
1FFE00
006000
7FFFE0
00F000
075E00
7C63E0
00C000
018000
7FFFE0
030600
07CC00
007C00
01C700
3F01C0
000000
ENDCHAR

STARTCHAR jisx0208_3061
ENCODING 12385
SWIDTH 960 0
DWIDTH 20 0
BBX 20 20 0 -2
BITMAP
000000
006000
006000
006000
7FFFE0
006000
00B000
01B0C0
01B180
031B00
071600
0B0C00
3B0C00
630600
030600
030300
031D80
02F0C0
3F8060
000000
ENDCHAR

STARTCHAR jisx0208_3062
ENCODING 12386
SWIDTH 960 0
DWIDTH 20 0
BBX 20 20 0 -2
BITMAP
000000
000000
3F7FE0
006660
006660
7F7FE0
006660
006660
3F7FE0
000000
3F3FC0
0030C0
003FC0
3F30C0
3330C0
333FC0
3330C0
3F30C0
3033C0
000000
ENDCHAR

STARTCHAR jisx0208_3063
ENCODING 12387
SWIDTH 960 0
DWIDTH 20 0
BBX 20 20 0 -2
BITMAP
000000
001800
31FF80
183180
0C3180
03FFF0
000000
00FFC0
00C0C0
7CFFC0
0C0600
0CFFE0
0CC600
0CC600
0BFFF0
0C0600
0C0600
170000
71FFF0
000000
ENDCHAR

STARTCHAR jisx0208_3064
ENCODING 12388
SWIDTH 960 0
DWIDTH 20 0
BBX 20 20 0 -2
BITMAP
000000
000C00
30FFC0
18CCC0
0CFFC0
000C00
03FFF0
000000
00FFC0
7CC0C0
0CFFC0
0CC0C0
0CFFC0
0CC0C0
0CFFC0
0C3180
0CE0C0
170000
71FFF0
000000
ENDCHAR

STARTCHAR jisx0208_3065
ENCODING 12389
SWIDTH 960 0
DWIDTH 20 0
BBX 20 20 0 -2
BITMAP
000000
000000
7FFFC0
600000
630000
630000
67FF00
666000
6C6000
606000
5FFF80
606000
60B000
619800
670E00
5C0380
600000
7FFFE0
600000
000000
ENDCHAR

STARTCHAR jisx0208_3066
ENCODING 12390
SWIDTH 960 0
DWIDTH 20 0
BBX 20 20 0 -2
BITMAP
000000
030600
030600
030600
030600
3FFFE0
030600
030600
030600
030600
030600
7FFFF0
030600
030600
060600
060600
0C0600
180600
300600
000000
ENDCHAR

STARTCHAR jisx0208_3067
ENCODING 12391
SWIDTH 960 0
DWIDTH 20 0
BBX 20 20 0 -2
BITMAP
000000
006000
006000
006000
7FFFE0
00C000
018300
0B0600
060C00
031800
01B0C0
00E180
01C300
070600
3C0C00
003600
00E380
0780C0
3C0060
000000
ENDCHAR

STARTCHAR jisx0208_3068
ENCODING 12392
SWIDTH 960 0
DWIDTH 20 0
BBX 20 20 0 -2
BITMAP
000000
1806C0
180660
180630
180600
19FFF0
7E0600
180600
19F630
19B630
19B630
19B360
19F360
1982C0
1E3980
78E3B0
0786B0
001CB0
007070
000000
ENDCHAR

STARTCHAR jisx0208_3069
ENCODING 12393
SWIDTH 960 0
DWIDTH 20 0
BBX 20 20 0 -2
BITMAP
000000
006000
006000
7FFFE0
018300
031F80
3FF0C0
000000
000000
0FFF00
0C0300
0C0300
0FFF00
0C0300
0FFF00
0C0300
0C0300
0C0300
0C1F00
000000
ENDCHAR

STARTCHAR jisx0208_306A
ENCODING 12394
SWIDTH 960 0
DWIDTH 20 0
BBX 20 20 0 -2
BITMAP
000000
060000
0607F0
7FF630
0C0630
0C0660
180660
1FE6C0
1866C0
386660
5FE660
186630
186630
1FE630
186630
1865E0
186600
186600
19E600
000000
ENDCHAR

STARTCHAR jisx0208_306B
ENCODING 12395
SWIDTH 960 0
DWIDTH 20 0
BBX 20 20 0 -2
BITMAP
000000
0036C0
7F6580
18D760
185560
1836C0
306DB0
30F7F0
3E06C0
760660
75FFF0
366300
366330
367360
365AC0
3E6D80
30C3B0
30CEB0
01B870
000000
ENDCHAR

STARTCHAR jisx0208_306C
ENCODING 12396
SWIDTH 960 0
DWIDTH 20 0
BBX 20 20 0 -2
BITMAP
000000
000000
000000
000000
000000
000000
000000
000000
000000
000000
7FFFF0
000000
000000
000000
000000
000000
000000
000000
000000
000000
ENDCHAR

STARTCHAR jisx0208_306D
ENCODING 12397
SWIDTH 960 0
DWIDTH 20 0
BBX 20 20 0 -2
BITMAP
000000
006000
006000
3FFFC0
006000
006000
1FFF80
000000
000000
7FFFE0
600060
600060
660060
060F00
07F800
0600C0
0600C0
0600C0
03FFC0
000000
ENDCHAR

STARTCHAR jisx0208_306E
ENCODING 12398
SWIDTH 960 0
DWIDTH 20 0
BBX 20 20 0 -2
BITMAP
000000
30C180
186180
006300
03FFF0
606300
306300
00C180
00C180
0180C0
170070
180000
19FFC0
31B6C0
31B6C0
31B6C0
61B6C0
67FFF0
600000
000000
ENDCHAR

STARTCHAR jisx0208_306F
ENCODING 12399
SWIDTH 960 0
DWIDTH 20 0
BBX 20 20 0 -2
BITMAP
000000
003000
303000
187F00
0CC300
038600
00FFC0
00CCC0
00CCC0
7CCCC0
0CFFC0
0C3600
0C3600
0C6630
0CC630
0B83F0
0C0000
170000
71FFF0
000000
ENDCHAR

STARTCHAR jisx0208_3070
ENCODING 12400
SWIDTH 960 0
DWIDTH 20 0
BBX 20 20 0 -2
BITMAP
000000
000000
0383E0
7E7E00
0C0060
0C6C60
7FB6C0
0C36C0
0C0000
1E6FE0
1B6C60
2D6C60
2C6C60
6C6FE0
6C6C60
0C6C60
0C6C60
0C6FE0
0C6C60
000000
ENDCHAR

STARTCHAR jisx0208_3071
ENCODING 12401
SWIDTH 960 0
DWIDTH 20 0
BBX 20 20 0 -2
BITMAP
000000
030600
030600
7FFFF0
030600
036600
306000
186000
0CFFC0
00D8C0
019980
031B00
001800
032C00
062C00
0C6600
38C300
618180
0700E0
000000
ENDCHAR

STARTCHAR jisx0208_3072
ENCODING 12402
SWIDTH 960 0
DWIDTH 20 0
BBX 20 20 0 -2
BITMAP
000000
030C00
030C00
7FFFE0
030C00
030C00
000000
1FFF80
006000
006000
006000
7FFFE0
006000
006000
006000
006000
006000
006000
03E000
000000
ENDCHAR

STARTCHAR jisx0208_3073
ENCODING 12403
SWIDTH 960 0
DWIDTH 20 0
BBX 20 20 0 -2
BITMAP
000000
180000
1F7BE0
1B0C60
330C60
360C60
7FBDE0
2DB180
2D6300
3F7BE0
2D8C60
2D6B60
2DAD60
3F9CE0
002D60
556B60
558C60
560C60
607BC0
000000
ENDCHAR

STARTCHAR jisx0208_3074
ENCODING 12404
SWIDTH 960 0
DWIDTH 20 0
BBX 20 20 0 -2
BITMAP
000000
00C000
00C000
018600
018300
030180
0300C0
063F60
3FEC60
018C00
018C00
018C00
018C00
018C00
030C00
030C60
060C60
1C0C60
7007E0
000000
ENDCHAR

STARTCHAR jisx0208_3075
ENCODING 12405
SWIDTH 960 0
DWIDTH 20 0
BBX 20 20 0 -2
BITMAP
000000
000000
038000
7E3FE0
603060
603060
603060
603060
603060
7FB060
603060
603060
603060
603060
603060
7FB3E0
603000
603000
003000
000000
ENDCHAR

STARTCHAR jisx0208_3076
ENCODING 12406
SWIDTH 960 0
DWIDTH 20 0
BBX 20 20 0 -2
BITMAP
000000
000000
01FFE0
7D8060
6D8C60
6D8C60
6D8C60
6D7F60
6D8C60
6D8C60
6D8C60
6D8E60
6D9B60
7D9B60
61B160
616160
018060
01FFE0
018060
000000
ENDCHAR

STARTCHAR jisx0208_3077
ENCODING 12407
SWIDTH 960 0
DWIDTH 20 0
BBX 20 20 0 -2
BITMAP
000000
000000
0FFF80
0C0180
0C0180
0FFF80
000000
1FFFC0
1800C0
1800C0
1FFFC0
1800C0
1FFFC0
1800C0
1800C0
1FFFC0
000000
0E03C0
780070
000000
ENDCHAR

STARTCHAR jisx0208_3078
ENCODING 12408
SWIDTH 960 0
DWIDTH 20 0
BBX 20 20 0 -2
BITMAP
000000
000000
7FFFE0
600060
606060
606060
606060
6FFF60
606060
606060
60B060
60B060
619860
630C60
660660
5C0360
600060
7FFFE0
600060
000000
ENDCHAR

STARTCHAR jisx0208_3079
ENCODING 12409
SWIDTH 960 0
DWIDTH 20 0
BBX 20 20 0 -2
BITMAP
000000
180000
187FE0
186060
186660
7F6660
1B6660
1B5F60
336660
336660
336760
366B60
366D60
766D60
6E5960
0B6060
196060
307FE0
606060
000000
ENDCHAR

STARTCHAR jisx0208_307A
ENCODING 12410
SWIDTH 960 0
DWIDTH 20 0
BBX 20 20 0 -2
BITMAP
000000
0000C0
7FC0C0
00C0C0
00C0C0
00C0C0
3FC0C0
3000C0
3000C0
3000C0
7FC0C0
60C0C0
00C0C0
00C0C0
00C0C0
00C0C0
0180C0
0180C0
1F00C0
000000
ENDCHAR

STARTCHAR jisx0208_307B
ENCODING 12411
SWIDTH 960 0
DWIDTH 20 0
BBX 20 20 0 -2
BITMAP
000000
0E0C00
0B0C00
198C00
36D800
661FE0
3FB660
31B6C0
3166C0
3F8600
318600
318B00
3F8B00
300B00
331980
319980
36B0C0
3C6060
70C030
000000
ENDCHAR

STARTCHAR jisx0208_307C
ENCODING 12412
SWIDTH 960 0
DWIDTH 20 0
BBX 20 20 0 -2
BITMAP
000000
300000
1801E0
0DFF00
000060
619860
30CCC0
18CD80
0001E0
01FF00
000C00
0C0C00
0BFFF0
180C00
180C00
300C00
300C00
61FFE0
600000
000000
ENDCHAR

STARTCHAR jisx0208_307D
ENCODING 12413
SWIDTH 960 0
DWIDTH 20 0
BBX 20 20 0 -2
BITMAP
000000
186180
1AC180
199980
18B180
186D80
18CD80
17F580
180180
180180
1BFD80
1B0D80
1BFD80
1B0D80
1BFD80
1B0DB0
330DB0
330DB0
633DF0
000000
ENDCHAR

STARTCHAR jisx0208_307E
ENCODING 12414
SWIDTH 960 0
DWIDTH 20 0
BBX 20 20 0 -2
BITMAP
000000
018C00
7FFFF0
018C00
000C00
3F1600
333300
3661C0
35BF70
2C0000
2C7FC0
360180
32FFE0
330000
33FFF0
2E1980
3030C0
306760
31FC60
000000
ENDCHAR

STARTCHAR jisx0208_3121
ENCODING 12577
SWIDTH 960 0
DWIDTH 20 0
BBX 20 20 0 -2
BITMAP
000000
000C00
7E0C00
65FFE0
658060
6D8060
6D8060
587F80
580000
6C0000
6DFFE0
663600
663600
663600
5C3600
606660
606660
60C660
6383E0
000000
ENDCHAR

STARTCHAR jisx0208_3122
ENCODING 12578
SWIDTH 960 0
DWIDTH 20 0
BBX 20 20 0 -2
BITMAP
000000
000C00
7E1600
663300
666180
6CBEC0
6B8070
580000
58FFC0
6C0180
6C0300
667FC0
660000
660000
5DFFF0
603180
6030C0
606760
61FC60
000000
ENDCHAR

STARTCHAR jisx0208_3123
ENCODING 12579
SWIDTH 960 0
DWIDTH 20 0
BBX 20 20 0 -2
BITMAP
000000
000000
7E03E0
66FE00
66D8C0
6C6CC0
6C0180
58FFC0
5800C0
6CFFC0
6C00C0
6600C0
66FFC0
660000
5C2C00
61B660
61B1B0
6331B0
631F80
000000
ENDCHAR

STARTCHAR jisx0208_3124
ENCODING 12580
SWIDTH 960 0
DWIDTH 20 0
BBX 20 20 0 -2
BITMAP
000000
0C0000
0C0FC0
7FCCC0
318FC0
198000
1B1FE0
7FD860
001860
001FE0
3F9860
319FE0
319860
3F9860
319FE0
318000
318CC0
3F9860
307030
000000
ENDCHAR

STARTCHAR jisx0208_3125
ENCODING 12581
SWIDTH 960 0
DWIDTH 20 0
BBX 20 20 0 -2
BITMAP
000000
000180
000180
7E0180
660180
660180
66FFF0
660180
660180
666180
663180
661980
661980
7E0180
600180
600180
000180
000180
000F80
000000
ENDCHAR

STARTCHAR jisx0208_3126
ENCODING 12582
SWIDTH 960 0
DWIDTH 20 0
BBX 20 20 0 -2
BITMAP
000000
006000
006000
006000
7FFFF0
00C000
018000
018000
030000
030000
07FFC0
0B00C0
1B00C0
3300C0
6300C0
0300C0
0300C0
03FFC0
0300C0
000000
ENDCHAR

STARTCHAR jisx0208_3127
ENCODING 12583
SWIDTH 960 0
DWIDTH 20 0
BBX 20 20 0 -2
BITMAP
000000
006000
006000
7FFFE0
600060
600060
600060
0FFF00
006000
006000
006000
7FFFE0
006000
006000
006000
006000
006000
006000
03E000
000000
ENDCHAR

STARTCHAR jisx0208_3128
ENCODING 12584
SWIDTH 960 0
DWIDTH 20 0
BBX 20 20 0 -2
BITMAP
000000
006000
00C000
0FFF80
0C0180
0C0180
0FFF80
0C0000
0C0000
0FFFF0
0C0000
0C0000
0FFFE0
000060
1B6C60
19B660
31B660
31B660
6003C0
000000
ENDCHAR

STARTCHAR jisx0208_3129
ENCODING 12585
SWIDTH 960 0
DWIDTH 20 0
BBX 20 20 0 -2
BITMAP
000000
000000
7FBFE0
00C060
00C060
30D860
18CC60
0CC660
0CC660
00C060
00C060
02C160
0EC760
78BC60
00C060
00C060
00C060
00C060
07C3E0
000000
ENDCHAR

STARTCHAR jisx0208_312A
ENCODING 12586
SWIDTH 960 0
DWIDTH 20 0
BBX 20 20 0 -2
BITMAP
000000
000000
31FFE0
180C00
0C0C00
000C00
000C00
000C00
03FFF0
7C0C00
0C0C00
0C0C00
0C0C00
0C0C00
0C0C00
0C3C00
0C0000
170000
71FFF0
000000
ENDCHAR

STARTCHAR jisx0208_312B
ENCODING 12587
SWIDTH 960 0
DWIDTH 20 0
BBX 20 20 0 -2
BITMAP
000000
000000
7FFFE0
006000
006000
006000
3FFFC0
3060C0
3060C0
366CC0
3366C0
3366C0
3060C0
366CC0
3366C0
3366C0
3060C0
3060C0
3063C0
000000
ENDCHAR

STARTCHAR jisx0208_312C
ENCODING 12588
SWIDTH 960 0
DWIDTH 20 0
BBX 20 20 0 -2
BITMAP
000000
000000
01C000
1F0FE0
180C60
18CC60
18CC60
18CC60
18CC60
18CC60
18CC60
1BCC60
1ECC60
798C60
018C60
030DE0
060C00
1C0C00
700C00
000000
ENDCHAR

STARTCHAR jisx0208_312D
ENCODING 12589
SWIDTH 960 0
DWIDTH 20 0
BBX 20 20 0 -2
BITMAP
000000
318300
198600
1B1FE0
7FD860
06DFE0
06D860
3FD860
361FE0
361800
7FDFF0
66D800
0EDFF0
16C030
16AAB0
35AAB0
662B30
066060
0603C0
000000
ENDCHAR

STARTCHAR jisx0208_312E
ENCODING 12590
SWIDTH 960 0
DWIDTH 20 0
BBX 20 20 0 -2
BITMAP
000000
006000
006000
7FFFE0
619860
671960
1C0F80
0C0000
0C7F80
3F6180
0C7F80
0C6180
7F7F80
0C6180
0E7F80
1B3600
19B660
306660
61C3E0
000000
ENDCHAR

STARTCHAR jisx0208_312F
ENCODING 12591
SWIDTH 960 0
DWIDTH 20 0
BBX 20 20 0 -2
BITMAP
000000
000000
3FFF00
018300
018300
018300
018300
030300
030300
7FFFF0
030600
030600
030600
060600
060600
060600
060600
7FFFF0
000000
000000
ENDCHAR

STARTCHAR jisx0208_3130
ENCODING 12592
SWIDTH 960 0
DWIDTH 20 0
BBX 20 20 0 -2
BITMAP
000000
003300
7F3300
186600
186600
18FFF0
316600
3E6600
366600
767FE0
766600
366600
366600
367FE0
366600
3E6600
306600
307FF0
006000
000000
ENDCHAR

STARTCHAR jisx0208_3131
ENCODING 12593
SWIDTH 960 0
DWIDTH 20 0
BBX 20 20 0 -2
BITMAP
000000
000000
01C000
3F1FC0
3000C0
3000C0
3000C0
3000C0
3000C0
3000C0
3F9FC0
3000C0
3000C0
3000C0
3000C0
3000C0
3000C0
3FFFC0
3000C0
000000
ENDCHAR

STARTCHAR jisx0208_3132
ENCODING 12594
SWIDTH 960 0
DWIDTH 20 0
BBX 20 20 0 -2
BITMAP
000000
300000
18FF80
0CC180
00C180
60DF80
30D980
18D980
00D980
03FFE0
030060
0B0060
0B7F60
1B6360
1B6360
337F60
336060
630060
6301E0
000000
ENDCHAR

STARTCHAR jisx0208_3133
ENCODING 12595
SWIDTH 960 0
DWIDTH 20 0
BBX 20 20 0 -2
BITMAP
000000
000C00
000C00
7C0FC0
6C0C00
6DFFF0
6D9860
6D9EC0
6D7800
6D9860
6D8FE0
6D8000
7B1B00
62DB60
635B60
065AC0
061B00
0C1B00
01FFF0
000000
ENDCHAR

STARTCHAR jisx0208_3134
ENCODING 12596
SWIDTH 960 0
DWIDTH 20 0
BBX 20 20 0 -2
BITMAP
000000
000000
007FE0
7E6060
666060
666060
667FE0
666060
666060
666060
667FE0
666060
666060
7E6060
607FE0
600000
0030C0
006060
01C030
000000
ENDCHAR

STARTCHAR jisx0208_3135
ENCODING 12597
SWIDTH 960 0
DWIDTH 20 0
BBX 20 20 0 -2
BITMAP
000000
0CD980
7F77F0
0CD980
1EDBC0
2B7560
6CD9B0
1FFFC0
198CC0
1FFFC0
000180
1FE180
187FF0
1FE180
185980
1FED80
18C180
1B6180
7E3780
000000
ENDCHAR

STARTCHAR jisx0208_3136
ENCODING 12598
SWIDTH 960 0
DWIDTH 20 0
BBX 20 20 0 -2
BITMAP
000000
018C00
018C00
7FFFF0
018C00
0000C0
3FF0C0
3030C0
3FEFF0
3000C0
37E0C0
300CC0
2FF6C0
3186C0
2D60C0
2D60C0
6DB0C0
59B0C0
0783C0
000000
ENDCHAR

STARTCHAR jisx0208_3137
ENCODING 12599
SWIDTH 960 0
DWIDTH 20 0
BBX 20 20 0 -2
BITMAP
000000
180000
1F3FC0
1B30C0
333FC0
3630C0
7FBFC0
2D8000
2D7FE0
3F6B60
2D6B60
2D7FE0
2D8000
3F7FC0
0018C0
558D80
558700
561DC0
60F070
000000
ENDCHAR

STARTCHAR jisx0208_3138
ENCODING 12600
SWIDTH 960 0
DWIDTH 20 0
BBX 20 20 0 -2
BITMAP
000000
180C00
180C60
180C60
187F60
7F0CC0
1B0CC0
1B0D80
32FFF0
330600
330C00
361C60
662DC0
76EF00
6E0C00
0B0C30
198C30
300C30
6007F0
000000
ENDCHAR

STARTCHAR jisx0208_3139
ENCODING 12601
SWIDTH 960 0
DWIDTH 20 0
BBX 20 20 0 -2
BITMAP
000000
000000
3FFFE0
300000
300000
37DFE0
366D80
366D80
37ED80
366B00
365FE0
37E300
360300
36C580
366580
36ED80
67ADB0
5C19B0
6031F0
000000
ENDCHAR

STARTCHAR jisx0208_313A
ENCODING 12602
SWIDTH 960 0
DWIDTH 20 0
BBX 20 20 0 -2
BITMAP
000000
300CC0
180C60
0C0C00
03FFF0
600C00
300C00
19FFE0
018C60
018C60
01FFE0
0D8C60
0D8C60
19FFE0
198C60
318C60
318C60
618C60
618DE0
000000
ENDCHAR

STARTCHAR jisx0208_313B
ENCODING 12603
SWIDTH 960 0
DWIDTH 20 0
BBX 20 20 0 -2
BITMAP
000000
000000
0007C0
0FFB00
0C6300
0C6300
0C6300
0C6300
0C6300
0C6180
0C6180
0C6180
0C6180
186CC0
1866C0
185EC0
30F360
378360
600030
000000
ENDCHAR

STARTCHAR jisx0208_313C
ENCODING 12604
SWIDTH 960 0
DWIDTH 20 0
BBX 20 20 0 -2
BITMAP
000000
000000
7F9FE0
619860
7F9FE0
619860
7F9FE0
600060
600060
67FE60
606060
606060
63FC60
606060
606060
606060
6FFF60
600060
6001E0
000000
ENDCHAR

STARTCHAR jisx0208_313D
ENCODING 12605
SWIDTH 960 0
DWIDTH 20 0
BBX 20 20 0 -2
BITMAP
000000
003180
7C1B00
6DFFF0
6C1B00
6C1B00
6CFFE0
6CDB60
6CF3E0
6CC060
6CFFE0
6CC060
7CFFE0
600180
63FFF0
006180
003180
000180
000780
000000
ENDCHAR

STARTCHAR jisx0208_313E
ENCODING 12606
SWIDTH 960 0
DWIDTH 20 0
BBX 20 20 0 -2
BITMAP
000000
000000
0FFF80
000000
000000
000000
000000
000000
7FFFF0
00C000
00C000
018000
018600
030300
030180
0600C0
061FC0
3FF060
000060
000000
ENDCHAR

STARTCHAR jisx0208_313F
ENCODING 12607
SWIDTH 960 0
DWIDTH 20 0
BBX 20 20 0 -2
BITMAP
000000
000000
31FFE0
198C60
0D8C60
00FFC0
000C00
00FFC0
00CCC0
7CFFC0
0CCCC0
0CFFC0
0C0C00
0C0C00
0DFFE0
0C0C00
0C0C00
170000
71FFF0
000000
ENDCHAR

STARTCHAR jisx0208_3140
ENCODING 12608
SWIDTH 960 0
DWIDTH 20 0
BBX 20 20 0 -2
BITMAP
000000
000000
3FFFC0
006000
7FFFE0
606060
5F5F60
606060
1F5F80
006000
000000
0FFF00
000000
000000
7FFFE0
018300
030180
063FC0
3FE0C0
000000
ENDCHAR

STARTCHAR jisx0208_3141
ENCODING 12609
SWIDTH 960 0
DWIDTH 20 0
BBX 20 20 0 -2
BITMAP
000000
018C00
018C00
7FFFF0
018C00
018C00
0C0000
0C01E0
0DFF00
180C00
180C00
380C00
5BFFF0
180C00
180C00
180C00
180C00
180C00
19FFE0
000000
ENDCHAR

STARTCHAR jisx0208_3142
ENCODING 12610
SWIDTH 960 0
DWIDTH 20 0
BBX 20 20 0 -2
BITMAP
000000
0E0000
0B7FF0
1998C0
36D8C0
6618C0
3F9FC0
3198C0
3198C0
3F98C0
319FC0
3198C0
3F98C0
3018F0
3197C0
317CC0
36C0C0
3CC0C0
7000C0
000000
ENDCHAR

STARTCHAR jisx0208_3143
ENCODING 12611
SWIDTH 960 0
DWIDTH 20 0
BBX 20 20 0 -2
BITMAP
000000
030000
03F000
030FE0
7FF660
603660
6FB660
000660
1BB660
76D660
0C6660
1FF2C0
785AC0
1FE180
186180
1FE2C0
1866C0
186C60
1FD830
000000
ENDCHAR

STARTCHAR jisx0208_3144
ENCODING 12612
SWIDTH 960 0
DWIDTH 20 0
BBX 20 20 0 -2
BITMAP
000000
0CC180
066300
000600
7FFFF0
600030
600030
67FF30
060300
060300
07FF00
006000
00C000
1FFFC0
1800C0
1800C0
1800C0
1FFFC0
1800C0
000000
ENDCHAR

STARTCHAR jisx0208_3145
ENCODING 12613
SWIDTH 960 0
DWIDTH 20 0
BBX 20 20 0 -2
BITMAP
000000
000000
1FDFC0
18D8C0
1FDFC0
18D8C0
1FDFC0
18D8C0
1FDFC0
0D8D80
18D8C0
307060
018000
7FFFF0
030600
07CC00
007800
01EF00
3F01C0
000000
ENDCHAR

STARTCHAR jisx0208_3146
ENCODING 12614
SWIDTH 960 0
DWIDTH 20 0
BBX 20 20 0 -2
BITMAP
000000
000000
1FE060
1860C0
1FE380
186E00
1FE000
030030
7FF860
0000C0
1FE380
186E00
1FE000
030000
1AC030
1B6060
3360C0
630380
0F1E00
000000
ENDCHAR

STARTCHAR jisx0208_3147
ENCODING 12615
SWIDTH 960 0
DWIDTH 20 0
BBX 20 20 0 -2
BITMAP
000000
000C00
000C00
7E0C00
66FFC0
66CCC0
66CCC0
66CCC0
7ECCC0
66CCC0
67FFF0
660C00
661600
661600
7E3300
603300
606180
00C0C0
038070
000000
ENDCHAR

STARTCHAR jisx0208_3148
ENCODING 12616
SWIDTH 960 0
DWIDTH 20 0
BBX 20 20 0 -2
BITMAP
000000
006000
006000
1FFF80
186180
186180
1FFF80
186180
186180
186180
1FFF80
186000
183180
003300
001600
001C30
00F630
0783B0
7C00F0
000000
ENDCHAR

STARTCHAR jisx0208_3149
ENCODING 12617
SWIDTH 960 0
DWIDTH 20 0
BBX 20 20 0 -2
BITMAP
000000
0CC180
066300
066600
000C00
7FFFE0
600060
606060
606060
006000
3FFFC0
00F000
015800
036C00
066600
1C6380
7060E0
006000
006000
000000
ENDCHAR

STARTCHAR jisx0208_314A
ENCODING 12618
SWIDTH 960 0
DWIDTH 20 0
BBX 20 20 0 -2
BITMAP
000000
038000
00E000
003800
000000
0FE000
006000
0060C0
007180
3F7300
015600
036C00
036C00
066600
0C6300
186180
7060E0
006000
03E000
000000
ENDCHAR

STARTCHAR jisx0208_314B
ENCODING 12619
SWIDTH 960 0
DWIDTH 20 0
BBX 20 20 0 -2
BITMAP
000000
307000
181C00
0C0600
000000
61FC00
300C00
180C60
000EC0
03ED80
006B00
0C6B00
0CCD80
18CCC0
198C60
330C30
360C00
600C00
607C00
000000
ENDCHAR

STARTCHAR jisx0208_314C
ENCODING 12620
SWIDTH 960 0
DWIDTH 20 0
BBX 20 20 0 -2
BITMAP
000000
301800
181800
0C1800
01FFC0
6198C0
3198C0
19FFC0
0198C0
0198C0
01FFC0
0D9800
0D98C0
180D80
180B00
300E30
303B30
60E1B0
678060
000000
ENDCHAR

STARTCHAR jisx0208_314D
ENCODING 12621
SWIDTH 960 0
DWIDTH 20 0
BBX 20 20 0 -2
BITMAP
000000
003300
7E3300
19FFE0
183300
180C00
180C00
18FFC0
7ECCC0
18CCC0
18CCC0
18CCC0
1BFFF0
180C00
1E1600
783300
006180
00C0E0
038030
000000
ENDCHAR

STARTCHAR jisx0208_314E
ENCODING 12622
SWIDTH 960 0
DWIDTH 20 0
BBX 20 20 0 -2
BITMAP
000000
000000
3FFE00
060600
060600
060600
07EFE0
062C60
0DB060
0C6060
18B060
319BC0
670000
000000
0FFF80
0CD980
0CD980
0CD980
7FFFF0
000000
ENDCHAR

STARTCHAR jisx0208_314F
ENCODING 12623
SWIDTH 960 0
DWIDTH 20 0
BBX 20 20 0 -2
BITMAP
000000
300000
33BFF0
3E0300
30C600
30DFE0
1FD860
001860
01DFE0
3F1860
061860
061FE0
7FD860
061860
0F1FE0
158000
36CCC0
661860
067030
000000
ENDCHAR

STARTCHAR jisx0208_3150
ENCODING 12624
SWIDTH 960 0
DWIDTH 20 0
BBX 20 20 0 -2
BITMAP
000000
300000
33BFF0
3E0300
30C600
30DFE0
1FD860
001860
001FE0
3FD860
001860
001FE0
7FD860
061860
359FE0
36C000
66CCC0
061860
1E7030
000000
ENDCHAR

STARTCHAR jisx0208_3151
ENCODING 12625
SWIDTH 960 0
DWIDTH 20 0
BBX 20 20 0 -2
BITMAP
000000
030C00
030C00
7FFFE0
030C00
036C00
006000
0FFF00
0C6300
0C6300
0C6300
0C6300
7FFFE0
006000
00B000
019800
030C00
0E0700
7801E0
000000
ENDCHAR

STARTCHAR jisx0208_3152
ENCODING 12626
SWIDTH 960 0
DWIDTH 20 0
BBX 20 20 0 -2
BITMAP
000000
186000
1863F0
33FC00
60CC00
0CCC00
0FFE00
1803F0
19FCC0
398CC0
59FCC0
1830C0
19FCC0
19B0C0
19B0C0
17FEC0
1830C0
1830C0
1833C0
000000
ENDCHAR

STARTCHAR jisx0208_3153
ENCODING 12627
SWIDTH 960 0
DWIDTH 20 0
BBX 20 20 0 -2
BITMAP
000000
003800
3F0E00
000300
000000
7F7E00
000600
000630
3F0660
00F6C0
3F1780
001580
001580
3F36C0
3336C0
336660
32C630
3F0600
301E00
000000
ENDCHAR

STARTCHAR jisx0208_3154
ENCODING 12628
SWIDTH 960 0
DWIDTH 20 0
BBX 20 20 0 -2
BITMAP
000000
0C3180
161980
1B1B00
318300
607FE0
3F6060
0C6060
0C6060
7F6060
0C7FE0
0D9B00
6D9B00
6B1B00
2B1B00
2C3330
0DB330
0F6330
7CC1F0
000000
ENDCHAR

STARTCHAR jisx0208_3155
ENCODING 12629
SWIDTH 960 0
DWIDTH 20 0
BBX 20 20 0 -2
BITMAP
000000
300C00
180C00
03FFF0
000000
60C600
30C600
00C7E0
018C60
018C60
1B9B60
15B960
196CC0
318CC0
318580
318300
618580
619CC0
617070
000000
ENDCHAR

STARTCHAR jisx0208_3156
ENCODING 12630
SWIDTH 960 0
DWIDTH 20 0
BBX 20 20 0 -2
BITMAP
000000
001800
001800
0FFFF0
0C0000
6CFE00
2CC600
2CC600
0CC660
0D8660
1B03E0
2C0000
6BFF80
18C180
186300
183600
301C00
30F780
6F80F0
000000
ENDCHAR

STARTCHAR jisx0208_3157
ENCODING 12631
SWIDTH 960 0
DWIDTH 20 0
BBX 20 20 0 -2
BITMAP
000000
060300
030600
018C00
7FFFF0
018C00
018C00
030600
060300
0C0180
1800C0
700070
0FFF80
0CD980
0CD980
0CD980
0CD980
0CD980
7FFFF0
000000
ENDCHAR

STARTCHAR jisx0208_3158
ENCODING 12632
SWIDTH 960 0
DWIDTH 20 0
BBX 20 20 0 -2
BITMAP
000000
000000
3FDFE0
361860
361860
3FD860
361860
361860
3FDFE0
361B60
361B00
3FD980
00D980
55D980
55D8C0
56B0C0
60B060
01B060
0F6030
000000
ENDCHAR

STARTCHAR jisx0208_3159
ENCODING 12633
SWIDTH 960 0
DWIDTH 20 0
BBX 20 20 0 -2
BITMAP
000000
0C6180
0C3180
0C3300
2E0600
2AFFC0
2AC0C0
2CC0C0
6CC0C0
6CC0C0
0CFFC0
0C3600
0C3600
0C3600
0C6600
0C6660
0CC660
0D8660
0B03E0
000000
ENDCHAR

STARTCHAR jisx0208_315A
ENCODING 12634
SWIDTH 960 0
DWIDTH 20 0
BBX 20 20 0 -2
BITMAP
000000
000000
3F7FC0
0060C0
007FC0
7F60C0
0060C0
007FC0
3F3000
003000
3F7FE0
00C060
016E60
3F7860
336360
336360
333F60
3F0060
3003C0
000000
ENDCHAR

STARTCHAR jisx0208_315B
ENCODING 12635
SWIDTH 960 0
DWIDTH 20 0
BBX 20 20 0 -2
BITMAP
000000
060360
060330
060300
3FBFF0
063300
063300
063360
7FB360
063360
0632C0
3632C0
37AD80
363BB0
36E6B0
360C70
360000
6E0000
63FFF0
000000
ENDCHAR

STARTCHAR jisx0208_315C
ENCODING 12636
SWIDTH 960 0
DWIDTH 20 0
BBX 20 20 0 -2
BITMAP
000000
000000
7F9FE0
619860
7F9FE0
619860
7F9FE0
600060
630C60
619860
67FE60
660660
660660
67FE60
61B060
61B360
633360
6E1F60
6001E0
000000
ENDCHAR

STARTCHAR jisx0208_315D
ENCODING 12637
SWIDTH 960 0
DWIDTH 20 0
BBX 20 20 0 -2
BITMAP
000000
0C0000
0DFFF0
0C0C00
0C1800
7F7FC0
0C60C0
0C7FC0
1E60C0
1B7FC0
2D60C0
2C7FC0
6C1800
6C3F80
0C7180
0DDB00
0C0E00
0C3B80
0DE0F0
000000
ENDCHAR

STARTCHAR jisx0208_315E
ENCODING 12638
SWIDTH 960 0
DWIDTH 20 0
BBX 20 20 0 -2
BITMAP
000000
000000
3FFFF0
300000
37F180
363180
37F160
3631B0
37F180
300FF0
300180
37F180
3632C0
37F2C0
3632C0
37F660
363660
662C30
66EC30
000000
ENDCHAR

STARTCHAR jisx0208_315F
ENCODING 12639
SWIDTH 960 0
DWIDTH 20 0
BBX 20 20 0 -2
BITMAP
000000
000000
3FFFC0
3060C0
3060C0
3060C0
3060C0
3060C0
3060C0
3060C0
3FFFC0
3000C0
3000C0
3000C0
3000C0
3000C0
3000C0
3000C0
3007C0
000000
ENDCHAR

STARTCHAR jisx0208_3160
ENCODING 12640
SWIDTH 960 0
DWIDTH 20 0
BBX 20 20 0 -2
BITMAP
000000
000000
7FFFE0
606060
606060
6FFF60
606060
5FFF60
600060
67FE60
660660
67FE60
60E160
617B60
676760
5C6160
606060
600060
7FFFE0
000000
ENDCHAR

STARTCHAR jisx0208_3161
ENCODING 12641
SWIDTH 960 0
DWIDTH 20 0
BBX 20 20 0 -2
BITMAP
000000
180000
19FFF0
198000
19BFE0
19B060
7DBFE0
19B060
19BFE0
198600
198C00
197FF0
1998C0
1DBD80
798780
018EC0
01B860
018000
01FFF0
000000
ENDCHAR

STARTCHAR jisx0208_3162
ENCODING 12642
SWIDTH 960 0
DWIDTH 20 0
BBX 20 20 0 -2
BITMAP
000000
006000
00C000
7FFFF0
019800
030C00
066600
0C6300
1FFF80
6C62E0
0C6300
0FFF00
0C6300
0C6300
0FFF00
0C6060
0C6060
006060
003FE0
000000
ENDCHAR

STARTCHAR jisx0208_3163
ENCODING 12643
SWIDTH 960 0
DWIDTH 20 0
BBX 20 20 0 -2
BITMAP
000000
006000
006000
7FFFE0
600060
67FE60
660660
07FE00
060600
07FE00
00C000
018000
7FFFE0
030C00
061800
0FB000
007C00
03C700
3E0180
000000
ENDCHAR

STARTCHAR jisx0208_3164
ENCODING 12644
SWIDTH 960 0
DWIDTH 20 0
BBX 20 20 0 -2
BITMAP
000000
000000
3F03E0
02FE00
060600
060600
0C6600
186600
1F67E0
336600
036600
1B6600
3B6600
6B6600
0DFFF0
060000
0B0000
19C000
707FF0
000000
ENDCHAR

STARTCHAR jisx0208_3165
ENCODING 12645
SWIDTH 960 0
DWIDTH 20 0
BBX 20 20 0 -2
BITMAP
000000
0C0000
0C1FC0
1FD8C0
18D8C0
38D8C0
6D9BC0
059800
031860
061860
1C0FE0
700000
003000
0318C0
1B0C60
1B0030
330330
630300
01FF00
000000
ENDCHAR

STARTCHAR jisx0208_3166
ENCODING 12646
SWIDTH 960 0
DWIDTH 20 0
BBX 20 20 0 -2
BITMAP
000000
181800
181800
19FFF0
183300
7E6180
18CCC0
1B8C70
18FFC0
18CCC0
1ECCC0
78FFC0
18CCC0
18CCC0
18FFC0
18CC00
180C30
180C30
7807F0
000000
ENDCHAR

STARTCHAR jisx0208_3167
ENCODING 12647
SWIDTH 960 0
DWIDTH 20 0
BBX 20 20 0 -2
BITMAP
000000
180000
1801E0
18FF60
186CC0
7E3580
18FFE0
181800
181800
19FFF0
1E1800
783000
183F80
187180
18DB00
1B8E00
180B00
1839C0
79E070
000000
ENDCHAR

STARTCHAR jisx0208_3168
ENCODING 12648
SWIDTH 960 0
DWIDTH 20 0
BBX 20 20 0 -2
BITMAP
000000
301F00
180300
0C6300
006180
606180
30C0C0
18C0C0
018060
030030
00FFC0
0CC0C0
0CC0C0
18C0C0
18C0C0
30C0C0
30C0C0
60FFC0
60C0C0
000000
ENDCHAR

STARTCHAR jisx0208_3169
ENCODING 12649
SWIDTH 960 0
DWIDTH 20 0
BBX 20 20 0 -2
BITMAP
000000
300C00
180C00
0BFFF0
030030
630030
32FFB0
180C00
000C00
00FFC0
00CCC0
0CFFC0
0CCCC0
18CCC0
18FFC0
300000
303180
6060C0
61C060
000000
ENDCHAR

STARTCHAR jisx0208_316A
ENCODING 12650
SWIDTH 960 0
DWIDTH 20 0
BBX 20 20 0 -2
BITMAP
000000
006000
066180
0C6300
18C600
00F000
019C00
030700
0E0180
7860C0
006000
066180
0C6300
18B600
00B000
019800
030C00
0E0700
7801E0
000000
ENDCHAR

STARTCHAR jisx0208_316B
ENCODING 12651
SWIDTH 960 0
DWIDTH 20 0
BBX 20 20 0 -2
BITMAP
000000
0C1800
0C1800
0C3FC0
0DB0C0
2B6180
2EC300
2C0600
6CDFE0
6CD860
0CD860
0CD860
0CDFE0
0CD860
16D860
1AD860
32D860
30DFE0
60D860
000000
ENDCHAR

STARTCHAR jisx0208_316C
ENCODING 12652
SWIDTH 960 0
DWIDTH 20 0
BBX 20 20 0 -2
BITMAP
000000
0C0000
0DFFF0
0C1B00
0D9B00
2AFFE0
2EDB60
2CDB60
6CDB60
6CFFE0
0C0000
0C0C00
0C0C00
0C0C00
16FFE0
1B0C00
330C00
300C00
61FFF0
000000
ENDCHAR

STARTCHAR jisx0208_316D
ENCODING 12653
SWIDTH 960 0
DWIDTH 20 0
BBX 20 20 0 -2
BITMAP
000000
019800
019800
7FFFE0
019800
01F800
0C0300
0C0300
7DFB60
0D9BC0
0D9B00
1D9B60
6DFB60
0C03E0
000000
199980
1998C0
30CC60
60CC60
000000
ENDCHAR

STARTCHAR jisx0208_316E
ENCODING 12654
SWIDTH 960 0
DWIDTH 20 0
BBX 20 20 0 -2
BITMAP
000000
630C00
360C00
1CFFC0
180C00
2C0C00
6BFFF0
0C0000
0EFFC0
16C0C0
16C0C0
36FFC0
661660
0636C0
067380
05B300
063180
0C2EC0
79F870
000000
ENDCHAR

STARTCHAR jisx0208_316F
ENCODING 12655
SWIDTH 960 0
DWIDTH 20 0
BBX 20 20 0 -2
BITMAP
000000
0C0000
183F80
1B0180
763F80
360180
1C0180
0AFFF0
1B0C00
7D9630
0D7660
0C0AC0
2B1B80
2B76C0
2D8AC0
6DBB60
6CE330
0C0300
0C1E00
000000
ENDCHAR

STARTCHAR jisx0208_3170
ENCODING 12656
SWIDTH 960 0
DWIDTH 20 0
BBX 20 20 0 -2
BITMAP
000000
0B0C00
0B0C00
3FDFC0
2AD8C0
3FB180
2AE300
3FDFE0
001B60
7FDB60
001B60
3FDB60
30DFE0
3FD800
18D800
18D830
0D9830
0BD830
7E0FF0
000000
ENDCHAR

STARTCHAR jisx0208_3171
ENCODING 12657
SWIDTH 960 0
DWIDTH 20 0
BBX 20 20 0 -2
BITMAP
000000
030C00
030C00
7FFFE0
030C00
030C00
0C0000
0C0000
0FDFC0
18D8C0
18D8C0
2D98C0
6598C0
0318C0
031BC0
061800
0C1860
181860
700FE0
000000
ENDCHAR

STARTCHAR jisx0208_3172
ENCODING 12658
SWIDTH 960 0
DWIDTH 20 0
BBX 20 20 0 -2
BITMAP
000000
030C00
7FFFE0
030C00
3FFFC0
3060C0
37FEC0
3060C0
2FFEC0
3000C0
37FEC0
3606C0
37FEC0
30E6C0
337CC0
2E66C0
3060C0
3FFFC0
3000C0
000000
ENDCHAR

STARTCHAR jisx0208_3173
ENCODING 12659
SWIDTH 960 0
DWIDTH 20 0
BBX 20 20 0 -2
BITMAP
000000
000C00
300C00
19FFE0
0C0C00
000C00
03FFF0
000000
00FFC0
7CC0C0
0CC0C0
0CFFC0
0C1E60
0C2AC0
0CEDC0
0B8C70
0C0C00
170000
71FFF0
000000
ENDCHAR

STARTCHAR jisx0208_3174
ENCODING 12660
SWIDTH 960 0
DWIDTH 20 0
BBX 20 20 0 -2
BITMAP
000000
0C0F80
160180
1B1980
3198C0
6018C0
3F30C0
0C3060
0C6060
7F6030
0C3FE0
0DB060
6DB060
6B3060
2B3060
2C3060
0DB060
0F3FE0
7C3060
000000
ENDCHAR

STARTCHAR jisx0208_3175
ENCODING 12661
SWIDTH 960 0
DWIDTH 20 0
BBX 20 20 0 -2
BITMAP
000000
0C0000
0FDF80
18D980
6D9980
075B80
1CD860
6FFFE0
0C0300
0FFF00
0C0300
0FFF00
0C0000
0FFFE0
0C0000
0FFFE0
300060
366C60
6335C0
000000
ENDCHAR

STARTCHAR jisx0208_3176
ENCODING 12662
SWIDTH 960 0
DWIDTH 20 0
BBX 20 20 0 -2
BITMAP
000000
0C6000
0C6000
0CFFF0
0CC000
0D8000
7F7F80
0C6180
0C6180
0C7F80
0C0000
0C0000
0CFFC0
0ED6C0
7CD6C0
00D6C0
00D6C0
00D6C0
03FFF0
000000
ENDCHAR

STARTCHAR jisx0208_3177
ENCODING 12663
SWIDTH 960 0
DWIDTH 20 0
BBX 20 20 0 -2
BITMAP
000000
0C0700
0C0580
0C0D80
7FCD80
180CC0
1818C0
181860
1FB060
196030
198E00
198300
198180
198000
318000
319C00
318700
618180
6F00C0
000000
ENDCHAR

STARTCHAR jisx0208_3178
ENCODING 12664
SWIDTH 960 0
DWIDTH 20 0
BBX 20 20 0 -2
BITMAP
000000
300000
19FFE0
0C1800
001800
601800
33FFF0
183000
003000
003000
007FE0
0C6060
0C6060
180060
180060
300060
3000C0
6000C0
600780
000000
ENDCHAR

STARTCHAR jisx0208_3179
ENCODING 12665
SWIDTH 960 0
DWIDTH 20 0
BBX 20 20 0 -2
BITMAP
000000
060000
067FE0
366660
366660
3F7FE0
366660
666660
667FE0
060600
3F8600
060600
06FFE0
060C60
07CC60
7E1860
003060
006060
01C3C0
000000
ENDCHAR

STARTCHAR jisx0208_317A
ENCODING 12666
SWIDTH 960 0
DWIDTH 20 0
BBX 20 20 0 -2
BITMAP
000000
000000
3F8FE0
318C60
318C60
318C60
318C60
318C60
318C60
318C60
31FC60
318C60
300060
300060
300060
300060
300060
3FFFE0
300060
000000
ENDCHAR

STARTCHAR jisx0208_317B
ENCODING 12667
SWIDTH 960 0
DWIDTH 20 0
BBX 20 20 0 -2
BITMAP
000000
006000
006000
006000
0FFF00
0C6300
0C6300
0C6300
0C6300
0C6300
7FFFE0
006000
00B000
00B000
019800
030C00
060600
1C0380
7000E0
000000
ENDCHAR

STARTCHAR jisx0208_317C
ENCODING 12668
SWIDTH 960 0
DWIDTH 20 0
BBX 20 20 0 -2
BITMAP
000000
006000
00C000
1FFF80
180180
1B6D80
195980
17FD80
18F180
195D80
176580
180180
006000
7FFFE0
00B000
019800
030C00
0E0700
7801E0
000000
ENDCHAR

STARTCHAR jisx0208_317D
ENCODING 12669
SWIDTH 960 0
DWIDTH 20 0
BBX 20 20 0 -2
BITMAP
000000
0C3000
0C1800
180C00
300000
65FFE0
060C00
0C0C00
0C0C00
180C00
380C00
58FFC0
180C00
180C00
180C00
180C00
180C00
180C00
1BFFF0
000000
ENDCHAR

STARTCHAR jisx0208_317E
ENCODING 12670
SWIDTH 960 0
DWIDTH 20 0
BBX 20 20 0 -2
BITMAP
000000
003000
003000
1FFFF0
180000
181800
180C00
180C00
186000
186180
1B60C0
1B6060
1B6060
1B6030
1B6030
366180
366180
2C6180
603F80
000000
ENDCHAR

STARTCHAR jisx0208_3221
ENCODING 12833
SWIDTH 960 0
DWIDTH 20 0
BBX 20 20 0 -2
BITMAP
000000
0C0000
0C7FE0
0C6660
0C6660
7F6660
0C6660
0C7FE0
0C6660
0B6660
1E6660
6C6660
0C7FE0
0C6660
0C0600
0C0600
0C0600
0C0600
3C0600
000000
ENDCHAR

STARTCHAR jisx0208_3222
ENCODING 12834
SWIDTH 960 0
DWIDTH 20 0
BBX 20 20 0 -2
BITMAP
000000
000000
7EFFE0
660C00
660C00
660C00
660C00
660C00
7E0C00
660C00
66FFE0
660C00
660C00
660C00
7E0C00
600C00
600C00
000C00
01FFF0
000000
ENDCHAR

STARTCHAR jisx0208_3223
ENCODING 12835
SWIDTH 960 0
DWIDTH 20 0
BBX 20 20 0 -2
BITMAP
000000
0C1980
0C1980
0C7FE0
0C1980
7F1980
0CFFF0
0C0600
1E0600
1B7FE0
2C6660
2C7FE0
6C6660
6C6660
0C7FE0
0C0000
0C18C0
0C3060
0CE030
000000
ENDCHAR

STARTCHAR jisx0208_3224
ENCODING 12836
SWIDTH 960 0
DWIDTH 20 0
BBX 20 20 0 -2
BITMAP
000000
000C00
7FEC00
600C00
619800
599FF0
6DB630
673660
6366C0
630600
658600
658B00
6CCB00
6CD980
58D980
6030C0
7FB0C0
606060
60C030
000000
ENDCHAR

STARTCHAR jisx0208_3225
ENCODING 12837
SWIDTH 960 0
DWIDTH 20 0
BBX 20 20 0 -2
BITMAP
000000
000000
7FDF80
601980
619980
5999B0
6D99B0
65B1F0
636000
630000
65BFC0
6598C0
6CD980
6CCD80
58CB00
600600
7FEB00
6019C0
607070
000000
ENDCHAR

STARTCHAR jisx0208_3226
ENCODING 12838
SWIDTH 960 0
DWIDTH 20 0
BBX 20 20 0 -2
BITMAP
000000
000000
3FFFC0
006000
006000
006000
006000
006000
006000
0FFF00
006000
006000
006000
006000
006000
006000
006000
7FFFE0
000000
000000
ENDCHAR

STARTCHAR jisx0208_3227
ENCODING 12839
SWIDTH 960 0
DWIDTH 20 0
BBX 20 20 0 -2
BITMAP
000000
01FC00
060600
0CC300
18D9C0
718C70
033600
1FE300
000300
000000
7FBFE0
00C060
18CC60
0CC660
02C160
0EC760
78BC60
00C060
03C1E0
000000
ENDCHAR

STARTCHAR jisx0208_3228
ENCODING 12840
SWIDTH 960 0
DWIDTH 20 0
BBX 20 20 0 -2
BITMAP
000000
180600
180C00
187FE0
7F76E0
035560
067FE0
066F60
0C5560
1B76E0
3E6660
566060
1B6660
180600
18FFF0
180600
180B00
1819C0
18F070
000000
ENDCHAR

STARTCHAR jisx0208_3229
ENCODING 12841
SWIDTH 960 0
DWIDTH 20 0
BBX 20 20 0 -2
BITMAP
000000
066300
033600
7FFFF0
606030
60C030
6FFF30
0C0300
0FFF00
0C0300
0FFF00
0C0000
0FFFE0
0C0000
0FFFE0
000060
36D860
336C60
6003C0
000000
ENDCHAR

STARTCHAR jisx0208_322A
ENCODING 12842
SWIDTH 960 0
DWIDTH 20 0
BBX 20 20 0 -2
BITMAP
000000
000300
7FC600
601FE0
619860
599FE0
6D9860
671860
631FE0
671800
659FF0
6D9800
6CDFF0
58C030
602AB0
602AB0
7FAC30
606060
6003C0
000000
ENDCHAR

STARTCHAR jisx0208_322B
ENCODING 12843
SWIDTH 960 0
DWIDTH 20 0
BBX 20 20 0 -2
BITMAP
000000
030C00
030C00
3FFFC0
030C00
030C00
7FFFE0
006000
006000
1FFF80
186180
186180
1FFF80
186180
186180
1FFF80
000000
0E0780
7800E0
000000
ENDCHAR

STARTCHAR jisx0208_322C
ENCODING 12844
SWIDTH 960 0
DWIDTH 20 0
BBX 20 20 0 -2
BITMAP
000000
000000
7FFFE0
600060
630C60
618C60
619860
6FFF60
606060
606060
666660
666660
666660
666660
666660
67FE60
660660
600060
6003E0
000000
ENDCHAR

STARTCHAR jisx0208_322D
ENCODING 12845
SWIDTH 960 0
DWIDTH 20 0
BBX 20 20 0 -2
BITMAP
000000
300C00
180C00
0C0C00
000C00
61FFE0
318C60
198C60
018C60
018C60
018C60
0D8C60
0DFFE0
198C60
180C00
300C00
300C00
600C00
600C00
000000
ENDCHAR

STARTCHAR jisx0208_322E
ENCODING 12846
SWIDTH 960 0
DWIDTH 20 0
BBX 20 20 0 -2
BITMAP
000000
018C00
018C00
7FFFF0
018C00
000000
330C00
160C00
0C6CC0
166CC0
736D80
06CC00
0B1600
1B1600
733300
033300
036180
06C0C0
3D8070
000000
ENDCHAR

STARTCHAR jisx0208_322F
ENCODING 12847
SWIDTH 960 0
DWIDTH 20 0
BBX 20 20 0 -2
BITMAP
000000
0C1800
0C1800
0BFFE0
18C300
186600
17FFF0
380000
39FFC0
5980C0
19FFC0
1980C0
19FFC0
180000
181800
1ACC60
1AC1B0
16C1B0
167F80
000000
ENDCHAR

STARTCHAR jisx0208_3230
ENCODING 12848
SWIDTH 960 0
DWIDTH 20 0
BBX 20 20 0 -2
BITMAP
000000
000000
1FFFC0
1800C0
1800C0
1FFFC0
180000
180000
17FFE0
186300
186180
18CFC0
17F8C0
181800
301800
33FFC0
301800
601800
6FFFF0
000000
ENDCHAR

STARTCHAR jisx0208_3231
ENCODING 12849
SWIDTH 960 0
DWIDTH 20 0
BBX 20 20 0 -2
BITMAP
000000
180C00
180C00
1DFFE0
566180
563300
5BFFF0
580000
58FFC0
18C0C0
18FFC0
18C0C0
18FFC0
180000
180C00
196660
1961B0
1B61B0
1B3F80
000000
ENDCHAR

STARTCHAR jisx0208_3232
ENCODING 12850
SWIDTH 960 0
DWIDTH 20 0
BBX 20 20 0 -2
BITMAP
000000
000C00
3E0C00
36FFE0
363180
361B00
3DFFF0
360000
367FC0
3660C0
367FC0
3E60C0
367FC0
360000
360C00
36B660
36B1B0
65B1B0
5D9F80
000000
ENDCHAR

STARTCHAR jisx0208_3233
ENCODING 12851
SWIDTH 960 0
DWIDTH 20 0
BBX 20 20 0 -2
BITMAP
000000
0C0000
0CFFC0
0C00C0
0C1980
7F8B00
0C0600
0C7FE0
1E6660
1B6660
2D7FE0
2C6660
6C6660
6C7FE0
0C6660
0C6660
0C6660
0C6660
0C65E0
000000
ENDCHAR

STARTCHAR jisx0208_3234
ENCODING 12852
SWIDTH 960 0
DWIDTH 20 0
BBX 20 20 0 -2
BITMAP
000000
060600
060600
360600
360600
360600
3FC600
367FE0
660600
660600
060600
05C600
0F0600
760600
060600
060600
060600
060600
06FFF0
000000
ENDCHAR

STARTCHAR jisx0208_3235
ENCODING 12853
SWIDTH 960 0
DWIDTH 20 0
BBX 20 20 0 -2
BITMAP
000000
000000
000000
3FFF00
000600
001C00
003000
006000
00C000
018000
030000
060000
0C0000
180000
180060
300060
300060
180060
0FFFC0
000000
ENDCHAR

STARTCHAR jisx0208_3236
ENCODING 12854
SWIDTH 960 0
DWIDTH 20 0
BBX 20 20 0 -2
BITMAP
000000
0C1800
0C1800
0BFFF0
183600
186300
18D980
3998C0
37FF70
599980
199980
19FF80
199980
199980
19FF80
199830
181830
181830
180FF0
000000
ENDCHAR

STARTCHAR jisx0208_3237
ENCODING 12855
SWIDTH 960 0
DWIDTH 20 0
BBX 20 20 0 -2
BITMAP
000000
180000
180FE0
3FCC60
360C60
660C60
060C60
7FEC60
060C60
060C60
360C60
37CC60
360C60
360C60
360C60
35EBE0
2F0C00
780C00
000C00
000000
ENDCHAR

STARTCHAR jisx0208_3238
ENCODING 12856
SWIDTH 960 0
DWIDTH 20 0
BBX 20 20 0 -2
BITMAP
000000
000000
1FFF80
186180
186180
17FD80
186180
18B180
199980
170D80
180180
1FFF80
000000
006000
033180
1B18C0
1B0660
330660
61FE00
000000
ENDCHAR

STARTCHAR jisx0208_3239
ENCODING 12857
SWIDTH 960 0
DWIDTH 20 0
BBX 20 20 0 -2
BITMAP
000000
300000
18FF80
0CC180
00C180
60FF80
30C180
18C180
00FF80
000000
000000
0DFFC0
0DB6C0
19B6C0
19B6C0
31B6C0
31B6C0
67FFF0
600000
000000
ENDCHAR

STARTCHAR jisx0208_323A
ENCODING 12858
SWIDTH 960 0
DWIDTH 20 0
BBX 20 20 0 -2
BITMAP
000000
000000
0703E0
7CFEC0
0C6CC0
0C3580
7F7FE0
0C0060
0C7FE0
1E0060
1B0060
2C7FE0
2C0000
6C0600
6C3300
0CB060
0CB1B0
0DB1B0
0D9F80
000000
ENDCHAR

STARTCHAR jisx0208_323B
ENCODING 12859
SWIDTH 960 0
DWIDTH 20 0
BBX 20 20 0 -2
BITMAP
000000
006000
006000
1FFF80
060600
030600
030C00
7FFFE0
000000
000000
0FFF00
0C0300
0C0300
0FFF00
0C0300
0C0300
0C0300
0FFF00
0C0300
000000
ENDCHAR

STARTCHAR jisx0208_323C
ENCODING 12860
SWIDTH 960 0
DWIDTH 20 0
BBX 20 20 0 -2
BITMAP
000000
000000
000000
7FFFE0
006000
006000
006000
006000
007800
006E00
006300
006180
006000
006000
006000
006000
006000
006000
006000
000000
ENDCHAR

STARTCHAR jisx0208_323D
ENCODING 12861
SWIDTH 960 0
DWIDTH 20 0
BBX 20 20 0 -2
BITMAP
000000
033000
033000
033000
063000
063060
0C31C0
0C3700
1C3C00
2C3000
6C3000
0C3000
0C3000
0C3000
0C3000
0C3030
0C3030
0C3030
0C1FF0
000000
ENDCHAR

STARTCHAR jisx0208_323E
ENCODING 12862
SWIDTH 960 0
DWIDTH 20 0
BBX 20 20 0 -2
BITMAP
000000
060000
06FFF0
0CC000
0CC000
18C000
18C000
38FFC0
38D8C0
58D8C0
18D8C0
18D980
18CD80
198B00
198600
198B00
1B1980
1B30C0
16E070
000000
ENDCHAR

STARTCHAR jisx0208_323F
ENCODING 12863
SWIDTH 960 0
DWIDTH 20 0
BBX 20 20 0 -2
BITMAP
000000
060000
05FFF0
0C00C0
0C00C0
1800C0
18FCC0
38CCC0
58CCC0
18CCC0
18CCC0
18CCC0
18FCC0
18C0C0
18C0C0
1800C0
1800C0
1800C0
1807C0
000000
ENDCHAR

STARTCHAR jisx0208_3240
ENCODING 12864
SWIDTH 960 0
DWIDTH 20 0
BBX 20 20 0 -2
BITMAP
000000
0CC000
0CC000
0CC000
18C3E0
17FB60
18DB60
38DB60
38DB60
58DB60
18DB60
18DB60
18DB60
199B60
199B60
199B60
1B1B60
1B1BE0
16F360
000000
ENDCHAR

STARTCHAR jisx0208_3241
ENCODING 12865
SWIDTH 960 0
DWIDTH 20 0
BBX 20 20 0 -2
BITMAP
000000
0C0000
0BFFF0
0C3600
183600
183600
183600
3BFFE0
3B3660
5B3660
1B3660
1B3660
1B3660
1B3660
1B3660
1B3660
1B3660
1BFFE0
1B0060
000000
ENDCHAR

STARTCHAR jisx0208_3242
ENCODING 12866
SWIDTH 960 0
DWIDTH 20 0
BBX 20 20 0 -2
BITMAP
000000
060C00
060C00
0C0C00
0DFFE0
180C00
180C00
380C00
5BFFF0
180000
180C00
180C00
180C00
19FFE0
180C00
180C00
180C00
180C00
1BFFF0
000000
ENDCHAR

STARTCHAR jisx0208_3243
ENCODING 12867
SWIDTH 960 0
DWIDTH 20 0
BBX 20 20 0 -2
BITMAP
000000
060000
060000
060000
7FEFE0
066C60
066C60
066C60
066C60
066C60
0C6C60
0C6C60
0C6C60
0C6C60
186C60
186C60
30CC60
30CFE0
678C60
000000
ENDCHAR

STARTCHAR jisx0208_3244
ENCODING 12868
SWIDTH 960 0
DWIDTH 20 0
BBX 20 20 0 -2
BITMAP
000000
000000
7FFFF0
000180
000180
000180
0FF180
0C3180
0C3180
0C3180
0C3180
0C3180
0C3180
0FF180
0C0180
000180
000180
000180
000F80
000000
ENDCHAR

STARTCHAR jisx0208_3245
ENCODING 12869
SWIDTH 960 0
DWIDTH 20 0
BBX 20 20 0 -2
BITMAP
000000
006000
006000
7FFFE0
006000
1FFF80
000000
0FFF00
0C0300
0FFF00
030C00
019800
7FFFE0
060000
3FEFC0
066CC0
066CC0
0C6FC0
39CCC0
000000
ENDCHAR

STARTCHAR jisx0208_3246
ENCODING 12870
SWIDTH 960 0
DWIDTH 20 0
BBX 20 20 0 -2
BITMAP
000000
000000
7FFFF0
006000
00C000
0FFF80
0C0180
0FFF80
0C0180
0FFF80
0C0180
0FFF80
018000
03FE00
0D8600
38CC00
007800
03CF00
7E01F0
000000
ENDCHAR

STARTCHAR jisx0208_3247
ENCODING 12871
SWIDTH 960 0
DWIDTH 20 0
BBX 20 20 0 -2
BITMAP
000000
300C00
300C00
31FFF0
318030
7D8030
367FC0
360C00
363830
66EC60
660DC0
663B00
6CE700
7C0B80
6E3AC0
1AE360
180330
300600
603C00
000000
ENDCHAR

STARTCHAR jisx0208_3248
ENCODING 12872
SWIDTH 960 0
DWIDTH 20 0
BBX 20 20 0 -2
BITMAP
000000
006000
006000
7FFFE0
600060
600060
6FFF60
006000
01C0C0
076180
3C7300
01D600
073C00
3C5600
00DB00
039980
0E18E0
783000
01E000
000000
ENDCHAR

STARTCHAR jisx0208_3249
ENCODING 12873
SWIDTH 960 0
DWIDTH 20 0
BBX 20 20 0 -2
BITMAP
000000
006000
7FFFE0
600060
5FFF60
006000
0FFF00
0C0300
0FFF00
0C0300
0FFF00
0C0300
7FFFE0
060600
1FFF80
7186E0
018600
070600
3C3C00
000000
ENDCHAR

STARTCHAR jisx0208_324A
ENCODING 12874
SWIDTH 960 0
DWIDTH 20 0
BBX 20 20 0 -2
BITMAP
000000
000180
03B180
7E1980
0C0D80
0C0180
7F8180
0C3180
0C1980
1E0D80
1B0170
2D83C0
2C1D80
6CF180
6C0180
0C0180
0C0180
0C0180
0C0180
000000
ENDCHAR

STARTCHAR jisx0208_324B
ENCODING 12875
SWIDTH 960 0
DWIDTH 20 0
BBX 20 20 0 -2
BITMAP
000000
000000
01F7E0
7D9860
6D9860
6D9860
6DF7E0
6D8000
7D8000
6D8000
6DEFE0
6D8660
6D8660
6D82C0
7DFAC0
618180
6182C0
018660
019C30
000000
ENDCHAR

STARTCHAR jisx0208_324C
ENCODING 12876
SWIDTH 960 0
DWIDTH 20 0
BBX 20 20 0 -2
BITMAP
000000
000000
1FFF80
186180
186180
1FFF80
186180
186180
1FFF80
006000
006000
7FFFE0
00F000
015800
036C00
066600
1C6380
7060E0
006000
000000
ENDCHAR

STARTCHAR jisx0208_324D
ENCODING 12877
SWIDTH 960 0
DWIDTH 20 0
BBX 20 20 0 -2
BITMAP
000000
0C0000
0C0000
7FDFC0
0CD8C0
0CD8C0
18D8C0
18D8C0
30DFC0
678000
006000
006000
7FFFE0
00F000
015800
036C00
0E6700
7861E0
006000
000000
ENDCHAR

STARTCHAR jisx0208_324E
ENCODING 12878
SWIDTH 960 0
DWIDTH 20 0
BBX 20 20 0 -2
BITMAP
000000
000600
7FF600
00C600
3ECC00
36CFF0
3EDB30
30B360
03C300
000300
7FF300
00C300
3EC580
36C580
36C580
3ECCC0
30CCC0
00D860
03B030
000000
ENDCHAR

STARTCHAR jisx0208_324F
ENCODING 12879
SWIDTH 960 0
DWIDTH 20 0
BBX 20 20 0 -2
BITMAP
000000
300000
1BFFF0
0C00C0
0000C0
6000C0
30FCC0
18CCC0
00CCC0
00CCC0
00CCC0
0CCCC0
0CFCC0
18C0C0
1800C0
3000C0
3000C0
6000C0
6007C0
000000
ENDCHAR

STARTCHAR jisx0208_3250
ENCODING 12880
SWIDTH 960 0
DWIDTH 20 0
BBX 20 20 0 -2
BITMAP
000000
006000
006000
006000
0C6180
0C6180
0C6180
186300
186600
306000
00B000
00B000
019800
019800
030C00
060600
0C0300
180180
7000E0
000000
ENDCHAR

STARTCHAR jisx0208_3251
ENCODING 12881
SWIDTH 960 0
DWIDTH 20 0
BBX 20 20 0 -2
BITMAP
000000
000000
7EFFF0
0C00C0
0C00C0
0C00C0
0C7CC0
0C6CC0
7F6CC0
0C6CC0
0C6CC0
0C6CC0
0C7CC0
0C60C0
0F00C0
7C00C0
0000C0
0000C0
0007C0
000000
ENDCHAR

STARTCHAR jisx0208_3252
ENCODING 12882
SWIDTH 960 0
DWIDTH 20 0
BBX 20 20 0 -2
BITMAP
000000
180000
187F80
186180
7F6180
036F80
066D80
066D80
0C6D80
19FFE0
3D8060
558060
19BF60
19B360
19B360
19BF60
19B060
198060
1981E0
000000
ENDCHAR

STARTCHAR jisx0208_3253
ENCODING 12883
SWIDTH 960 0
DWIDTH 20 0
BBX 20 20 0 -2
BITMAP
000000
0003C0
003E00
3FE000
006000
006000
006000
7FFFE0
00F000
015800
015800
036C00
066600
0C6300
186180
3060C0
606060
006000
006000
000000
ENDCHAR

STARTCHAR jisx0208_3254
ENCODING 12884
SWIDTH 960 0
DWIDTH 20 0
BBX 20 20 0 -2
BITMAP
000000
000C00
070C00
7DFFF0
0D8030
0D8030
7F7FC0
0C0C00
0C3830
1EEC60
1B0EC0
2C3B80
2CE700
6C0B80
6C1AC0
0C7360
0DC330
0C0600
0C3C00
000000
ENDCHAR

STARTCHAR jisx0208_3255
ENCODING 12885
SWIDTH 960 0
DWIDTH 20 0
BBX 20 20 0 -2
BITMAP
000000
181800
181800
3FBFE0
363600
636300
3FFFC0
3060C0
3060C0
2FFEC0
3060C0
3060C0
33FCC0
330CC0
330CC0
33FCC0
3000C0
3FFFC0
3000C0
000000
ENDCHAR

ENDFONT
